<svg xmlns="http://www.w3.org/2000/svg" width="671.823" height="585.432" viewBox="0 0 671.823 585.432">
  <g id="Group_404" data-name="Group 404" transform="translate(-34.376 -45.228)">
    <g id="Group_398" data-name="Group 398" transform="translate(49.044 87.629)">
      <ellipse id="Ellipse_37" data-name="Ellipse 37" cx="288.451" cy="14.973" rx="288.451" ry="14.973" transform="translate(22.094 513.085)" fill="#ccccf0"/>
      <g id="Group_397" data-name="Group 397">
        <g id="Group_361" data-name="Group 361" transform="translate(384.989 149.911)">
          <g id="Group_355" data-name="Group 355" transform="translate(0 156.155)">
            <g id="Group_351" data-name="Group 351" transform="translate(67.601)">
              <g id="Group_349" data-name="Group 349">
                <path id="Path_812" data-name="Path 812" d="M384.616,272.2H359.3L338.72,299.784,382.473,373.3l-24.5,88h42.376s20.616-66.767,24-87.632a22.7,22.7,0,0,0-1.652-12.826Z" transform="translate(-338.72 -272.198)" fill="#47477c"/>
              </g>
              <g id="Group_350" data-name="Group 350" transform="translate(16.75 189.104)">
                <path id="Path_813" data-name="Path 813" d="M387.28,395.369s30.466,10.245,31.814,25.613v4.852H349.63l9.611-30.465Z" transform="translate(-349.63 -395.369)" fill="#332c30"/>
                <path id="Path_814" data-name="Path 814" d="M350.486,412.983h68.15V411.6H350.921Z" transform="translate(-349.172 -386.68)" fill="#fff"/>
                <path id="Path_815" data-name="Path 815" d="M379.8,406.657a18.415,18.415,0,0,1,5.88-7.012l-1.342-.717a17.49,17.49,0,0,0-5.8,7.173Z" transform="translate(-334.16 -393.464)" fill="#fff"/>
                <path id="Path_816" data-name="Path 816" d="M376.616,404.769c.722-4.112,4.954-7.019,5-7.047l-1.428-.64a12.226,12.226,0,0,0-4.928,7.448Z" transform="translate(-335.913 -394.452)" fill="#fff"/>
              </g>
            </g>
            <g id="Group_354" data-name="Group 354" transform="translate(0 0.001)">
              <g id="Group_352" data-name="Group 352" transform="translate(0 189.103)">
                <path id="Path_817" data-name="Path 817" d="M332.338,395.369s30.466,10.245,31.814,25.613v4.852H294.689l9.609-30.465Z" transform="translate(-294.689 -395.369)" fill="#332c30"/>
                <path id="Path_818" data-name="Path 818" d="M295.544,412.983h68.15V411.6H295.98Z" transform="translate(-294.231 -386.68)" fill="#fff"/>
                <path id="Path_819" data-name="Path 819" d="M324.853,406.657a18.429,18.429,0,0,1,5.88-7.012l-1.34-.717a17.475,17.475,0,0,0-5.8,7.173Z" transform="translate(-279.22 -393.464)" fill="#fff"/>
                <path id="Path_820" data-name="Path 820" d="M321.674,404.769c.722-4.112,4.956-7.019,5-7.047l-1.428-.64a12.233,12.233,0,0,0-4.928,7.448Z" transform="translate(-280.972 -394.452)" fill="#fff"/>
              </g>
              <g id="Group_353" data-name="Group 353" transform="translate(6.625)">
                <path id="Path_821" data-name="Path 821" d="M346.3,272.2,299,461.3h39.977L400.79,272.2Z" transform="translate(-299.004 -272.198)" fill="#47477c"/>
                <path id="Path_822" data-name="Path 822" d="M352.088,324.475l7.879-23.717,11.675-10.264" transform="translate(-270.589 -262.405)" fill="none" stroke="#33335f" stroke-width="0.845"/>
              </g>
            </g>
          </g>
          <g id="Group_359" data-name="Group 359" transform="translate(53.92 10.265)">
            <g id="Group_356" data-name="Group 356" transform="translate(42.397 63.066)">
              <path id="Path_823" data-name="Path 823" d="M383.811,219.164,359.47,231.9l39.586,66.705a15.576,15.576,0,0,0,24.224,3.387h0a15.574,15.574,0,0,0,2.323-19.67Z" transform="translate(-356.328 -217.763)" fill="#5f404f"/>
              <path id="Path_824" data-name="Path 824" d="M470.6,254.535l-13.24-24.072-65.872,40.959A15.576,15.576,0,0,0,388.6,295.71h0a15.576,15.576,0,0,0,19.715,1.915Z" transform="translate(-343.174 -211.715)" fill="#5f404f"/>
              <path id="Path_825" data-name="Path 825" d="M430.606,235.17l17.338-10.93s5.013-2.171,5.355,3.006c0,0,3.451.1,4.815,10.6,1.052,8.1,2.8,10.874-14.5,21.746Z" transform="translate(-318.25 -215.288)" fill="#5f404f"/>
              <path id="Path_826" data-name="Path 826" d="M384.177,218.252l4.849,7.676-23.838,16.215-7.764-14.3Z" transform="translate(-357.424 -218.252)" fill="#fff"/>
            </g>
            <path id="Path_827" data-name="Path 827" d="M375.347,213.661H356.509A6.7,6.7,0,0,0,350,218.806l-20.186,84.727h59.577l7.772-42.354s14.254-15.445,2.854-38.78a10.152,10.152,0,0,0-6.068-5.177l-11.237-3.56Z" transform="translate(-329.809 -157.643)" fill="#fff"/>
            <g id="Group_357" data-name="Group 357" transform="translate(74)">
              <path id="Path_828" data-name="Path 828" d="M407.372,219.258l7.515-2.437a25.544,25.544,0,0,1,10.63-1.369,26.914,26.914,0,0,1,8.793,2.455,43.758,43.758,0,0,1,7.366,4.457q3.358,2.522,6.462,4.749a27.675,27.675,0,0,0,6.011,3.358,8.631,8.631,0,0,0,5.966.141,5.355,5.355,0,0,0,3.381-3.094q1.011-2.331-.52-7.061a45.614,45.614,0,0,0-3.382-7.824,72.372,72.372,0,0,0-4.475-7.162q-2.4-3.374-4.968-6.31t-4.905-5.407l26-16.58q3.026,3.169,6.418,7.224a100.938,100.938,0,0,1,6.7,9.054,116.438,116.438,0,0,1,6.433,11.065,87.97,87.97,0,0,1,5.421,13.161,60.506,60.506,0,0,1,3.163,17.585,40.63,40.63,0,0,1-2.272,14.809,30.139,30.139,0,0,1-7.009,11.116,27.332,27.332,0,0,1-11,6.642q-8.212,2.662-14.128,1.965a32.073,32.073,0,0,1-10.594-3.025,42.476,42.476,0,0,1-8.605-5.67,73.709,73.709,0,0,0-7.908-5.894,27.2,27.2,0,0,0-8.714-3.636q-4.735-1.082-11,.95Zm-6.54,2.122L411.571,254.5l-22.825,7.4-10.738-33.124Z" transform="translate(-378.008 -177.174)" fill="#d95077"/>
            </g>
            <g id="Group_358" data-name="Group 358" transform="translate(13.333 56.018)">
              <path id="Path_829" data-name="Path 829" d="M366.8,225.075l-26.886,5.648,19.983,74.95a15.573,15.573,0,0,0,22.392,9.838h0a15.576,15.576,0,0,0,7.578-18.3Z" transform="translate(-337.734 -207.551)" fill="#6c4959"/>
              <path id="Path_830" data-name="Path 830" d="M417.4,241.782l-22.742-15.414-40.028,66.441a15.574,15.574,0,0,0,8.479,22.942h0a15.576,15.576,0,0,0,18.428-7.262Z" transform="translate(-331.087 -206.859)" fill="#6c4959"/>
              <path id="Path_831" data-name="Path 831" d="M340.672,236.833l-1.584-5.265a13.9,13.9,0,0,1,10.618-17.642h0a13.9,13.9,0,0,1,16.216,10.408l1.637,6.85Z" transform="translate(-338.493 -213.661)" fill="#fff"/>
              <path id="Path_832" data-name="Path 832" d="M379.174,234.341l10.469-17.621s3.476-4.214,6.137.239c0,0,3.117-1.485,9.11,7.253,4.618,6.731,7.437,8.41-3.023,25.963Z" transform="translate(-316.717 -212.989)" fill="#6c4959"/>
            </g>
          </g>
          <g id="Group_360" data-name="Group 360" transform="translate(78.747)">
            <path id="Path_833" data-name="Path 833" d="M356.524,224.805l16.57,3.422,1.722-27.487L363.2,197.318Z" transform="translate(-340.336 -156.126)" fill="#6c4959"/>
            <path id="Path_834" data-name="Path 834" d="M356.524,217.127s8.022,13.792,17.6,10.825-7.3-16.288-7.3-16.288Z" transform="translate(-340.336 -148.447)" fill="#6c4959"/>
            <path id="Path_835" data-name="Path 835" d="M360.193,201.511s1.517,9.043,11.851,9.892l.619-9.892Z" transform="translate(-338.372 -153.882)" fill="#5f404f"/>
            <path id="Path_836" data-name="Path 836" d="M380.179,193.32s-5.628-1.738-7.262-8.86l1.165.238A17.505,17.505,0,0,1,380.179,193.32Z" transform="translate(-331.561 -163.009)"/>
            <path id="Path_837" data-name="Path 837" d="M356.943,195.22A16.606,16.606,0,1,0,377,183,16.608,16.608,0,0,0,356.943,195.22Z" transform="translate(-340.365 -164.043)" fill="#6c4959"/>
            <path id="Path_838" data-name="Path 838" d="M381.877,186.452s-4.706,8.57-21.393,6.9l-2.129-7.382,7.185-4.787S378.888,183.621,381.877,186.452Z" transform="translate(-339.356 -164.763)" fill="#332c30"/>
            <path id="Path_839" data-name="Path 839" d="M389.4,191.042s-3.9-9.657-22.629-9.86c0,0-14.645,2.608-14.653,15.916s11.028,19.211,11.028,19.211l1.716-4.936a14.514,14.514,0,0,0,.72-6.31L364,190.314l8.383-5.67,9.5.679L385,187.315Z" transform="translate(-342.692 -164.764)" fill="#332c30"/>
            <path id="Path_840" data-name="Path 840" d="M346.332,179.93a12.354,12.354,0,1,0,14.92-9.09A12.355,12.355,0,0,0,346.332,179.93Z" transform="translate(-345.98 -170.488)" fill="#332c30"/>
            <path id="Path_841" data-name="Path 841" d="M355.984,191.962a5.673,5.673,0,1,0,6.852-4.174A5.672,5.672,0,0,0,355.984,191.962Z" transform="translate(-340.711 -161.315)" fill="#6c4959"/>
          </g>
        </g>
        <g id="Group_377" data-name="Group 377" transform="translate(0 97.673)">
          <g id="Group_369" data-name="Group 369" transform="translate(65.912 190.656)">
            <g id="Group_364" data-name="Group 364" transform="translate(41.106)">
              <g id="Group_363" data-name="Group 363" transform="translate(27.422 177.249)">
                <path id="Path_842" data-name="Path 842" d="M179.876,407.086,165.73,376.1l-22.35,12.254,10.981,19.31Z" transform="translate(-125.135 -376.096)" fill="#e79fa4"/>
                <g id="Group_362" data-name="Group 362" transform="translate(0 30.99)">
                  <path id="Path_843" data-name="Path 843" d="M160.722,396.854s-27.939,9.2-29.226,23.863v4.629h68.632l-13.891-29.065Z" transform="translate(-131.496 -396.281)" fill="#332c30"/>
                  <path id="Path_844" data-name="Path 844" d="M198.876,413.085H131.5v-1.318H198.46Z" transform="translate(-131.496 -387.991)" fill="#fff"/>
                  <path id="Path_845" data-name="Path 845" d="M148.26,407.05a17.582,17.582,0,0,0-5.61-6.689l1.279-.685a16.688,16.688,0,0,1,5.538,6.844Z" transform="translate(-125.525 -394.464)" fill="#fff"/>
                  <path id="Path_846" data-name="Path 846" d="M151.03,405.249c-.688-3.921-4.727-6.7-4.766-6.721l1.362-.613a11.667,11.667,0,0,1,4.7,7.105Z" transform="translate(-123.591 -395.406)" fill="#fff"/>
                </g>
              </g>
              <path id="Path_847" data-name="Path 847" d="M130.932,379.908l17.294,36.124,39.977-2.79-29.027-75.717Z" transform="translate(-104.375 -219.492)" fill="#d49449"/>
              <path id="Path_848" data-name="Path 848" d="M144.393,260.646l-27.43,70.65c-6.367,16.4-3.473,37.824,7.587,51.506l10.42,12.893,42.941-127.437Z" transform="translate(-113.635 -260.646)" fill="#e1a454"/>
            </g>
            <g id="Group_368" data-name="Group 368" transform="translate(0 3.701)">
              <g id="Group_366" data-name="Group 366" transform="translate(0 167.932)">
                <path id="Path_849" data-name="Path 849" d="M137.581,409.044l9.438-28.444-26.05-8.163L109.1,411.553Z" transform="translate(-74.958 -372.437)" fill="#e79fa4"/>
                <g id="Group_365" data-name="Group 365" transform="translate(0 36.607)">
                  <path id="Path_850" data-name="Path 850" d="M120.957,396.281s-30.325,9.774-33.5,24.436l-.6,4.629h53.983l8.747-29.065Z" transform="translate(-86.861 -396.281)" fill="#332c30"/>
                  <path id="Path_851" data-name="Path 851" d="M141.861,413.085H87.194l.17-1.318h54.893Z" transform="translate(-86.683 -387.991)" fill="#fff"/>
                  <path id="Path_852" data-name="Path 852" d="M104.707,407.05a14.614,14.614,0,0,0-4.749-6.689l1.368-.685a13.907,13.907,0,0,1,4.657,6.844Z" transform="translate(-79.85 -394.464)" fill="#fff"/>
                  <path id="Path_853" data-name="Path 853" d="M107.7,405.249c-.183-3.921-3.864-6.7-3.9-6.721l1.44-.613a9.868,9.868,0,0,1,3.788,7.105Z" transform="translate(-77.791 -395.406)" fill="#fff"/>
                </g>
              </g>
              <g id="Group_367" data-name="Group 367" transform="translate(27.958)">
                <path id="Path_854" data-name="Path 854" d="M217.857,281.4,152.989,455.969l-47.918-.627L165.3,263.056Z" transform="translate(-105.071 -263.056)" fill="#e1a454"/>
                <path id="Path_855" data-name="Path 855" d="M140.973,278.772l5.453,10.009-26.4,82.887" transform="translate(-97.067 -254.644)" fill="none" stroke="#d49449" stroke-width="0.806"/>
              </g>
            </g>
          </g>
          <g id="Group_375" data-name="Group 375">
            <g id="Group_371" data-name="Group 371">
              <path id="Path_856" data-name="Path 856" d="M103.9,233.336s-2.024-4.773,6.219-3.738,4.538,10.59,4.538,10.59Z" transform="translate(-11.943 -86.689)" fill="#e79fa4"/>
              <path id="Path_857" data-name="Path 857" d="M199.389,218.161,98.428,187.105l-4.67,24.075L192.036,252Z" transform="translate(-17.257 -109.356)" fill="#47477c"/>
              <g id="Group_370" data-name="Group 370">
                <path id="Path_858" data-name="Path 858" d="M128.446,266.388l-6.715-8.487a34.984,34.984,0,0,1-6.832-12.995,36.879,36.879,0,0,1-1.042-12.462,60.111,60.111,0,0,1,2.206-11.585q1.637-5.513,3.014-10.563a38,38,0,0,0,1.445-9.319,11.824,11.824,0,0,0-2.665-7.729,7.331,7.331,0,0,0-5.587-2.863q-3.475-.187-8.817,4.038A62.2,62.2,0,0,0,95.02,202.5a99.1,99.1,0,0,0-7.061,9.164,109.727,109.727,0,0,0-5.731,9.39q-2.547,4.7-4.6,8.879l-33.7-25.472q2.628-5.4,6.213-11.687a138.644,138.644,0,0,1,8.426-12.927,159.956,159.956,0,0,1,11.137-13.54,120.785,120.785,0,0,1,14.314-13.24,82.822,82.822,0,0,1,21.069-12.453,55.621,55.621,0,0,1,20.1-4.148,41.243,41.243,0,0,1,17.616,3.7,37.4,37.4,0,0,1,13.775,10.95q7.339,9.276,9.265,17.2a43.913,43.913,0,0,1,1.171,15.044,58.085,58.085,0,0,1-3.173,13.755,101.152,101.152,0,0,0-3.8,12.969A37.242,37.242,0,0,0,159.542,223q.868,6.6,6.467,13.666Zm5.843,7.386L171.7,244.18l20.393,25.776-37.406,29.594Z" transform="translate(-43.93 -136.464)" fill="#d95077"/>
              </g>
              <path id="Path_859" data-name="Path 859" d="M96.594,195.647l2.433-9.373s-3.556-5.409-7.34,4.875c0,0-5.415-1.564-8.631,4.5s-4.637,12.815,6.024,18.175,14.128-1.614,14.128-1.614,4.655-7.022.425-11.272S96.594,195.647,96.594,195.647Z" transform="translate(-24.239 -110.562)" fill="#e79fa4"/>
            </g>
            <g id="Group_372" data-name="Group 372" transform="translate(137.776 108.805)">
              <path id="Path_860" data-name="Path 860" d="M195.226,211.273l20.825,11.638-13.5,88.315-68.88-22.042,26.622-81.851H180.2Z" transform="translate(-133.669 -207.333)" fill="#47477c"/>
              <path id="Path_861" data-name="Path 861" d="M145.548,228.93c-.077.238,4.486-13.79,4.486-13.79" transform="translate(-127.311 -203.154)" fill="none" stroke="#33335f" stroke-width="0.806"/>
            </g>
            <g id="Group_374" data-name="Group 374" transform="translate(91.961 121.952)">
              <path id="Path_862" data-name="Path 862" d="M137.436,247.389,127.8,230.977a2.471,2.471,0,0,0-2.242-1.431h0a2.471,2.471,0,0,0-2.472,2.472v9.276l-19.257-8.01s1.962,10.977,23.306,27.138,30.76,20.172,30.76,20.172l2.133-19.053Z" transform="translate(-103.828 -208.589)" fill="#e79fa4"/>
              <g id="Group_373" data-name="Group 373" transform="translate(33.608)">
                <path id="Path_863" data-name="Path 863" d="M125.718,274.107,137.584,244l61.089,27.672a18.345,18.345,0,0,1,7,27.944h0a18.345,18.345,0,0,1-22.745,5.188Z" transform="translate(-125.718 -200.85)" fill="#47477c"/>
                <path id="Path_864" data-name="Path 864" d="M198.684,216.209a16.372,16.372,0,0,0-19.1,12.258l-1.928,8.068-20.677,61.55a18.344,18.344,0,1,0,35.3,9.967l17.045-64.863,1.865-6.2A16.372,16.372,0,0,0,198.684,216.209Z" transform="translate(-109.414 -215.896)" fill="#47477c"/>
                <path id="Path_865" data-name="Path 865" d="M138.422,254.968l33.894,14.161,14.844-39.79" transform="translate(-118.918 -208.7)" fill="none" stroke="#33335f" stroke-width="0.806"/>
              </g>
            </g>
          </g>
          <g id="Group_376" data-name="Group 376" transform="translate(166.274 54.642)">
            <path id="Path_866" data-name="Path 866" d="M179.761,218.406l-16.084,1.784-1.118-24.4,13.722-1.784Z" transform="translate(-146.702 -160.303)" fill="#e79fa4"/>
            <path id="Path_867" data-name="Path 867" d="M181.185,212.513s-10.511,9.906-19.022,5.533c-7.3-3.749,5.417-13.029,5.417-13.029Z" transform="translate(-148.126 -154.409)" fill="#e79fa4"/>
            <path id="Path_868" data-name="Path 868" d="M163.068,207.253c.485-.009,12.259.27,13.027-12.307l-13.46,1.282Z" transform="translate(-146.662 -159.801)" fill="#da8f98"/>
            <path id="Path_869" data-name="Path 869" d="M187.056,193.058A15.843,15.843,0,1,1,169.3,179.39,15.843,15.843,0,0,1,187.056,193.058Z" transform="translate(-150.481 -168.2)" fill="#e79fa4"/>
            <path id="Path_870" data-name="Path 870" d="M157.77,185.708s4.7-8.754,22.484-7.006c0,0,13.618,3.992,12.247,16.615s-12.451,17.076-12.451,17.076l-.912-3.97a17.889,17.889,0,0,1-.037-7.839l2.84-12.932L174.58,181.4l-9.08-.341-3.169,1.566Z" transform="translate(-149.266 -168.62)" fill="#332c30"/>
            <path id="Path_871" data-name="Path 871" d="M175.783,188.72c-.184-.06-6.537-.861-7.059-7.626-.427-5.556,8.963,1.984,8.963,1.984Z" transform="translate(-143.41 -168.309)" fill="#332c30"/>
            <path id="Path_872" data-name="Path 872" d="M181.57,188.744a5.975,5.975,0,1,1-6.7-5.154A5.976,5.976,0,0,1,181.57,188.744Z" transform="translate(-142.897 -165.907)" fill="#e79fa4"/>
            <path id="Path_873" data-name="Path 873" d="M179.413,185.555a13.548,13.548,0,0,0-8.793,1.029c-4.709,2.206-18.858,6.11-18.377-3.961.514-10.8,12.728-13.105,21.89-7.91,10.919,6.192,20.38,5.677,21.324,20.518L183.824,185.8Z" transform="translate(-152.231 -172.055)" fill="#332c30"/>
          </g>
        </g>
        <g id="Group_396" data-name="Group 396" transform="translate(235.084)">
          <g id="Group_385" data-name="Group 385" transform="translate(16.019 276.423)">
            <g id="Group_380" data-name="Group 380" transform="translate(55.043 0.001)">
              <g id="Group_379" data-name="Group 379" transform="translate(0 175.86)">
                <path id="Path_874" data-name="Path 874" d="M270.868,413.553l4.681-39.535-24.3-6.582L245.95,412.8Z" transform="translate(-241.937 -367.436)" fill="#e79fa4"/>
                <g id="Group_378" data-name="Group 378" transform="translate(0 44.555)">
                  <path id="Path_875" data-name="Path 875" d="M273.216,396.456s28.8,9.683,30.072,24.21v4.586H243.336l3.376-28.8Z" transform="translate(-243.336 -396.456)" fill="#332c30"/>
                  <path id="Path_876" data-name="Path 876" d="M243.637,413.105h59.489V411.8H243.79Z" transform="translate(-243.175 -388.243)" fill="#fff"/>
                  <path id="Path_877" data-name="Path 877" d="M268.131,407.125a17.4,17.4,0,0,1,5.558-6.626l-1.268-.679a16.548,16.548,0,0,0-5.486,6.78Z" transform="translate(-230.704 -394.655)" fill="#fff"/>
                  <path id="Path_878" data-name="Path 878" d="M265.126,405.342c.682-3.886,4.684-6.636,4.723-6.66l-1.349-.606a11.554,11.554,0,0,0-4.658,7.039Z" transform="translate(-232.36 -395.589)" fill="#fff"/>
                </g>
              </g>
              <path id="Path_879" data-name="Path 879" d="M286.034,252.891s16.727,19.871,11.271,60.371c-6.594,48.939-12.775,145.865-12.775,145.865H244.317L259.9,294.563Z" transform="translate(-242.811 -252.891)" fill="#47477c"/>
            </g>
            <g id="Group_384" data-name="Group 384" transform="translate(0 0)">
              <g id="Group_382" data-name="Group 382" transform="translate(0 175.861)">
                <path id="Path_880" data-name="Path 880" d="M236.961,413.553l9.2-39.535-24.3-6.582-9.81,45.366Z" transform="translate(-205.044 -367.436)" fill="#e79fa4"/>
                <g id="Group_381" data-name="Group 381" transform="translate(0 44.555)">
                  <path id="Path_881" data-name="Path 881" d="M240.375,396.456s28.8,9.683,30.07,24.21v4.586H207.484l6.387-28.8Z" transform="translate(-207.484 -396.456)" fill="#332c30"/>
                  <path id="Path_882" data-name="Path 882" d="M208.053,413.105h62.088V411.8h-61.8Z" transform="translate(-207.18 -388.243)" fill="#fff"/>
                  <path id="Path_883" data-name="Path 883" d="M234.24,407.125A17.383,17.383,0,0,1,239.8,400.5l-1.268-.679a16.535,16.535,0,0,0-5.486,6.78Z" transform="translate(-193.802 -394.655)" fill="#fff"/>
                  <path id="Path_884" data-name="Path 884" d="M231.236,405.342c.682-3.886,4.683-6.636,4.721-6.66l-1.35-.606a11.567,11.567,0,0,0-4.658,7.039Z" transform="translate(-195.459 -395.589)" fill="#fff"/>
                </g>
              </g>
              <g id="Group_383" data-name="Group 383" transform="translate(3.464)">
                <path id="Path_885" data-name="Path 885" d="M250.675,252.891,209.74,459.425h41.569l53.234-206.534Z" transform="translate(-209.74 -252.891)" fill="#47477c"/>
                <path id="Path_886" data-name="Path 886" d="M248.493,376.829l22.869-89.372,8.821-11.157" transform="translate(-188.996 -240.36)" fill="none" stroke="#33335f" stroke-width="0.799"/>
              </g>
            </g>
          </g>
          <g id="Group_393" data-name="Group 393">
            <g id="Group_389" data-name="Group 389" transform="translate(78.061)">
              <g id="Group_388" data-name="Group 388">
                <g id="Group_386" data-name="Group 386" transform="translate(81.239 149.911)">
                  <path id="Path_887" data-name="Path 887" d="M305.781,189.023l9.655-16.83s3.286-3.984,5.8.227c0,0,2.946-1.4,8.611,6.854,4.365,6.364,4.105,7.951-5.783,24.542Z" transform="translate(-298.146 -170.488)" fill="#e79fa4"/>
                  <path id="Path_888" data-name="Path 888" d="M308.443,182.561l-7.635,13.055s18.64,14.627,19.091,14.025,6.827-12.287,6.827-12.287Z" transform="translate(-300.808 -164.026)" fill="#e79fa4"/>
                </g>
                <g id="Group_387" data-name="Group 387">
                  <path id="Path_889" data-name="Path 889" d="M311.435,204.823l-3.9-10.557a36.377,36.377,0,0,1-2.556-15.049,38.259,38.259,0,0,1,2.992-12.655,62.539,62.539,0,0,1,5.92-10.738q3.4-4.919,6.39-9.467a39.461,39.461,0,0,0,4.435-8.745,12.294,12.294,0,0,0-.138-8.5,7.627,7.627,0,0,0-4.6-4.634q-3.374-1.306-10.018,1.144a64.976,64.976,0,0,0-10.942,5.26,103.1,103.1,0,0,0-9.936,6.778q-4.666,3.611-8.7,7.431t-7.414,7.291l-25.082-36.056q4.339-4.484,9.913-9.545a144.384,144.384,0,0,1,12.5-10.058,166.35,166.35,0,0,1,15.379-9.786,125.455,125.455,0,0,1,18.422-8.466,86.109,86.109,0,0,1,24.844-5.506,57.847,57.847,0,0,1,21.207,2.389,42.909,42.909,0,0,1,16.219,9.339,38.9,38.9,0,0,1,10.081,15.27q4.258,11.538,3.6,19.994a45.666,45.666,0,0,1-3.7,15.25,60.259,60.259,0,0,1-7.578,12.569,105.16,105.16,0,0,0-7.936,11.593,38.779,38.779,0,0,0-4.675,12.611q-1.269,6.8,1.981,15.6Zm3.391,9.187,46.527-17.174,11.834,32.06-46.527,17.174Z" transform="translate(-247.894 -72.845)" fill="#d95077"/>
                </g>
              </g>
              <path id="Path_890" data-name="Path 890" d="M260.218,215.753l42.429,12.207,24.9-42.279,23.785,17.7L320.341,256.8a15.037,15.037,0,0,1-17.358,6.847l-43.708-16.231Z" transform="translate(-241.802 -12.445)" fill="#e1a454"/>
            </g>
            <g id="Group_390" data-name="Group 390" transform="translate(37.423 200.667)">
              <path id="Path_891" data-name="Path 891" d="M251.755,205.45l-23.014,5.616a9.583,9.583,0,0,0-6.617,12.89l22.3,55.347h53.867l-13.77-68.641a5.9,5.9,0,0,0-4.982-4.686l-17.691-2.429Z" transform="translate(-221.425 -203.548)" fill="#e1a454"/>
              <line id="Line_1" data-name="Line 1" x1="3.866" y1="19.272" transform="translate(65.652 19.87)" fill="none" stroke="#d49449" stroke-width="0.799"/>
            </g>
            <g id="Group_392" data-name="Group 392" transform="translate(0 210.211)">
              <g id="Group_391" data-name="Group 391" transform="translate(16.844 78.041)">
                <path id="Path_892" data-name="Path 892" d="M234.366,269.88,241,288.113s.926,5.08-3.915,4.287c0,0-.828,3.157-10.792,2.16-7.678-.769-8.724-1.991-15.024-20.249Z" transform="translate(-206.283 -255.625)" fill="#e79fa4"/>
                <path id="Path_893" data-name="Path 893" d="M236.1,274.85,231.053,260.6s-23.2,4.81-23.031,5.542,4.985,13.144,4.985,13.144Z" transform="translate(-208.021 -260.595)" fill="#e79fa4"/>
              </g>
              <path id="Path_894" data-name="Path 894" d="M263.935,228.92l-32.3,32.091,12.9,39.853-28.685,7.488-17.777-51.571a15.037,15.037,0,0,1,5.516-17.826l34.248-29.191Z" transform="translate(-197.05 -209.764)" fill="#e1a454"/>
              <line id="Line_2" data-name="Line 2" y1="12.022" x2="12.101" transform="translate(48.728 25.172)" fill="none" stroke="#d49449" stroke-width="0.799"/>
            </g>
          </g>
          <g id="Group_395" data-name="Group 395" transform="translate(50.042 143.922)">
            <g id="Group_394" data-name="Group 394">
              <path id="Path_895" data-name="Path 895" d="M238.291,214.233l16.03.349-1.155-24.171-13.7-.491Z" transform="translate(-225.016 -154.097)" fill="#e79fa4"/>
              <path id="Path_896" data-name="Path 896" d="M238.291,207.616s10.613,10.815,18.6,5.716c6.857-4.376-5.877-11.05-5.877-11.05Z" transform="translate(-225.016 -147.48)" fill="#e79fa4"/>
              <path id="Path_897" data-name="Path 897" d="M253.337,204.68c-.479.035-13.3.008-14.1-13.844l13.4.022Z" transform="translate(-224.509 -153.607)" fill="#da8f98"/>
              <circle id="Ellipse_38" data-name="Ellipse 38" cx="15.696" cy="15.696" r="15.696" transform="matrix(0.958, -0.286, 0.286, 0.958, 2.886, 17.758)" fill="#e79fa4"/>
              <path id="Path_898" data-name="Path 898" d="M261.521,177.691s-3.626-5.869-21-2.5c0,0-13.064,5.2-10.543,17.522s13.861,15.692,13.861,15.692l.533-4a17.726,17.726,0,0,0-.688-7.736l-4-12.493,6.685-6.844,8.925-1.176,3.272,1.253Z" transform="translate(-229.641 -162.54)" fill="#332c30"/>
              <path id="Path_899" data-name="Path 899" d="M232.736,185.316a5.392,5.392,0,1,0,5.582-5.2A5.393,5.393,0,0,0,232.736,185.316Z" transform="translate(-227.991 -159.345)" fill="#e79fa4"/>
              <path id="Path_900" data-name="Path 900" d="M242.92,184.014s5.593-3.295,10.44-1.554,19.188,2.042,17.762-8.619c-1.287-9.625-13.769-8.739-22.325-2.767-10.2,7.118-19.578,7.486-19.137,22.213l10.6-10.376Z" transform="translate(-229.644 -166.587)" fill="#332c30"/>
            </g>
            <path id="Path_901" data-name="Path 901" d="M241.154,176.795s1.693,13.409,4.29,14.275,10.147-5.923,18.853-2.456c0,0,8.08,10.481-1.749,17.561-8.143,5.863-23.748.227-21.89-9.229l-1.176-2.966L236.066,178.2Z" transform="translate(-226.207 -161.123)" fill="#332c30"/>
          </g>
        </g>
      </g>
    </g>
    <g id="Group_403" data-name="Group 403" transform="translate(34.376 45.228)">
      <g id="Group_399" data-name="Group 399" transform="translate(149.177)">
        <path id="Path_902" data-name="Path 902" d="M193.51,169.229l-3.95-9.751a34.038,34.038,0,0,1-2.83-13.99,35.84,35.84,0,0,1,2.427-11.914,58.41,58.41,0,0,1,5.218-10.208q3.033-4.7,5.694-9.034a36.931,36.931,0,0,0,3.89-8.3,11.492,11.492,0,0,0-.379-7.939,7.123,7.123,0,0,0-4.431-4.2q-3.192-1.122-9.33,1.362a60.691,60.691,0,0,0-10.07,5.235,96.237,96.237,0,0,0-9.089,6.625q-4.254,3.512-7.91,7.2t-6.717,7.03L131.541,88.384q3.927-4.318,8.988-9.21a134.812,134.812,0,0,1,11.389-9.763A155.377,155.377,0,0,1,166,59.815a117.392,117.392,0,0,1,16.968-8.45,80.556,80.556,0,0,1,23.057-5.872,54.114,54.114,0,0,1,19.888,1.614,40.1,40.1,0,0,1,15.43,8.254,36.361,36.361,0,0,1,9.867,13.976q4.318,10.658,3.952,18.58a42.621,42.621,0,0,1-3.012,14.358,56.335,56.335,0,0,1-6.714,11.969,98.277,98.277,0,0,0-7.078,11.066,36.231,36.231,0,0,0-4,11.92q-.988,6.393,2.306,14.518Zm3.438,8.487,42.979-17.41,12,29.616-42.979,17.41Z" transform="translate(-131.541 -45.228)" fill="#ccccf0"/>
      </g>
      <g id="Group_400" data-name="Group 400" transform="translate(514.166 56.71)">
        <path id="Path_903" data-name="Path 903" d="M383.745,153.757l3.7-6.649a24.606,24.606,0,0,1,6.6-7.939,25.9,25.9,0,0,1,7.816-4.036,42.22,42.22,0,0,1,8.119-1.689q4.023-.421,7.675-.889a26.769,26.769,0,0,0,6.442-1.574,8.315,8.315,0,0,0,4.3-3.815,5.157,5.157,0,0,0,.355-4.4q-.815-2.308-5-4.64a43.931,43.931,0,0,0-7.518-3.3,70.068,70.068,0,0,0-7.856-2.117q-3.908-.8-7.644-1.193t-7.009-.6L401.2,82.165q4.214.253,9.266.887a97.422,97.422,0,0,1,10.669,1.99,112.043,112.043,0,0,1,11.8,3.586,84.766,84.766,0,0,1,12.459,5.73,58.265,58.265,0,0,1,13.767,10.331,39.162,39.162,0,0,1,8.113,11.938,29.024,29.024,0,0,1,2.346,12.44,26.279,26.279,0,0,1-3.4,11.9q-4.046,7.268-8.677,10.655a30.851,30.851,0,0,1-9.459,4.815,40.781,40.781,0,0,1-9.791,1.646,71.3,71.3,0,0,0-9.447,1.03,26.209,26.209,0,0,0-8.532,3.154,19.984,19.984,0,0,0-7.135,7.884Zm-3.224,5.787,29.306,16.323-11.248,20.2-29.306-16.325Z" transform="translate(-369.273 -82.165)" fill="#ccccf0"/>
      </g>
      <g id="Group_401" data-name="Group 401" transform="translate(0 305.889)">
        <path id="Path_904" data-name="Path 904" d="M69.9,317.882l-2.191-5.859a20.211,20.211,0,0,1-1.455-8.361,21.293,21.293,0,0,1,1.634-7.041,34.71,34.71,0,0,1,3.266-5.983q1.879-2.743,3.53-5.277a21.955,21.955,0,0,0,2.446-4.873,6.838,6.838,0,0,0-.1-4.724,4.244,4.244,0,0,0-2.567-2.565q-1.879-.719-5.567.66a36.04,36.04,0,0,0-6.069,2.949,57.478,57.478,0,0,0-5.509,3.791q-2.584,2.02-4.816,4.151t-4.105,4.07L34.376,268.836q2.4-2.5,5.489-5.329a80.23,80.23,0,0,1,6.926-5.619,92,92,0,0,1,8.527-5.476,69.751,69.751,0,0,1,10.22-4.75,47.889,47.889,0,0,1,13.8-3.118,32.147,32.147,0,0,1,11.794,1.279,23.816,23.816,0,0,1,9.038,5.154,21.622,21.622,0,0,1,5.639,8.464,26.809,26.809,0,0,1,2.05,11.106,25.365,25.365,0,0,1-2.02,8.486,33.563,33.563,0,0,1-4.184,7.006,58.512,58.512,0,0,0-4.385,6.464A21.57,21.57,0,0,0,94.7,299.52a16.423,16.423,0,0,0,1.138,8.665Zm1.907,5.1,25.824-9.655,6.654,17.794-25.824,9.657Z" transform="translate(-34.376 -244.466)" fill="#ccccf0"/>
      </g>
      <g id="Group_402" data-name="Group 402" transform="translate(592.806 349.794)">
        <path id="Path_905" data-name="Path 905" d="M433.041,325.962l3.212-4.782a18.607,18.607,0,0,1,5.476-5.573,19.6,19.6,0,0,1,6.147-2.553,31.936,31.936,0,0,1,6.23-.763q3.061-.064,5.843-.189a20.206,20.206,0,0,0,4.959-.781,6.291,6.291,0,0,0,3.485-2.607,3.905,3.905,0,0,0,.543-3.3q-.47-1.792-3.479-3.814A33.263,33.263,0,0,0,460,298.641a52.872,52.872,0,0,0-5.791-2.091,58.534,58.534,0,0,0-5.69-1.379q-2.8-.53-5.249-.891l7.439-21.218q3.162.456,6.932,1.251a74.006,74.006,0,0,1,7.922,2.171,85.426,85.426,0,0,1,8.671,3.445,64.317,64.317,0,0,1,9.037,5.1A44.078,44.078,0,0,1,493,293.691a29.612,29.612,0,0,1,5.369,9.516,21.98,21.98,0,0,1,.989,9.528,19.931,19.931,0,0,1-3.313,8.762,24.7,24.7,0,0,1-7.214,7.491,23.336,23.336,0,0,1-7.437,3.037,30.855,30.855,0,0,1-7.486.626,53.881,53.881,0,0,0-7.19.183,19.855,19.855,0,0,0-6.634,1.842,15.143,15.143,0,0,0-5.876,5.5Zm-2.794,4.162,21.077,14.152L441.572,358.8l-21.077-14.152Z" transform="translate(-420.495 -273.063)" fill="#ccccf0"/>
      </g>
    </g>
  </g>
</svg>
