<svg xmlns="http://www.w3.org/2000/svg" width="825.453" height="453.289" viewBox="0 0 825.453 453.289">
  <g id="Group_241" data-name="Group 241" transform="translate(-147.087 -254.588)">
    <path id="Path_548" data-name="Path 548" d="M195.237,706.692H924.564c70.907-138.773,48.957-292.934,24.181-336.325C906.855,297,872.684,261.509,784.7,283.276c-49.234,12.18-115.074,50.178-145.923,7.076-36.245-50.641-123.569-44.635-198.933,0-80.919,47.925-170.339-60.023-252.463,36.833-89.144,105.135.782,188.027-21.828,236.839C120.706,660.85,193.359,705.691,195.237,706.692Z" transform="translate(0)" fill="#eafcfc"/>
    <path id="Path_549" data-name="Path 549" d="M168.535,1844.257H983.041a1.185,1.185,0,0,0,1.185-1.185h0a1.185,1.185,0,0,0-1.185-1.185H168.535a1.185,1.185,0,0,0-1.185,1.185h0A1.185,1.185,0,0,0,168.535,1844.257Z" transform="translate(-14.507 -1136.38)" fill="#355389"/>
    <g id="Group_240" data-name="Group 240" transform="translate(37.388 324.24)">
      <path id="Path_550" data-name="Path 550" d="M2055.072,1025.056h0c-.949,0-21.782-.014-22.726-.041-52.344-1.5-74.429-44.407-74.429-97.114V833.409a25.176,25.176,0,0,1,25.177-25.176h143.957a25.176,25.176,0,0,1,25.176,25.176V927.9A97.155,97.155,0,0,1,2055.072,1025.056Z" transform="translate(-1534.721 -719.776)" fill="#2b4773"/>
      <path id="Path_551" data-name="Path 551" d="M2070.73,496.851h0a70.746,70.746,0,0,0-70.746,70.746V650.57h141.491V567.6A70.746,70.746,0,0,0,2070.73,496.851ZM2121.6,630.4H2019.862V567.888a50.867,50.867,0,1,1,101.734,0Z" transform="translate(-1564.837 -496.851)" fill="#afc2e3"/>
      <path id="Rectangle_103" data-name="Rectangle 103" d="M25.176,0H169.134A25.176,25.176,0,0,1,194.31,25.176v94.492a97.155,97.155,0,0,1-97.155,97.155h0A97.155,97.155,0,0,1,0,119.668V25.176A25.176,25.176,0,0,1,25.176,0Z" transform="translate(400.47 88.457)" fill="#36578f"/>
      <path id="Path_553" data-name="Path 553" d="M874.625,794.224c.084-.116,1.49-1.136,1.49-1.136l6.215,8.341-1.45,1.4Z" transform="translate(-759.17 -708.933)" fill="#f4f4f4"/>
      <g id="Group_239" data-name="Group 239" transform="translate(514.243 42.499)">
        <g id="Group_238" data-name="Group 238">
          <path id="Path_595" data-name="Path 595" d="M2774.1,1005.269c-.349,1.2-11.985,14.984-11.985,14.984l-5.141-11.578s.838-3.635,2.292-8.832C2764.228,1001.138,2770.438,1001.962,2774.1,1005.269Z" transform="translate(-2621.023 -899.453)" fill="#001333"/>
          <path id="Path_596" data-name="Path 596" d="M2708.293,881.319s28.672,12.342,29.6,12.107c.6-.152,11.761-18.831,11.881-36.4.055-8.114-8.374-17.872-17.778-15.942-4.734.972-4.661,2.288-11.666,12.462S2708.293,881.319,2708.293,881.319Z" transform="translate(-2586.174 -785.619)" fill="#001333"/>
          <path id="Path_597" data-name="Path 597" d="M2579.721,1770.947s.68,11.256.685,11.279a61.589,61.589,0,0,1,1.235,6.259c0,4.88-23.185-4.143-17.989-6.306.471-.2,2.934-1.677,3.089-3.338.239-2.559.843-7.737.843-7.737Z" transform="translate(-2482.079 -1451.502)" fill="#f7a491"/>
          <path id="Path_598" data-name="Path 598" d="M2517.289,1809.818s5.443,1.493,8.231,1.867,6.464-2.77,8.436-1.921c2.17.934,2.085,9.345,2.085,9.345s-29.191,2.394-37.4-.082C2495.39,1818.045,2506.161,1813.3,2517.289,1809.818Z" transform="translate(-2435.659 -1479.187)" fill="#001333"/>
          <path id="Path_599" data-name="Path 599" d="M2746.679,1770.947s.68,11.256.684,11.279a61.527,61.527,0,0,1,1.235,6.259c0,4.88-23.185-4.143-17.989-6.306.471-.2,3.666-2.782,3.82-4.443.238-2.559.112-6.632.112-6.632Z" transform="translate(-2601.607 -1451.502)" fill="#f7a491"/>
          <path id="Path_600" data-name="Path 600" d="M2684.282,1809.818s5.443,1.493,8.231,1.867,6.464-2.77,8.436-1.921c2.171.934,2.257,9.345,2.257,9.345s-29.324,2.791-37.571-.082C2662.433,1817.91,2673.154,1813.3,2684.282,1809.818Z" transform="translate(-2555.223 -1479.187)" fill="#001333"/>
          <g id="Group_237" data-name="Group 237" transform="translate(125.732)">
            <path id="Path_601" data-name="Path 601" d="M2741.471,774.61l2.628,16.618s-10.016,8.039-15.855,6.343c-4.9-1.423-1.539-7.825-1.539-7.825s2.609-8.871,1.809-13.521S2741.471,774.61,2741.471,774.61Z" transform="translate(-2724.284 -737.507)" fill="#f7a491"/>
            <path id="Path_602" data-name="Path 602" d="M2746.3,779.637a40.918,40.918,0,0,1-11.337,3.193,22.043,22.043,0,0,0,.267-6.6c-.37-2.146,2.363-2.654,5.411-2.58,3.99.342,7.546.965,7.546.965l.506,3.193A8.249,8.249,0,0,1,2746.3,779.637Z" transform="translate(-2731.002 -737.51)" fill="#fe875e"/>
            <path id="Path_603" data-name="Path 603" d="M2750.841,687.078c.414,0-3.959,18.565-10.727,21.759s-16.859,1.529-18.753-3.471c-2.094-5.53,5.546-24.47,15.064-26.875S2750.841,687.078,2750.841,687.078Z" transform="translate(-2721.013 -669.143)" fill="#f7a491"/>
            <path id="Path_604" data-name="Path 604" d="M2735.429,750.615l-6.794-2.778a3.476,3.476,0,0,0,1.905,4.335C2734.135,753.782,2735.429,750.615,2735.429,750.615Z" transform="translate(-2726.342 -719.036)" fill="#fff"/>
            <path id="Path_605" data-name="Path 605" d="M2771.053,647.332a21.3,21.3,0,0,1,8.721,9.631c2.537,1.2,5.607,3.806,7.081,10.819,1.812,8.623-4.629,15.271-11.459,17.27s-7.884,6.517-7.884,6.517l-.775-4.861s1.52-4.233,3.8-6.351-1.082-5.206-1.378-7.724c-.228-1.939,1.2-5.7.891-8.886,0,0-3.795-5.749-7.536-7.169C2756.14,654.158,2764.117,643.334,2771.053,647.332Z" transform="translate(-2749.056 -646.455)" fill="#13375b"/>
            <path id="Path_606" data-name="Path 606" d="M2787.1,742.155c-.884,2.144-.523,4.273.808,4.755s3.126-.866,4.01-3.01.523-4.272-.807-4.754S2787.985,740.012,2787.1,742.155Z" transform="translate(-2767.98 -712.744)" fill="#f7a491"/>
          </g>
          <path id="Path_607" data-name="Path 607" d="M2693.937,1132.749s3.929,18.988,2.328,33.386-1.727,65.543-1.727,65.543l6.111,81.832-14.5.316s-17.192-81.792-16.872-79.693-5.765-57.59-5.765-57.59l20.5-45.593Z" transform="translate(-2554.115 -993.314)" fill="#010c1c"/>
          <path id="Path_608" data-name="Path 608" d="M2612.615,1118.243s2.562,17.1-.64,24.6-27.468,81.075-27.789,87.074-8.39,72.306-8.39,72.306l-16.859-.474-3.647-73.72,7.637-92.655,7.415-23.426Z" transform="translate(-2476.636 -979.708)" fill="#001333"/>
          <path id="Path_609" data-name="Path 609" d="M2746.932,822.007s-4.157,2.727-8.034,2.411-9.36-3.892-9.36-3.892l.762-2.581s10.031-1.461,10.283-1.3S2746.932,822.007,2746.932,822.007Z" transform="translate(-2601.384 -768.286)" fill="#f7a491"/>
          <path id="Path_610" data-name="Path 610" d="M2586.343,888.961c2.214-12.036,18.254-49.492,19.535-56.391.623-3.355,9.275-3.429,17.517-2.991,8.7.463,17.352,1.563,17.352,1.563s7.706,1.265,11.1,4.441,4.291,11.958-.583,28.631c-3.847,13.161-8.617,20.388-10.978,29.974-.478,3.216-.888,6.388-1.43,10.094-.868,14.334.01,33.271.01,33.271s-41.953,8.7-57.645-4.5C2581.219,933.054,2584.075,901.293,2586.343,888.961Z" transform="translate(-2495.199 -777.422)" fill="#010c1c"/>
          <path id="Path_611" data-name="Path 611" d="M2310,1043.364c.193,0,1.914-9.392-1.774-8.131-.959-.2-1.868-.406-2.617-.595a23.015,23.015,0,0,1-4.132-1.828,26.313,26.313,0,0,0-5.349-2.1c-.926-.106-2.842-.263-4-.342s-2.5-.22-3.12-.189a5.937,5.937,0,0,1-1.73-.479.988.988,0,0,0-1.248,1.354,4.3,4.3,0,0,0,2.193,1.526c1.967.824,5.361.932,5.223,1.226s-5.623,2.032-6.237,2.271-6.98,2.295-8.082,3.1-.783,1.628-.005,1.747c.671.1,9.674-2.086,9.674-2.086s1.15-.277.857.285-8.462,2.565-9.625,3.091-1.691,1.425-.62,1.974c1.3.667,9.893-2.009,9.893-2.009s1.082-.317,1.046.17-7.017,2.075-7.576,2.528a.941.941,0,0,0,.434,1.711c1.273.352,8.92-2.1,8.92-2.1s.633-.022.468.3-6.02,2.1-6.488,2.791a.653.653,0,0,0,.119.94c.921,1.01,7.328-1.307,10.062-2.142A115.379,115.379,0,0,1,2310,1043.364Z" transform="translate(-2278.417 -920.775)" fill="#f8a492"/>
          <path id="Path_612" data-name="Path 612" d="M2458.27,831.163c8.471-3.569,22.016,2.019,13.081,20.194-3.938,8.011-34.7,34.553-40.873,37.824s-55.79,14.256-55.79,14.256c-.145-.248-.6-12.506-.6-12.506l45.972-17.417S2446.718,836.031,2458.27,831.163Z" transform="translate(-2346.911 -777.962)" fill="#001333"/>
        </g>
        <path id="Path_613" data-name="Path 613" d="M2728.984,822.564l.643-2.719s16.493-.52,16.571-.027,1.329,4.511,1.329,4.511Z" transform="translate(-2600.987 -770.417)" fill="#f4f4f4"/>
      </g>
      <path id="Path_617" data-name="Path 617" d="M2197.619,1062.306v-8.66a7.576,7.576,0,1,0-9.142.334v10.488a.85.85,0,0,0,.731.932c4.653.079,4.631,23.539,0,23.461a.85.85,0,0,0-.731.932v36.671h9.142v-7.774a2.275,2.275,0,0,1-1.957-2.493v-8.223a2.274,2.274,0,0,1,1.957-2.493v-13.525a3.821,3.821,0,0,1,.191-1.2,40.588,40.588,0,0,0,2.237-12.771v-1.7a40.588,40.588,0,0,0-2.237-12.771A3.822,3.822,0,0,1,2197.619,1062.306Z" transform="translate(-1697.474 -885.849)" fill="#001333"/>
    </g>
  </g>
</svg>
