<svg xmlns="http://www.w3.org/2000/svg" width="188.617" height="149.888" viewBox="0 0 188.617 149.888">
  <g id="Group_198" data-name="Group 198" transform="translate(-241.959 -120.591)">
    <g id="Group_197" data-name="Group 197" transform="translate(241.959 120.591)">
      <g id="Group_192" data-name="Group 192" transform="translate(0 31.594)">
        <g id="Group_175" data-name="Group 175" transform="translate(0 87.124)">
          <g id="Group_168" data-name="Group 168" transform="translate(19.293 27.023)">
            <path id="Path_337" data-name="Path 337" d="M255.834,192.839c-2.38,0-4.311.928-4.311,2.074s1.93,2.074,4.311,2.074,4.313-.93,4.313-2.074S258.216,192.839,255.834,192.839Z" transform="translate(-251.523 -192.839)" fill="#212121"/>
            <path id="Path_338" data-name="Path 338" d="M314.164,192.839c-2.382,0-4.313.928-4.313,2.074s1.93,2.074,4.313,2.074,4.311-.93,4.311-2.074S316.544,192.839,314.164,192.839Z" transform="translate(-192.191 -192.839)" fill="#212121"/>
          </g>
          <g id="Group_169" data-name="Group 169" transform="translate(0)">
            <path id="Path_339" data-name="Path 339" d="M406.778,200.573c-5.043-8.839-8.148-12.711-14.849-21.13H256.693a111.35,111.35,0,0,0-14.661,20.9s-.4,3.169.672,3.863,11.819,5,14.35,5H391.566c2.532,0,13.38-4.246,14.466-4.918S406.778,200.573,406.778,200.573Z" transform="translate(-241.959 -179.443)" fill="#3d3d3d"/>
          </g>
          <g id="Group_171" data-name="Group 171" transform="translate(0)">
            <g id="Group_170" data-name="Group 170">
              <path id="Path_340" data-name="Path 340" d="M406.778,200.573c-5.043-8.839-8.148-12.711-14.849-21.13H256.693a111.35,111.35,0,0,0-14.661,20.9s-.4,3.169.672,3.863,11.819,5,14.35,5H391.566c2.532,0,13.38-4.246,14.466-4.918S406.778,200.573,406.778,200.573Z" transform="translate(-241.959 -179.443)" fill="#c5c5cc"/>
            </g>
          </g>
          <g id="Group_172" data-name="Group 172" transform="translate(79.967)" style="mix-blend-mode: screen;isolation: isolate">
            <path id="Path_341" data-name="Path 341" d="M318.8,179.443c-7.04,7.03-15.654,12.721-23.386,18.813q-6.923,5.456-13.81,10.949h12.18a244.045,244.045,0,0,1,19.289-18.637c4.295-3.813,8.874-7.423,13.38-11.125Z" transform="translate(-281.601 -179.443)" fill="#8b8b8b"/>
            <path id="Path_342" data-name="Path 342" d="M346.728,199.837c-4.74-8.313-7.77-12.232-13.687-19.67-9.826,10.26-21.362,18.869-32.05,28.3h30.525c2.532,0,13.38-4.246,14.466-4.918S346.728,199.837,346.728,199.837Z" transform="translate(-261.876 -178.707)" fill="#8b8b8b"/>
          </g>
          <g id="Group_173" data-name="Group 173" transform="translate(14.071 3.554)">
            <path id="Path_343" data-name="Path 343" d="M312.249,183.87h5.309c-.884-1.154-1.662-2.126-2.15-2.665h-4.593Q311.529,182.539,312.249,183.87Z" transform="translate(-185.987 -181.205)" fill="#212121"/>
            <path id="Path_344" data-name="Path 344" d="M308.035,183.87h6.159c-.47-.89-.938-1.779-1.414-2.665H307Q307.5,182.548,308.035,183.87Z" transform="translate(-189.868 -181.205)" fill="#212121"/>
            <path id="Path_345" data-name="Path 345" d="M304.456,183.87h5.217c-.353-.882-.7-1.769-1.025-2.665h-5C303.913,182.095,304.172,182.988,304.456,183.87Z" transform="translate(-193.281 -181.205)" fill="#212121"/>
            <path id="Path_346" data-name="Path 346" d="M301.062,183.87h5c-.282-.882-.537-1.775-.8-2.665h-4.908C300.554,182.1,300.8,182.984,301.062,183.87Z" transform="translate(-196.626 -181.205)" fill="#212121"/>
            <path id="Path_347" data-name="Path 347" d="M297.683,183.87H302.7c-.274-.88-.526-1.767-.734-2.665h-4.773C297.369,182.091,297.526,182.98,297.683,183.87Z" transform="translate(-199.848 -181.205)" fill="#212121"/>
            <path id="Path_348" data-name="Path 348" d="M294.1,183.87h5.426c-.153-.892-.321-1.783-.516-2.665h-5.271Q293.941,182.533,294.1,183.87Z" transform="translate(-203.361 -181.205)" fill="#212121"/>
            <path id="Path_349" data-name="Path 349" d="M289.916,183.87h6.526c-.107-.892-.23-1.779-.377-2.665h-6.249C289.851,182.093,289.89,182.98,289.916,183.87Z" transform="translate(-207.349 -181.205)" fill="#212121"/>
            <path id="Path_350" data-name="Path 350" d="M286.343,183.87h5.463c-.026-.89-.065-1.777-.1-2.665h-5.253C286.428,182.095,286.387,182.982,286.343,183.87Z" transform="translate(-210.881 -181.205)" fill="#212121"/>
            <path id="Path_351" data-name="Path 351" d="M282.836,181.205q-.166,1.328-.29,2.665h6.017c.044-.888.085-1.775.111-2.665Z" transform="translate(-214.744 -181.205)" fill="#212121"/>
            <path id="Path_352" data-name="Path 352" d="M272.752,181.205h-6.374l-.678,2.665h6.627C272.476,182.982,272.589,182.089,272.752,181.205Z" transform="translate(-231.879 -181.205)" fill="#212121"/>
            <path id="Path_353" data-name="Path 353" d="M281.031,183.555c.034-.787.06-1.573.145-2.35h-6.7c-.163.877-.27,1.769-.359,2.665h6.887C281.013,183.767,281.025,183.656,281.031,183.555Z" transform="translate(-223.312 -181.205)" fill="#212121"/>
            <path id="Path_354" data-name="Path 354" d="M278.551,181.205c-.121.877-.167,1.771-.212,2.665H285.2c.079-.89.174-1.779.278-2.665Z" transform="translate(-219.023 -181.205)" fill="#212121"/>
            <path id="Path_355" data-name="Path 355" d="M277.166,181.205h-6.923c-.171.882-.272,1.777-.405,2.665h7.012C276.936,182.978,277.024,182.085,277.166,181.205Z" transform="translate(-227.671 -181.205)" fill="#212121"/>
            <path id="Path_356" data-name="Path 356" d="M268.444,181.205H262.7c-.218.9-.452,1.783-.708,2.665h5.773Z" transform="translate(-235.65 -181.205)" fill="#212121"/>
            <path id="Path_357" data-name="Path 357" d="M264.753,181.205h-5.584q-.4,1.346-.863,2.665h5.721C264.287,182.988,264.527,182.1,264.753,181.205Z" transform="translate(-239.401 -181.205)" fill="#212121"/>
            <path id="Path_358" data-name="Path 358" d="M260.742,181.205H256.02q-.448,1.331-.956,2.665h4.793C260.172,182.99,260.464,182.1,260.742,181.205Z" transform="translate(-242.698 -181.205)" fill="#212121"/>
            <path id="Path_359" data-name="Path 359" d="M258.326,181.205h-5.41a25.4,25.4,0,0,0-1.832,2.665h6.257Q257.868,182.535,258.326,181.205Z" transform="translate(-246.747 -181.205)" fill="#212121"/>
            <path id="Path_360" data-name="Path 360" d="M264.377,183.04h-5.771c-.307.843-.627,1.682-.954,2.517h5.927Q263.987,184.3,264.377,183.04Z" transform="translate(-240.066 -179.338)" fill="#212121"/>
            <path id="Path_361" data-name="Path 361" d="M301.615,185.557h5.1q-.418-1.256-.829-2.517h-5.029C301.119,183.883,301.38,184.722,301.615,185.557Z" transform="translate(-196.113 -179.338)" fill="#212121"/>
            <path id="Path_362" data-name="Path 362" d="M298.225,185.557H303.4c-.065-.24-.113-.484-.182-.722-.176-.6-.367-1.2-.555-1.8h-5.13A16.954,16.954,0,0,0,298.225,185.557Z" transform="translate(-199.496 -179.338)" fill="#212121"/>
            <path id="Path_363" data-name="Path 363" d="M289.953,185.557h6.806q-.121-1.259-.258-2.517h-6.62C289.9,183.879,289.93,184.718,289.953,185.557Z" transform="translate(-207.283 -179.338)" fill="#212121"/>
            <path id="Path_364" data-name="Path 364" d="M286.251,185.557H292c-.024-.839-.05-1.678-.073-2.517h-5.547Q286.316,184.3,286.251,185.557Z" transform="translate(-210.974 -179.338)" fill="#212121"/>
            <path id="Path_365" data-name="Path 365" d="M272.387,183.859c.081-.27.129-.545.19-.819H265.9q-.324,1.262-.662,2.517h6.647C272.038,185,272.214,184.434,272.387,183.859Z" transform="translate(-232.347 -179.338)" fill="#212121"/>
            <path id="Path_366" data-name="Path 366" d="M277.222,183.04h-7.115c-.052.234-.089.47-.159.7-.178.591-.391,1.2-.579,1.82h7.482C277.02,184.728,277.131,183.887,277.222,183.04Z" transform="translate(-228.147 -179.338)" fill="#212121"/>
            <path id="Path_367" data-name="Path 367" d="M281.154,183.04h-6.917c-.085.845-.182,1.686-.329,2.517h6.945C280.982,184.712,281.085,183.869,281.154,183.04Z" transform="translate(-223.53 -179.338)" fill="#212121"/>
            <path id="Path_368" data-name="Path 368" d="M278.45,183.04c-.02.238-.028.478-.058.712-.073.593-.155,1.2-.238,1.805h6.913q.115-1.259.222-2.517Z" transform="translate(-219.212 -179.338)" fill="#212121"/>
            <path id="Path_369" data-name="Path 369" d="M282.608,183.04c-.075.839-.145,1.678-.22,2.517h6.151c.04-.839.087-1.678.131-2.517Z" transform="translate(-214.904 -179.338)" fill="#212121"/>
            <path id="Path_370" data-name="Path 370" d="M294.227,185.557h5.894a19.92,19.92,0,0,1-.641-2.517h-5.507C294.062,183.879,294.145,184.718,294.227,185.557Z" transform="translate(-203.119 -179.338)" fill="#212121"/>
            <path id="Path_371" data-name="Path 371" d="M305.047,185.557h5.511q-.53-1.256-1.045-2.517h-5.3C304.492,183.879,304.767,184.72,305.047,185.557Z" transform="translate(-192.7 -179.338)" fill="#212121"/>
            <path id="Path_372" data-name="Path 372" d="M308.773,185.557h6.677c-.063-.1-.125-.2-.186-.3-.44-.724-.853-1.466-1.257-2.213h-6.286C308.071,183.881,308.422,184.718,308.773,185.557Z" transform="translate(-189.134 -179.338)" fill="#212121"/>
            <path id="Path_373" data-name="Path 373" d="M313.144,185.348c.042.069.085.139.127.21H319.2c-.613-.847-1.247-1.707-1.858-2.517H311.8C312.233,183.819,312.676,184.591,313.144,185.348Z" transform="translate(-184.982 -179.338)" fill="#212121"/>
            <path id="Path_374" data-name="Path 374" d="M268.047,183.04h-5.806q-.381,1.262-.791,2.517h5.937Q267.724,184.3,268.047,183.04Z" transform="translate(-236.201 -179.338)" fill="#212121"/>
            <path id="Path_375" data-name="Path 375" d="M260.2,183.04h-4.8c-.335.841-.688,1.68-1.051,2.517h4.89Q259.733,184.3,260.2,183.04Z" transform="translate(-243.425 -179.338)" fill="#212121"/>
            <path id="Path_376" data-name="Path 376" d="M257.933,183.04h-6.459c-.474.815-.936,1.67-1.378,2.517h6.764Q257.42,184.3,257.933,183.04Z" transform="translate(-247.752 -179.338)" fill="#212121"/>
            <path id="Path_377" data-name="Path 377" d="M315.132,189.022h6.58c-.414-.758-1.586-2.475-2.945-4.367h-6.013A44.633,44.633,0,0,1,315.132,189.022Z" transform="translate(-184.015 -177.696)" fill="#212121"/>
            <path id="Path_378" data-name="Path 378" d="M310.141,189.022h7.573c-.758-1.495-1.614-2.935-2.5-4.367H308.4C309,186.1,309.59,187.554,310.141,189.022Z" transform="translate(-188.448 -177.696)" fill="#212121"/>
            <path id="Path_379" data-name="Path 379" d="M306.167,189.022H312.1c-.561-1.469-1.164-2.919-1.771-4.367h-5.576C305.231,186.107,305.709,187.562,306.167,189.022Z" transform="translate(-192.158 -177.696)" fill="#212121"/>
            <path id="Path_380" data-name="Path 380" d="M301.449,185.1c.317,1.291.6,2.606.884,3.919H307.9q-.69-2.191-1.42-4.367h-5.152C301.37,184.8,301.413,184.954,301.449,185.1Z" transform="translate(-195.634 -177.696)" fill="#212121"/>
            <path id="Path_381" data-name="Path 381" d="M294.637,189.022h13.38c-.3-1.465-.611-2.925-.97-4.367H294.135C294.278,186.115,294.438,187.572,294.637,189.022Z" transform="translate(-202.955 -177.696)" fill="#212121"/>
            <path id="Path_382" data-name="Path 382" d="M290.093,189.022h7.169c-.19-1.45-.339-2.909-.48-4.367H289.93C289.972,186.113,290.021,187.57,290.093,189.022Z" transform="translate(-207.232 -177.696)" fill="#212121"/>
            <path id="Path_383" data-name="Path 383" d="M286.2,189.022h6.06c-.073-1.452-.121-2.909-.165-4.367h-5.81C286.215,186.109,286.177,187.566,286.2,189.022Z" transform="translate(-211.036 -177.696)" fill="#212121"/>
            <path id="Path_384" data-name="Path 384" d="M298.864,184.655H265.782q-.593,2.2-1.265,4.367h33.776C298.542,187.578,298.721,186.12,298.864,184.655Z" transform="translate(-233.083 -177.696)" fill="#212121"/>
            <path id="Path_385" data-name="Path 385" d="M282.62,184.655c-.135,1.462-.3,2.921-.531,4.367h6.637c-.02-1.456.018-2.913.085-4.367Z" transform="translate(-215.208 -177.696)" fill="#212121"/>
            <path id="Path_386" data-name="Path 386" d="M268.02,184.655h-5.981c-.474,1.454-.95,2.907-1.4,4.367h6.1C267.2,187.578,267.621,186.12,268.02,184.655Z" transform="translate(-237.029 -177.696)" fill="#212121"/>
            <path id="Path_387" data-name="Path 387" d="M264.359,184.655H258.38c-.577,1.456-1.16,2.909-1.731,4.367h6.314C263.409,187.56,263.883,186.107,264.359,184.655Z" transform="translate(-241.086 -177.696)" fill="#212121"/>
            <path id="Path_388" data-name="Path 388" d="M260.151,184.655h-4.924q-.98,2.206-2.06,4.367h5.255C258.989,187.562,259.572,186.109,260.151,184.655Z" transform="translate(-244.628 -177.696)" fill="#212121"/>
            <path id="Path_389" data-name="Path 389" d="M257.7,184.655H250.9a45.554,45.554,0,0,0-1.963,4.367H255.6C256.335,187.588,257.035,186.128,257.7,184.655Z" transform="translate(-248.934 -177.696)" fill="#212121"/>
          </g>
          <g id="Group_174" data-name="Group 174" transform="translate(0 21.1)">
            <path id="Path_390" data-name="Path 390" d="M406.762,189.9S369,192.346,324.4,192.346c-44.922,0-82.383-2.443-82.383-2.443-.067.694-.22,3.068.692,3.659,1.071.7,11.819,5,14.35,5H391.566c2.532,0,13.38-4.246,14.466-4.918s.746-3.714.746-3.714Z" transform="translate(-241.959 -189.903)" fill="#212121"/>
          </g>
          <path id="Path_391" data-name="Path 391" d="M242.009,189.9l-.048.529s39.053,2.582,82.43,2.582,82.42-2.388,82.42-2.388l-.05-.722S335.736,194.234,242.009,189.9Z" transform="translate(-241.957 -168.803)" fill="#939393"/>
        </g>
        <g id="Group_191" data-name="Group 191" transform="translate(4.977)">
          <path id="Path_392" data-name="Path 392" d="M321.435,139.638s-35.923-8.474-77.009,1.973l9.784,81.623h67.226Z" transform="translate(-244.426 -136.109)" fill="#6a6a6a"/>
          <path id="Path_393" data-name="Path 393" d="M282.6,139.781s36.431-9.124,77.01,1.973l-9.784,81.623H282.6Z" transform="translate(-205.593 -136.253)" fill="#6a6a6a"/>
          <g id="Group_190" data-name="Group 190" transform="translate(7.45 1.726)">
            <path id="Path_394" data-name="Path 394" d="M317.679,143.891c-4.323-1.943-34.539-14.391-69.56.254L258.294,218h59.385Z" transform="translate(-248.119 -137.109)" fill="#fbf9f4"/>
            <path id="Path_395" data-name="Path 395" d="M282.6,143.891c4.323-1.943,34.539-14.391,69.56.254L341.987,218H282.6Z" transform="translate(-213.042 -137.109)" fill="#fbf9f4"/>
            <rect id="Rectangle_60" data-name="Rectangle 60" width="1.668" height="25.992" transform="translate(68.725 12.417)" fill="#ece7e0"/>
            <rect id="Rectangle_61" data-name="Rectangle 61" width="1.668" height="25.992" transform="translate(68.725 51.923)" fill="#ece7e0"/>
            <g id="Group_182" data-name="Group 182" transform="translate(8.392 13.542)">
              <g id="Group_176" data-name="Group 176">
                <path id="Path_396" data-name="Path 396" d="M309.377,145.309a261.749,261.749,0,0,0-57.1.151c.335,2.171.5,3.256.837,5.424a254.674,254.674,0,0,1,56.248-.184Z" transform="translate(-252.279 -143.822)" fill="#ece7e0"/>
              </g>
              <g id="Group_177" data-name="Group 177" transform="translate(1.188 10.871)">
                <path id="Path_397" data-name="Path 397" d="M308.753,150.48a261.407,261.407,0,0,0-55.885.48c.335,2.166.5,3.25.835,5.414a254.19,254.19,0,0,1,55.038-.5Z" transform="translate(-252.868 -149.211)" fill="#ece7e0"/>
              </g>
              <g id="Group_178" data-name="Group 178" transform="translate(2.374 21.719)">
                <path id="Path_398" data-name="Path 398" d="M308.131,155.657a260.846,260.846,0,0,0-54.675.8c.335,2.162.5,3.244.835,5.4a253.737,253.737,0,0,1,53.828-.817Z" transform="translate(-253.456 -154.588)" fill="#ece7e0"/>
              </g>
              <g id="Group_179" data-name="Group 179" transform="translate(3.558 32.542)">
                <path id="Path_399" data-name="Path 399" d="M307.509,160.836a260.588,260.588,0,0,0-53.466,1.1c.335,2.158.5,3.238.833,5.394a253.349,253.349,0,0,1,52.621-1.118Z" transform="translate(-254.043 -159.954)" fill="#ece7e0"/>
              </g>
              <g id="Group_180" data-name="Group 180" transform="translate(4.742 43.337)">
                <path id="Path_400" data-name="Path 400" d="M306.888,166.019a260.207,260.207,0,0,0-52.258,1.4c.333,2.154.5,3.232.831,5.384a252.985,252.985,0,0,1,51.415-1.41Z" transform="translate(-254.63 -165.305)" fill="#ece7e0"/>
              </g>
              <g id="Group_181" data-name="Group 181" transform="translate(5.923 54.109)">
                <path id="Path_401" data-name="Path 401" d="M306.269,171.206a260.035,260.035,0,0,0-51.054,1.69c.331,2.15.5,3.224.829,5.372a252.809,252.809,0,0,1,50.211-1.69Z" transform="translate(-255.215 -170.645)" fill="#ece7e0"/>
              </g>
            </g>
            <g id="Group_189" data-name="Group 189" transform="translate(73.764 13.542)">
              <g id="Group_183" data-name="Group 183">
                <path id="Path_402" data-name="Path 402" d="M284.686,145.309a261.749,261.749,0,0,1,57.1.151c-.335,2.171-.5,3.256-.837,5.424A254.673,254.673,0,0,0,284.7,150.7Z" transform="translate(-284.686 -143.822)" fill="#ece7e0"/>
              </g>
              <g id="Group_184" data-name="Group 184" transform="translate(0.024 10.871)">
                <path id="Path_403" data-name="Path 403" d="M284.7,150.48a261.408,261.408,0,0,1,55.885.48c-.335,2.166-.5,3.25-.837,5.414a254.17,254.17,0,0,0-55.036-.5Z" transform="translate(-284.698 -149.211)" fill="#ece7e0"/>
              </g>
              <g id="Group_185" data-name="Group 185" transform="translate(0.048 21.719)">
                <path id="Path_404" data-name="Path 404" d="M284.71,155.657a260.825,260.825,0,0,1,54.673.8c-.333,2.162-.5,3.244-.833,5.4a253.737,253.737,0,0,0-53.828-.817Z" transform="translate(-284.71 -154.588)" fill="#ece7e0"/>
              </g>
              <g id="Group_186" data-name="Group 186" transform="translate(0.073 32.542)">
                <path id="Path_405" data-name="Path 405" d="M284.722,160.836a260.567,260.567,0,0,1,53.465,1.1c-.333,2.158-.5,3.238-.833,5.394a253.329,253.329,0,0,0-52.619-1.118Z" transform="translate(-284.722 -159.954)" fill="#ece7e0"/>
              </g>
              <g id="Group_187" data-name="Group 187" transform="translate(0.097 43.337)">
                <path id="Path_406" data-name="Path 406" d="M284.734,166.019a260.207,260.207,0,0,1,52.258,1.4c-.333,2.154-.5,3.232-.831,5.384a252.989,252.989,0,0,0-51.415-1.41Z" transform="translate(-284.734 -165.305)" fill="#ece7e0"/>
              </g>
              <g id="Group_188" data-name="Group 188" transform="translate(0.121 54.109)">
                <path id="Path_407" data-name="Path 407" d="M284.746,171.206A260.04,260.04,0,0,1,335.8,172.9c-.333,2.15-.5,3.224-.831,5.372a252.8,252.8,0,0,0-50.211-1.69Z" transform="translate(-284.746 -170.645)" fill="#ece7e0"/>
              </g>
            </g>
          </g>
          <path id="Path_408" data-name="Path 408" d="M262.718,137.608s9.1-1.914,12.418.087v25.617l-5.739-4.839-5.073,5.5Z" transform="translate(-225.819 -135.714)" fill="#d64900"/>
        </g>
        <path id="Path_409" data-name="Path 409" d="M305.62,179.321a120.365,120.365,0,0,1-40.6-22.141c-4.468-3.694-9.884-8.248-14.112-13.483l7.839,65.4H370.3l4.71-39.3C353.1,180.606,329.012,186.672,305.62,179.321Z" transform="translate(-232.859 -128.681)" fill="#ddd9ce" opacity="0.55" style="mix-blend-mode: multiply;isolation: isolate"/>
      </g>
      <g id="Group_193" data-name="Group 193" transform="translate(56.741 31.593)" opacity="0.65">
        <path id="Path_410" data-name="Path 410" d="M286.37,139.277l-5.217,7.466a101.094,101.094,0,0,0,35.322,19.739c22.817,7.306,40.217,4.448,40.217,4.448l.177-17.965,2.879-.05,1.337-11.159C326.494,132.3,294.935,137.528,286.37,139.277Z" transform="translate(-258.83 -136.253)" fill="#b9b1a0" opacity="0.85" style="mix-blend-mode: multiply;isolation: isolate"/>
        <path id="Path_411" data-name="Path 411" d="M286.784,137.257c-3.234,7.2-6.348,14.841-7.631,17.979-3.435,1.21-9.065,11.359-9.065,11.359l1.84,1.707,2.271-4.087-1.906,4.513,3.647,1.36.869-5-.137,5.039,2.9-.075s3.008-9.943,1.67-13.626c1.184-2.872,4.625-11.173,8-18.778C288.448,137.562,287.637,137.34,286.784,137.257Z" transform="translate(-270.087 -135.231)" fill="#b9b1a0" opacity="0.85" style="mix-blend-mode: multiply;isolation: isolate"/>
      </g>
      <g id="Group_196" data-name="Group 196" transform="translate(66.867)">
        <g id="Group_195" data-name="Group 195" transform="translate(11.392)">
          <path id="Path_412" data-name="Path 412" d="M354.149,147.337a135.8,135.8,0,0,1-28.755-7.018,135.711,135.711,0,0,1-27.483-10.99l-10,14.31A88.415,88.415,0,0,0,318.8,160.9c19.954,6.391,35.172,3.891,35.172,3.891Z" transform="translate(-273.473 -111.703)" fill="#3d3d3d"/>
          <g id="Group_194" data-name="Group 194">
            <path id="Path_413" data-name="Path 413" d="M338.917,129.713l-57.612-9.121-.551,1.721L329.7,158.506l60.863-1.034.551-1.721Z" transform="translate(-280.754 -120.591)" fill="#454545"/>
            <path id="Path_414" data-name="Path 414" d="M339.19,127.992l-58.163-7.4,48.943,36.194,60.863-1.034Z" transform="translate(-280.476 -120.591)" fill="#6a6a6a"/>
            <path id="Path_415" data-name="Path 415" d="M303.694,132.325c5.021-2.245,10-4.577,14.958-6.945l-37.623-4.789,18.355,13.576C300.829,133.57,302.269,132.963,303.694,132.325Z" transform="translate(-280.476 -120.591)" fill="#a4a4a4"/>
            <path id="Path_416" data-name="Path 416" d="M322.47,138.363c4.016-3.052,8.077-6.046,12.075-9.114L329.8,126.7c-10.066,5.19-20.239,10.179-30.549,14.867l10.005,7.4C313.631,145.4,317.972,141.782,322.47,138.363Z" transform="translate(-261.94 -114.38)" fill="#a4a4a4"/>
            <path id="Path_417" data-name="Path 417" d="M351.831,143.081l-18.669-10.034c-4.507,3.641-9.164,7.091-13.792,10.584Z" transform="translate(-241.474 -107.921)" fill="#a4a4a4"/>
          </g>
        </g>
        <path id="Path_418" data-name="Path 418" d="M337.851,134.753s-40.966-11.738-44.207-9.309-14.877,31.271-14.877,31.271l1.991.637s11.6-28.386,13.87-30.045S337.851,134.753,337.851,134.753Z" transform="translate(-271.384 -115.991)" fill="#3d3d3d"/>
        <path id="Path_419" data-name="Path 419" d="M275.107,150.106s6.455-11.643,9.094-9.854c2.574,1.743-.8,12.88-.8,12.88l-2.536.063.121-4.408-.76,4.371-3.189-1.188,1.668-3.946-1.987,3.573Z" transform="translate(-275.107 -100.781)" fill="#3d3d3d"/>
      </g>
    </g>
    <path id="Path_420" data-name="Path 420" d="M400.719,173.682l.151-15.3.05-.414,29.1-.494.551-1.721L392.822,135.46h0l-4.008-2.156-9.882-5.311-20.539-2.612h0l-37.625-4.789-.551,1.723,10.685,7.9c-2.384,2.255-8.43,16.1-11.98,24.54-.986-.163-2.116-.339-3.365-.516-.055-.008-.107-.02-.161-.026l0,0c-13.035-1.846-39.451-3.9-68.458,3.474l9.784,81.623h-.026a111.349,111.349,0,0,0-14.661,20.9s-.01.085-.02.206l-.048.526h.012c0,.091-.01.178-.012.28,0,.04,0,.083,0,.123,0,.151,0,.3,0,.466,0,.061.006.119.01.182q.012.221.036.442c.008.069.016.135.028.2.02.139.048.27.079.4.016.067.032.131.052.194a2.383,2.383,0,0,0,.145.349c.024.048.042.1.071.147a1.061,1.061,0,0,0,.317.343c1.071.694,11.819,5,14.351,5H261.5c.579.817,2.171,1.408,4.063,1.408s3.486-.591,4.065-1.408H379.159c.579.817,2.171,1.408,4.065,1.408s3.484-.591,4.063-1.408h4.279c1.583,0,6.413-1.658,10.078-3.066.367-.141.722-.278,1.061-.414.825-.325,1.533-.617,2.1-.863a12.649,12.649,0,0,0,1.222-.575h0a1.523,1.523,0,0,0,.575-.863,8.452,8.452,0,0,0,.172-2.85l-.016-.03h0c-.557-.976-1.089-1.886-1.606-2.754-.038-.065-.079-.133-.119-.2-.5-.833-.98-1.618-1.456-2.376-.056-.089-.113-.182-.169-.27-.462-.73-.92-1.432-1.374-2.114l-.2-.3c-.45-.67-.9-1.325-1.36-1.973l-.212-.3c-.46-.648-.928-1.291-1.41-1.939-.071-.1-.143-.194-.214-.288-.488-.656-.992-1.319-1.515-2l-.218-.278c-.539-.7-1.1-1.416-1.69-2.167l-.174-.22c-.956-1.21-1.981-2.5-3.117-3.928h-.758l7.843-65.423C400.11,173.779,400.719,173.682,400.719,173.682Zm-68.65-41.775a1.8,1.8,0,0,1,.865-.19l10.721,7.928-9,12.882s.432.405,1.255,1.1l-.055.008c-.169.02-.339.042-.5.065-.5.067-.976.133-1.444.2-.121.018-.246.034-.363.052-1.15.167-2.209.333-3.169.494-.18.03-.345.061-.518.089l-.821.143c-.2.036-.391.071-.583.107l-.585.107-.6.115-.373.075c-.22.042-.432.085-.627.125l-.026,0h0c-1.481.3-2.292.5-2.294.5s-1.033-.24-2.9-.587C324.624,146.615,330.516,133.037,332.069,131.908Z" transform="translate(0.001 0)" fill="#2d1b50" opacity="0.55" style="mix-blend-mode: overlay;isolation: isolate"/>
  </g>
</svg>
