<svg xmlns="http://www.w3.org/2000/svg" width="823.957" height="452.468" viewBox="0 0 823.957 452.468">
  <g id="Group_250" data-name="Group 250" transform="translate(-147.087 -254.588)">
    <path id="Path_618" data-name="Path 618" d="M195.15,705.873h728c70.778-138.521,48.868-292.4,24.138-335.716-41.814-73.232-75.923-108.66-163.745-86.933-49.144,12.158-114.865,50.087-145.658,7.063-36.179-50.549-123.345-44.554-198.572,0-80.773,47.838-170.03-59.914-252.005,36.766C98.329,432,188.092,514.74,165.523,563.463,120.754,660.113,193.275,704.873,195.15,705.873Z" transform="translate(0 0)" fill="#eafcfc"/>
    <path id="Path_619" data-name="Path 619" d="M168.533,1844.253H981.562a1.183,1.183,0,0,0,1.183-1.183h0a1.183,1.183,0,0,0-1.183-1.183H168.533a1.183,1.183,0,0,0-1.183,1.183h0A1.183,1.183,0,0,0,168.533,1844.253Z" transform="translate(-14.517 -1137.198)" fill="#355389"/>
    <g id="Group_249" data-name="Group 249" transform="translate(238.145 323.285)">
      <path id="Path_620" data-name="Path 620" d="M2054.9,1024.663h0c-.948,0-21.743-.014-22.685-.041-52.249-1.5-74.294-44.326-74.294-96.938V833.364a25.131,25.131,0,0,1,25.131-25.131h143.7a25.13,25.13,0,0,1,25.13,25.131v94.321A96.979,96.979,0,0,1,2054.9,1024.663Z" transform="translate(-1535.488 -719.936)" fill="#2b4773"/>
      <path id="Path_621" data-name="Path 621" d="M2070.6,496.851h0a70.618,70.618,0,0,0-70.617,70.617v82.824h141.235V567.468A70.618,70.618,0,0,0,2070.6,496.851Zm50.775,133.308h-101.55v-62.4a50.775,50.775,0,1,1,101.55,0Z" transform="translate(-1565.626 -496.851)" fill="#afc2e3"/>
      <path id="Rectangle_104" data-name="Rectangle 104" d="M25.131,0h143.7a25.131,25.131,0,0,1,25.131,25.131v94.32A96.979,96.979,0,0,1,96.979,216.43h0A96.979,96.979,0,0,1,0,119.451V25.131A25.131,25.131,0,0,1,25.131,0Z" transform="translate(399.744 88.297)" fill="#36578f"/>
      <path id="Path_622" data-name="Path 622" d="M669.839,788.211l10.573-5.886,9.61,8.082c13.691-8.025,30.387-22.14,30.387-22.14s1.587-1.3,3.493-3.132c1.754-1.685,4.226-4.06,5.189-4.994a20.331,20.331,0,0,0,3.392-4.491c.8-1.373,2.194-3.73,3.223-4.393.648-.417,2.355-1.607,3.266-2.243s1.954-1.419,2.477-1.7a5.686,5.686,0,0,0,1.188-1.25.95.95,0,0,1,1.7.5,4.14,4.14,0,0,1-1.052,2.342c-1.213,1.651-3.956,3.419-3.7,3.593s5.638-1.109,6.262-1.215,6.885-1.563,8.193-1.442,1.45.953.867,1.437c-.5.416-9,3.068-9,3.068s-1.083.341-.565.659,8.24-2.074,9.459-2.216,2.1.337,1.487,1.319c-.744,1.195-9.143,3.239-9.143,3.239s-1.049.275-.778.658,6.807-1.762,7.492-1.665a.9.9,0,0,1,.489,1.623c-.875.919-8.389,2.68-8.389,2.68s-.532.3-.236.48,6-1.245,6.724-.911a.627.627,0,0,1,.367.833c-.259,1.287-6,1.911-8.519,3s-5.863,1.117-8.728,2.743a31.843,31.843,0,0,0-6.092,5.423c-1.311,1.517-2.751,3.174-4.289,4.923h0c-13.982,15.9-33.012,36.544-37.886,31.507C684.818,806.081,674.551,794.19,669.839,788.211Z" transform="translate(-612.663 -675.132)" fill="#f7a491"/>
      <path id="Path_623" data-name="Path 623" d="M874.625,794.222c.084-.116,1.488-1.134,1.488-1.134l6.2,8.326-1.447,1.4Z" transform="translate(-759.379 -709.086)" fill="#f4f4f4"/>
      <path id="Path_624" data-name="Path 624" d="M639.917,822.9c-6.09-4.725-21.656-17.7-30.3-18.765-4.466-.548-13.5,13.674-5.535,19.46,6.568,4.769,32.042,24.713,36.062,23.852,7.94-1.7,45.506-44.027,45.506-44.027l-6.84-8.629Z" transform="translate(-563.282 -710.304)" fill="#042254"/>
      <g id="Group_243" data-name="Group 243" transform="translate(191.227 42.363)">
        <path id="Path_625" data-name="Path 625" d="M1598.9,948.914c.539-1.147-5.15-2.708-5.333-3.943s7.443-.539,7.825-1.568c.7-1.9-8.306-1.276-8.037-2.169s9.529-1.989,8.713-3.653-9.483,2.138-9.621,1.052,8.378-2.811,8.472-5.152c.05-1.251-14.181,4.793-15.672,3.956s2.355-6.342,1.2-7.338-6.147,10.516-7.048,10.853-20.427,6.236-27.068,7.215c-.56-2.248-5.553-14.615-6.034-16.735-3.9,2.206-8.866-.449-12.857,1.516,2.009,7.081,6.519,30.4,8.321,31.452,5.488,3.2,34.36-12.048,39.132-14.746s7.216-1.412,10.329-2.1S1598.365,950.061,1598.9,948.914Z" transform="translate(-1422.61 -849.565)" fill="#f38b80"/>
        <path id="Path_626" data-name="Path 626" d="M1524.341,1336.584c-2.063-1.519-3.727-2.523-10.315-5.716-.43-.208-1.994-1.2-2.558-1.55a19.879,19.879,0,0,1-4.1-3.632c-1.18-1.317-1.743-5.539-2.009-8.9.678-7.515,11.572-128.044,13.87-141.091,2.371-13.468-1.241-34.013-1.241-34.013l-8.41-3.171-15.966,55.314,1.26,42.1s-3.754,12.137-4.229,19.389,5.427,66.121,5.427,66.121h0a30.69,30.69,0,0,1-.316,5.2c-.433,2.2-2.34,6.216-1.233,8.289s2.221,2.079,2.221,2.079l27.411.756C1525.713,1337.784,1525.6,1337.513,1524.341,1336.584Z" transform="translate(-1391.921 -998.92)" fill="#f48c7f"/>
        <path id="Path_627" data-name="Path 627" d="M1347.55,1122.673s-9.962,15.022-12.334,27.455,1.741,50.64-2.822,66.931c-2.47,8.819-11.831,22.439-13.255,33.835s-6.375,44.289-6.375,44.289h0c-.749,3.453-1.923,7.724-3.446,9.709a28.67,28.67,0,0,0-3.754,4.949c-1.74,3.419-.778,8.51.506,11.313.659,1.439.066.816,1.567,1.279,4.443,1.373,9.057-.321,10.949-4.584a26.466,26.466,0,0,0,2.171-9.562,44.651,44.651,0,0,1,1.569-10.108h0l31.843-78.081,23.053-67.385,5.906-34.7Z" transform="translate(-1258.671 -984.235)" fill="#f79c8d"/>
        <path id="Path_628" data-name="Path 628" d="M1316.987,1800.187c-6.892,1.259-11.478-2.78-13.864-5.8-1.752,3.425-2.607,8.537-1.318,11.351,1.135,2.478,4.452,2.407,7.063,2.5a6.817,6.817,0,0,0,6.267-3.843A23.044,23.044,0,0,0,1316.987,1800.187Z" transform="translate(-1256.209 -1468.813)" fill="#001333"/>
        <path id="Path_629" data-name="Path 629" d="M1519.163,1809.774c-7.587,1.95-13.2.625-16.333-.643-.809,2.3-1.881,5.179-1.313,6.841.7,2.035,2,2.805,2.875,2.828,6.93.182,25.074.12,30.359.189a.865.865,0,0,0,.67-1.422C1534.11,1816,1519.728,1810.12,1519.163,1809.774Z" transform="translate(-1399.62 -1479.378)" fill="#001333"/>
        <path id="Path_630" data-name="Path 630" d="M1420.95,1215.37q.893.061,1.8.115l.092.006q.887.053,1.781.1l.108.005q.895.047,1.794.085l.092,0q.914.039,1.832.07c6.8.223,15.2.137,20.589-.78,2.747-27.494,3.771-52.586,4.788-58.14,2.467-13.468-2.149-34.727-2.149-34.727l-2.2-.4,1.393-7.873-37,4.662s-10.359,15.022-12.826,27.455,1.81,50.64-2.935,66.932C1398.1,1212.889,1408.667,1214.534,1420.95,1215.37Z" transform="translate(-1325.645 -981.247)" fill="#13375b"/>
        <path id="Path_631" data-name="Path 631" d="M1363.084,676.9c1.453-6.6,2.875-13.24-.954-20.49a18.619,18.619,0,0,0-14.654-9.978c-17.564-2.083-13.81,14.308-38.359,17.856-7.629,1.1-14.715,2.162-21.084,5.955-11.5,6.848-15.841,17.832-8.214,35.727,18.675,43.818,63.361,5.741,70.177-2.009C1356.76,696.266,1362.149,681.144,1363.084,676.9Z" transform="translate(-1238.166 -646.246)" fill="#f47458"/>
        <path id="Path_632" data-name="Path 632" d="M1328.971,1175.543s28.629,17.065,77.631,11.1c0,0,2.224-63.888-4.735-106.012-13.24-9.533-27.129-13.953-34.816-1.484C1342.05,1119.7,1328.971,1175.543,1328.971,1175.543Z" transform="translate(-1276.116 -950.908)" fill="#001333"/>
        <path id="Path_633" data-name="Path 633" d="M1446.759,827.791s-8.869,1.006-14.174,6.774,8.575,52.135,9.54,59.477-9.224,27.66-9.224,27.66,34.633,6.881,43.635.938c0,0,.791-56.742-.173-61.986s-9-26.57-10.932-28.667S1446.759,827.791,1446.759,827.791Z" transform="translate(-1349.486 -776.311)" fill="#001333"/>
        <path id="Path_634" data-name="Path 634" d="M1488.928,764s-.069.394-.194,1.064c-.6,3.216-2.9,13.885-4.456,16.818-1.88,3.544,6.435,14.849,14.437,13.469,2.382-.411-2.014-10.387-1.8-11.443.4-2.023.953-4.783,1.514-7.612.317-1.6.637-3.215.938-4.736.856-4.323,1.555-7.858,1.555-7.858Z" transform="translate(-1387.191 -730.397)" fill="#f7a491"/>
        <path id="Path_635" data-name="Path 635" d="M1499.751,765.067c.125-.67.194-1.064.194-1.064l11.992-.3s-.7,3.536-1.554,7.858c-.3,1.513-.618,3.122-.933,4.709a11.238,11.238,0,0,1-5.726-2.864,15.093,15.093,0,0,1-4.337-6.434C1499.535,766.217,1499.658,765.565,1499.751,765.067Z" transform="translate(-1398.208 -730.397)" fill="#f47458"/>
        <path id="Path_636" data-name="Path 636" d="M1495.5,664.271a14.156,14.156,0,0,0-8.433,5.249c-3.543,4.571-7.361,18.708,1.44,26.393s17.5-1.014,18.786-10.238S1508.325,663.938,1495.5,664.271Z" transform="translate(-1386.553 -659.155)" fill="#f7a491"/>
        <path id="Path_637" data-name="Path 637" d="M1565.515,719.73c-.555,2.223-2.013,3.726-3.255,3.355s-1.8-2.474-1.246-4.7,2.013-3.726,3.256-3.355S1566.07,717.506,1565.515,719.73Z" transform="translate(-1442.206 -695.487)" fill="#f7a491"/>
        <path id="Path_638" data-name="Path 638" d="M1487.822,663.835s-11.493,13.189-16.895,13.81-6.111,7.764-6.111,7.764,1.931-16.46,7.279-19.634S1487.822,663.835,1487.822,663.835Z" transform="translate(-1373.44 -658.678)" fill="#f47458"/>
        <path id="Path_639" data-name="Path 639" d="M1478.321,714.844c.439,2.388-.444,4.577-1.974,4.89s-3.125-1.368-3.564-3.755.445-4.576,1.974-4.89S1477.882,712.457,1478.321,714.844Z" transform="translate(-1379.067 -692.675)" fill="#f7a491"/>
        <g id="Group_242" data-name="Group 242" transform="translate(0 111.712)">
          <path id="Path_640" data-name="Path 640" d="M1407.243,1052.671H1142.575V1040.2h264.667a6.234,6.234,0,0,1,6.234,6.234h0A6.234,6.234,0,0,1,1407.243,1052.671Z" transform="translate(-1142.575 -1040.204)" fill="#f8d18b"/>
        </g>
        <path id="Path_641" data-name="Path 641" d="M1528.2,755.416l-8.341-.522a3.653,3.653,0,0,0,3.655,3.515C1527.977,758.818,1528.2,755.416,1528.2,755.416Z" transform="translate(-1412.874 -724.085)" fill="#fff"/>
        <path id="Path_642" data-name="Path 642" d="M1402.088,1012.4l12.145-2.405s-.22,11.415.011,12.728c0,0,23.01,6.376,32.627,8.106,0,0,4.379-2.48,6.15-3.269a43.014,43.014,0,0,1,7.587-1.787c1.053-.138.694,1.016-.211,1.419s-3.245,1.5-3.908,2.854c2.076,1.26,8.745.74,10.534.983,0,1.116-7.521,7.528-10.019,7.786-4.578.474-9.224-1.253-11.059-1.46s-32.286-1.721-32.286-1.721-11.648-1.675-12.421-3.679S1402.088,1012.4,1402.088,1012.4Z" transform="translate(-1327.742 -906.852)" fill="#f7a491"/>
        <path id="Path_643" data-name="Path 643" d="M1407.736,845.278s-4.247,2.013-7.98,10.707c-3.548,8.262-5.328,49.353-5.328,49.353l15.785-2.294,6.182-19.133a35.248,35.248,0,0,0-3.646-35.065C1410.766,846.135,1408.941,844.5,1407.736,845.278Z" transform="translate(-1323.011 -788.7)" fill="#001333"/>
      </g>
      <path id="Path_644" data-name="Path 644" d="M805.247,726.451h0a62.806,62.806,0,0,0-62.806,62.806v64.794a62.806,62.806,0,0,0,62.806,62.806h0a62.806,62.806,0,0,0,62.806-62.806V789.257A62.806,62.806,0,0,0,805.247,726.451Zm45.509,127.6a45.509,45.509,0,0,1-91.018,0V789.257a45.509,45.509,0,0,1,91.018,0Z" transform="translate(-664.678 -661.345)" fill="#f8d18b"/>
      <g id="Group_245" data-name="Group 245" transform="translate(0 36.976)">
        <path id="Path_645" data-name="Path 645" d="M707.794,1767.9s-.876,9.961-.88,9.985c-.233,1.448-1.151,5.027-1.151,6.344,0,4.948,21.62-4.2,16.774-6.392-.439-.2-2.736-1.7-2.88-3.383-.222-2.6-.786-7.843-.786-7.843Z" transform="translate(-638.401 -1443.528)" fill="#f7a491"/>
        <path id="Path_646" data-name="Path 646" d="M720.851,1805.521a76.709,76.709,0,0,1-7.676,1.892c-2.6.379-6.027-2.808-7.866-1.947-2.024.947-1.82,10.274-1.82,10.274s28.478,1.077,34.362-.053C740.986,1815.086,731.228,1809.046,720.851,1805.521Z" transform="translate(-636.768 -1471.259)" fill="#001333"/>
        <path id="Path_647" data-name="Path 647" d="M539.954,1770.036s-.531,10.4-.534,10.422c-.233,1.449-1.632,5.307-1.632,6.625,0,4.947,21.62-4.2,16.775-6.392-.439-.2-3.418-2.82-3.562-4.5-.223-2.595-.1-6.723-.1-6.723Z" transform="translate(-518.057 -1445.571)" fill="#f7a491"/>
        <path id="Path_648" data-name="Path 648" d="M552.171,1808.374a76.828,76.828,0,0,1-7.676,1.892c-2.6.379-6.027-2.807-7.866-1.947-2.024.947-2.1,9.473-2.1,9.473s31.231.787,35.777.13C573.459,1817.467,562.548,1811.9,552.171,1808.374Z" transform="translate(-515.72 -1473.303)" fill="#001333"/>
        <path id="Path_649" data-name="Path 649" d="M593.673,1188.029l9.141,4.015,19.227,93.489-.779,70.086-15.413.365s-7.169-61.307-7.169-66.058-33.206-83.144-33.206-83.144Z" transform="translate(-537.893 -1029.011)" fill="#337aab"/>
        <path id="Path_650" data-name="Path 650" d="M549.34,1198.258s-6.734,72.031-6.734,84.173-5.459,80.1-5.459,80.1H521.258s-.677-20.8-2.333-51.278c-.259-4.772.334-14.4,0-19.343-2.4-35.536-7.157-68.989-4.887-82.249.366-2.134,1.052-7.715,2.39-9.124C526.546,1189.876,549.34,1198.258,549.34,1198.258Z" transform="translate(-500.614 -1034.095)" fill="#6ea7ce"/>
        <path id="Path_651" data-name="Path 651" d="M499.435,824.969a28.537,28.537,0,0,0-16.845,6.926c-2.95,2.621-3.288,4.331-3.288,4.331s13.089,63,13.112,73.6c.018,8.2-1.524,27.48-1.524,27.48s36.173,4.973,51.153-1.048c0,0-2.659-25.522-2.659-31.81s-5.658-63.475-6.946-67.468c-1.169-3.623-3.3-10.135-10.531-11.74S499.435,824.969,499.435,824.969Z" transform="translate(-476.155 -768.527)" fill="#001333"/>
        <path id="Path_652" data-name="Path 652" d="M553.9,763.842l-2.639,17.592s9.637,20.945,15.39,19.129c4.827-1.524,1.857-20.057,1.857-20.057s-2.631-9.953-1.842-14.934S553.9,763.842,553.9,763.842Z" transform="translate(-527.711 -724.362)" fill="#f7a491"/>
        <path id="Path_653" data-name="Path 653" d="M572.782,765.572c.789-4.98-12.767-1.73-12.767-1.73L559.8,765.3a8.124,8.124,0,0,0,1.47,2.452,17.759,17.759,0,0,0,11.853,5.425A27.467,27.467,0,0,1,572.782,765.572Z" transform="translate(-533.825 -724.362)" fill="#f47458"/>
        <g id="Group_244" data-name="Group 244" transform="translate(13.11)">
          <path id="Path_654" data-name="Path 654" d="M550.075,664.826c-.383-.141-3.071,20.036,2.03,25.587s15.039,7.369,18.6,3c3.943-4.836,3.745-26.521-4.186-32.232S550.075,664.826,550.075,664.826Z" transform="translate(-539.219 -650.233)" fill="#f7a491"/>
          <path id="Path_655" data-name="Path 655" d="M538.724,627.465c-6.13,1.264-18.125,8.556-22.031,15.1-4.8,8.044-1.256,16.955,4.335,21.328s5.529,9.448,5.529,9.448l.869-2.637a14.772,14.772,0,0,0,.7-6.154,12.152,12.152,0,0,0-.9-3.7c-1.345-2.92,2.889-4.86,4.076-7.29.914-1.87.958-6.15,2.4-9.242l1.72-2.361a12.321,12.321,0,0,1,5.9-2.38,6.681,6.681,0,0,1,1.953.138C547.147,640.6,546.589,625.843,538.724,627.465Z" transform="translate(-514.439 -627.314)" fill="#010c1c"/>
          <path id="Path_656" data-name="Path 656" d="M607.9,639.549a6.335,6.335,0,0,0,7.5-2.756c2.694-4.49-1.033-14.426-4.187-6.688C609.336,634.71,607.9,639.549,607.9,639.549Z" transform="translate(-581.395 -627.247)" fill="#010c1c"/>
          <path id="Path_657" data-name="Path 657" d="M560.11,721.312c.041,2.461-1.066,4.477-2.471,4.5s-2.577-1.951-2.618-4.413,1.066-4.477,2.471-4.5S560.07,718.85,560.11,721.312Z" transform="translate(-543.513 -691.476)" fill="#f7a491"/>
        </g>
        <path id="Path_658" data-name="Path 658" d="M555.369,1008.167a2.49,2.49,0,0,1-.505-.273c-5.082-3.557-42.592-30.344-44.089-32.177-1.352-1.655-23.882-40.92-23.882-40.92l15.061-2.332,18.754,33.764c1.39,1.351,27.975,25.465,27.975,25.465s4.757,4.553,7.728,7.065c.966.16,1.885.3,2.649.4a23.013,23.013,0,0,0,4.506-.2,26.237,26.237,0,0,1,5.737-.013c.9.237,2.737.787,3.839,1.133s2.408.7,2.969.958a5.927,5.927,0,0,0,1.782.183.986.986,0,0,1,.669,1.713,4.3,4.3,0,0,1-2.594.623c-2.128.052-5.323-1.08-5.3-.757s4.491,3.931,4.975,4.377,5.656,4.668,6.388,5.82.137,1.8-.631,1.627c-.66-.148-8.237-5.453-8.237-5.453s-.968-.675-.9-.046,6.937,5.458,7.827,6.369,1.055,1.94-.141,2.061c-1.455.147-8.469-5.46-8.469-5.46s-.891-.688-1.035-.222,5.771,4.477,6.126,5.1a.939.939,0,0,1-1.025,1.433c-1.311-.135-7.53-5.2-7.53-5.2s-.581-.25-.544.111,4.833,4.141,5.018,4.951a.652.652,0,0,1-.452.831c-1.223.6-5.378-3.716-7.873-5.1s-4.641-4.112-7.8-5.433C556.169,1008.486,555.678,1008.29,555.369,1008.167Z" transform="translate(-481.595 -845.917)" fill="#f8a492"/>
        <path id="Path_659" data-name="Path 659" d="M722.8,1174.724l1.6.469,3.651-9.64-2.065-.378Z" transform="translate(-650.607 -1012.638)" fill="#f4f4f4"/>
        <path id="Path_660" data-name="Path 660" d="M496.113,883.154l-2.145-4.9a84.534,84.534,0,0,0-17.65-25.862l-1.676-1.677s-6.221,4.626-6.433,16.964c-.153,8.909,28.986,52.121,28.986,52.121l43.066,29.9c.225-.177,4.008-9.9,4.008-9.9l-35.2-32.053Z" transform="translate(-468.207 -787.347)" fill="#042254"/>
        <path id="Path_661" data-name="Path 661" d="M541.676,828.7l1.761-3.165,17.519-.3,2.892,13.111s-2.248,7.721-2.892,8.637-7.334,2.923-10.01,1.395-10.226-5.255-10.226-8.694S541.676,828.7,541.676,828.7Z" transform="translate(-520.158 -769.096)" fill="#001333"/>
        <path id="Path_662" data-name="Path 662" d="M550.3,815.022l1.036-4.46,10.7,3.23L567,811.135l.827,3.589-2.651,4.418-3.132-2.006-1.838,2.006Z" transform="translate(-527.023 -758.581)" fill="#f4f4f4"/>
        <path id="Path_663" data-name="Path 663" d="M522.013,659.332s-9.1,1.294-7.866,10.813,7.452-5.407,7.452-5.407Z" transform="translate(-501.037 -650.234)" fill="#010c1c"/>
        <path id="Path_664" data-name="Path 664" d="M608.145,750.166l-8.337.6a3.653,3.653,0,0,0,4.092,3C608.379,753.567,608.145,750.166,608.145,750.166Z" transform="translate(-562.491 -715.31)" fill="#fff"/>
      </g>
      <g id="Group_248" data-name="Group 248" transform="translate(513.311 42.422)">
        <g id="Group_247" data-name="Group 247">
          <path id="Path_665" data-name="Path 665" d="M2774.066,1005.259c-.349,1.2-11.963,14.957-11.963,14.957l-5.132-11.557s.836-3.629,2.288-8.816C2764.215,1001.136,2770.414,1001.958,2774.066,1005.259Z" transform="translate(-2621.27 -899.635)" fill="#001333"/>
          <path id="Path_666" data-name="Path 666" d="M2708.293,881.246s28.62,12.32,29.545,12.085c.6-.152,11.74-18.8,11.86-36.33.054-8.1-8.359-17.84-17.746-15.913-4.726.97-4.653,2.284-11.646,12.44S2708.293,881.246,2708.293,881.246Z" transform="translate(-2586.396 -785.719)" fill="#001333"/>
          <path id="Path_667" data-name="Path 667" d="M2579.691,1770.947s.679,11.236.683,11.259a61.425,61.425,0,0,1,1.233,6.248c0,4.872-23.143-4.135-17.957-6.295.47-.2,2.929-1.674,3.083-3.332.238-2.554.842-7.723.842-7.723Z" transform="translate(-2482.225 -1452.081)" fill="#f7a491"/>
          <path id="Path_668" data-name="Path 668" d="M2517.255,1809.818s5.433,1.49,8.216,1.863,6.452-2.765,8.42-1.917c2.167.933,2.082,9.328,2.082,9.328s-29.138,2.39-37.331-.082C2495.395,1818.03,2506.146,1813.289,2517.255,1809.818Z" transform="translate(-2435.772 -1479.786)" fill="#001333"/>
          <path id="Path_669" data-name="Path 669" d="M2746.649,1770.947s.679,11.236.682,11.259a61.427,61.427,0,0,1,1.233,6.248c0,4.872-23.144-4.135-17.957-6.295.47-.2,3.659-2.777,3.813-4.435.238-2.554.112-6.62.112-6.62Z" transform="translate(-2601.84 -1452.081)" fill="#f7a491"/>
          <path id="Path_670" data-name="Path 670" d="M2684.248,1809.818s5.434,1.49,8.217,1.863,6.451-2.765,8.42-1.917c2.167.933,2.253,9.328,2.253,9.328s-29.271,2.786-37.5-.082C2662.438,1817.9,2673.14,1813.289,2684.248,1809.818Z" transform="translate(-2555.422 -1479.786)" fill="#001333"/>
          <g id="Group_246" data-name="Group 246" transform="translate(125.505)">
            <path id="Path_671" data-name="Path 671" d="M2741.443,774.608l2.624,16.588s-10,8.025-15.827,6.332c-4.89-1.42-1.536-7.811-1.536-7.811s2.6-8.855,1.805-13.5S2741.443,774.608,2741.443,774.608Z" transform="translate(-2724.287 -737.572)" fill="#f7a491"/>
            <path id="Path_672" data-name="Path 672" d="M2746.282,779.626a40.838,40.838,0,0,1-11.316,3.188,22.026,22.026,0,0,0,.266-6.59c-.368-2.142,2.358-2.649,5.4-2.575,3.982.341,7.532.963,7.532.963l.5,3.187A8.239,8.239,0,0,1,2746.282,779.626Z" transform="translate(-2731.01 -737.576)" fill="#fe875e"/>
            <path id="Path_673" data-name="Path 673" d="M2750.788,687.062c.413,0-3.952,18.531-10.708,21.719s-16.829,1.526-18.719-3.464c-2.091-5.52,5.536-24.425,15.037-26.827S2750.788,687.062,2750.788,687.062Z" transform="translate(-2721.014 -669.159)" fill="#f7a491"/>
            <path id="Path_674" data-name="Path 674" d="M2735.417,750.61l-6.782-2.773a3.47,3.47,0,0,0,1.9,4.327C2734.125,753.771,2735.417,750.61,2735.417,750.61Z" transform="translate(-2726.346 -719.089)" fill="#fff"/>
            <path id="Path_675" data-name="Path 675" d="M2771.034,647.331a21.266,21.266,0,0,1,8.7,9.614c2.532,1.2,5.6,3.8,7.068,10.8,1.808,8.608-4.622,15.243-11.439,17.239s-7.87,6.505-7.87,6.505l-.773-4.853s1.517-4.225,3.8-6.34-1.08-5.2-1.376-7.71c-.228-1.936,1.2-5.694.89-8.87,0,0-3.788-5.739-7.522-7.156C2756.147,654.144,2764.111,643.339,2771.034,647.331Z" transform="translate(-2749.076 -646.455)" fill="#13375b"/>
            <path id="Path_676" data-name="Path 676" d="M2787.1,742.15c-.882,2.14-.522,4.265.806,4.746s3.12-.864,4-3,.522-4.264-.806-4.746S2787.983,740.01,2787.1,742.15Z" transform="translate(-2768.014 -712.792)" fill="#f7a491"/>
          </g>
          <path id="Path_677" data-name="Path 677" d="M2693.883,1132.745s3.922,18.954,2.323,33.325-1.724,65.424-1.724,65.424l6.1,81.684-14.473.315s-17.161-81.644-16.841-79.548-5.755-57.486-5.755-57.486l20.459-45.51Z" transform="translate(-2554.313 -993.564)" fill="#010c1c"/>
          <path id="Path_678" data-name="Path 678" d="M2612.511,1118.232s2.557,17.066-.639,24.551-27.418,80.928-27.739,86.916-8.374,72.175-8.374,72.175l-16.828-.473-3.641-73.586,7.624-92.487,7.4-23.384Z" transform="translate(-2476.779 -979.948)" fill="#001333"/>
          <path id="Path_679" data-name="Path 679" d="M2746.9,822s-4.15,2.722-8.02,2.406-9.343-3.885-9.343-3.885l.76-2.577s10.012-1.458,10.265-1.3S2746.9,822,2746.9,822Z" transform="translate(-2601.616 -768.374)" fill="#f7a491"/>
          <path id="Path_680" data-name="Path 680" d="M2586.334,888.853c2.21-12.015,18.221-49.4,19.5-56.289.622-3.349,9.258-3.423,17.485-2.986,8.689.462,17.321,1.56,17.321,1.56s7.692,1.263,11.077,4.433,4.284,11.937-.582,28.579c-3.84,13.137-8.6,20.351-10.958,29.919-.478,3.21-.886,6.377-1.427,10.076-.866,14.308.01,33.21.01,33.21s-41.877,8.683-57.541-4.491C2581.219,932.866,2584.07,901.162,2586.334,888.853Z" transform="translate(-2495.355 -777.516)" fill="#010c1c"/>
          <path id="Path_681" data-name="Path 681" d="M2309.94,1043.339c.193,0,1.911-9.376-1.771-8.116-.958-.2-1.865-.405-2.612-.594a23.023,23.023,0,0,1-4.125-1.825,26.233,26.233,0,0,0-5.339-2.1c-.924-.106-2.837-.263-3.988-.342s-2.5-.219-3.114-.188a5.92,5.92,0,0,1-1.727-.478.986.986,0,0,0-1.246,1.352,4.3,4.3,0,0,0,2.19,1.524c1.962.822,5.351.93,5.213,1.223s-5.614,2.028-6.226,2.267-6.968,2.29-8.068,3.1-.781,1.625,0,1.744c.668.1,9.656-2.082,9.656-2.082s1.147-.276.855.285-8.447,2.56-9.607,3.086-1.688,1.423-.619,1.971c1.3.666,9.875-2.005,9.875-2.005s1.081-.316,1.045.17-7,2.071-7.562,2.524a.939.939,0,0,0,.433,1.708c1.271.351,8.9-2.1,8.9-2.1s.632-.021.466.3-6.008,2.1-6.475,2.786a.652.652,0,0,0,.119.938c.92,1.009,7.314-1.3,10.044-2.138A115.208,115.208,0,0,1,2309.94,1043.339Z" transform="translate(-2278.417 -920.973)" fill="#f8a492"/>
          <path id="Path_682" data-name="Path 682" d="M2458.118,831.162c8.456-3.563,21.976,2.016,13.057,20.158-3.932,8-34.638,34.49-40.8,37.755s-55.688,14.23-55.688,14.23c-.145-.247-.6-12.483-.6-12.483l45.888-17.386S2446.586,836.02,2458.118,831.162Z" transform="translate(-2346.961 -778.056)" fill="#001333"/>
        </g>
        <path id="Path_683" data-name="Path 683" d="M2728.984,822.558l.642-2.714s16.463-.52,16.541-.027,1.326,4.5,1.326,4.5Z" transform="translate(-2601.219 -770.506)" fill="#f4f4f4"/>
      </g>
      <path id="Path_684" data-name="Path 684" d="M1778.053,1048.494v16.86c21.929,0,17.873,23.418,4.829,23.418a169.383,169.383,0,0,1,12.185,18.889c-5.1,1.338-11.708,6.05-11.708,6.05a88.336,88.336,0,0,1-1.9,12.476,112.161,112.161,0,0,0,21.01-5.875c.026-2.283,4.511-18.512,4.511-18.512,10.176,4.84,15,10.942,17.276,15.847a14.57,14.57,0,0,0,13.37,8.366c8.988-.082,13.023.293,13.023.293v-86.1h-72.593Z" transform="translate(-1406.627 -886.128)" fill="#f8d18b"/>
      <path id="Path_685" data-name="Path 685" d="M1782.882,1152.315h67.763V1128.9h-72.593C1799.982,1128.9,1795.926,1152.315,1782.882,1152.315Z" transform="translate(-1406.627 -949.671)" fill="#e6ae5a"/>
      <path id="Path_686" data-name="Path 686" d="M1998.134,1283.168h-7.624a6.593,6.593,0,0,1-6.593-6.593h0a6.593,6.593,0,0,1,6.593-6.593h7.624Z" transform="translate(-1554.115 -1050.75)" fill="#e6ae5a"/>
      <path id="Path_687" data-name="Path 687" d="M2197.6,1062.266v-8.644a7.562,7.562,0,1,0-9.125.333v10.469a.848.848,0,0,0,.73.93c4.644.078,4.622,23.5,0,23.418a.849.849,0,0,0-.73.93v36.6h9.125v-7.76a2.27,2.27,0,0,1-1.952-2.489v-8.208a2.27,2.27,0,0,1,1.952-2.489v-13.5a3.814,3.814,0,0,1,.191-1.2,40.508,40.508,0,0,0,2.233-12.748v-1.695a40.506,40.506,0,0,0-2.233-12.747A3.817,3.817,0,0,1,2197.6,1062.266Z" transform="translate(-1698.359 -886.128)" fill="#001333"/>
    </g>
  </g>
</svg>
