<svg xmlns="http://www.w3.org/2000/svg" width="169.511" height="149.888" viewBox="0 0 169.511 149.888">
  <g id="Group_148" data-name="Group 148" transform="translate(-134.261 -28.026)">
    <g id="Group_146" data-name="Group 146" transform="translate(134.262 28.026)">
      <g id="Group_140" data-name="Group 140" transform="translate(10.1)">
        <g id="Group_137" data-name="Group 137" transform="translate(25.842)">
          <path id="Path_256" data-name="Path 256" d="M236.219,170.454c-19.046,0-44.753-20.457-63.969-50.911-11.35-17.979-18.813-36.944-21.02-53.4-2.28-17.022,1.336-29.472,10.19-35.055a20.635,20.635,0,0,1,11.215-3.06c19.046,0,44.751,20.46,63.965,50.911,24.115,38.221,28.875,77.076,10.829,88.463A20.651,20.651,0,0,1,236.219,170.454ZM172.635,32.182a16.6,16.6,0,0,0-9,2.419c-7.4,4.665-10.338,15.669-8.285,30.987,2.13,15.878,9.379,34.252,20.415,51.74,18.193,28.835,43.055,48.973,60.455,48.973a16.572,16.572,0,0,0,9-2.414c15.537-9.8,9.983-47.69-12.128-82.733C214.89,52.32,190.035,32.182,172.635,32.182Z" transform="translate(-150.564 -28.026)" fill="#868686"/>
        </g>
        <g id="Group_138" data-name="Group 138" transform="translate(0 31.269)">
          <path id="Path_257" data-name="Path 257" d="M240.012,122.1a165.462,165.462,0,0,1-27.909-2.452c-20.953-3.6-40.046-10.746-53.753-20.113-14.174-9.694-21-20.711-19.234-31.029,2.747-15.98,25.5-26.3,57.972-26.3a165.5,165.5,0,0,1,27.9,2.447c44.537,7.657,76.6,30.118,72.986,51.147C295.229,111.778,272.477,122.1,240.012,122.1ZM197.089,46.363c-29.876,0-51.528,9.183-53.874,22.854-1.479,8.618,4.727,18.169,17.481,26.891,13.224,9.039,31.732,15.951,52.112,19.448a160.726,160.726,0,0,0,27.2,2.394c29.871,0,51.519-9.183,53.865-22.854,3.113-18.1-28.756-39.325-69.593-46.343A161.295,161.295,0,0,0,197.089,46.363Z" transform="translate(-138.843 -42.209)" fill="#868686"/>
        </g>
        <g id="Group_139" data-name="Group 139" transform="translate(18.276 6.367)">
          <path id="Path_258" data-name="Path 258" d="M169.871,160.61c-6.53,0-11.841-1.839-15.792-5.465-7.714-7.073-9.053-19.968-3.77-36.309,5.108-15.8,15.841-33.128,30.218-48.794,21.809-23.769,48-39.127,66.727-39.127,6.526,0,11.837,1.837,15.79,5.465,15.719,14.421,4.1,51.8-26.448,85.106C214.79,145.254,188.6,160.61,169.871,160.61ZM247.254,35.068c-17.618,0-42.606,14.831-63.667,37.782-13.98,15.237-24.395,32.023-29.327,47.264-4.751,14.705-3.821,26.057,2.626,31.97,3.162,2.9,7.531,4.37,12.986,4.37,17.613,0,42.606-14.827,63.665-37.777,28.006-30.528,40.231-66.818,26.7-79.239C257.073,36.538,252.7,35.068,247.254,35.068Z" transform="translate(-147.132 -30.914)" fill="#868686"/>
        </g>
      </g>
      <g id="Group_141" data-name="Group 141" transform="translate(10.103 24.392)">
        <path id="Path_259" data-name="Path 259" d="M206.014,39.093a14.091,14.091,0,0,0-4.215.545c.977,5.534.276,12.337-1.94,19.866a14.63,14.63,0,0,0,4.107,1.407C206.369,52.764,207.115,45.314,206.014,39.093Z" transform="translate(-65.34 -39.09)" fill="#868686" style="mix-blend-mode: multiply;isolation: isolate"/>
        <path id="Path_260" data-name="Path 260" d="M146.465,72.63c-2.842-4.469-3.977-8.925-3.252-13.153a16.57,16.57,0,0,1,4.043-8.038,15.4,15.4,0,0,0-3.94-1.116c-.174-.024-.344-.009-.518-.029a20.038,20.038,0,0,0-3.684,8.477c-.811,4.742.212,9.632,2.91,14.474A14.689,14.689,0,0,0,146.465,72.63Z" transform="translate(-138.844 -25.592)" fill="#868686" style="mix-blend-mode: multiply;isolation: isolate"/>
      </g>
      <g id="Group_142" data-name="Group 142" transform="translate(140.058 21.054)">
        <path id="Path_261" data-name="Path 261" d="M223.322,50.5c-.871,6.043-7.269,10.124-14.293,9.112s-12.011-6.729-11.143-12.772,7.269-10.124,14.293-9.114S224.191,44.46,223.322,50.5Z" transform="translate(-197.788 -37.575)" fill="#bde9ff"/>
        <path id="Path_262" data-name="Path 262" d="M199.86,42.075a4.507,4.507,0,0,1,8.856,1.274,4.507,4.507,0,0,1-8.856-1.274Z" transform="translate(-195.337 -36.172)" fill="#fff"/>
      </g>
      <g id="Group_143" data-name="Group 143" transform="translate(117.852 128.356)">
        <path id="Path_263" data-name="Path 263" d="M213.515,98.86c-.842,5.858-7.28,9.778-14.379,8.755s-12.17-6.6-11.328-12.452,7.28-9.778,14.379-8.755S214.359,93,213.515,98.86Z" transform="translate(-187.717 -86.245)" fill="#ffc346"/>
        <path id="Path_264" data-name="Path 264" d="M190.435,89.935A3.925,3.925,0,1,1,193.8,93.9,3.692,3.692,0,0,1,190.435,89.935Z" transform="translate(-184.479 -85.3)" fill="#fff"/>
      </g>
      <g id="Group_144" data-name="Group 144" transform="translate(74.094 56.715)">
        <path id="Path_265" data-name="Path 265" d="M199.139,71.367a15.722,15.722,0,1,1-13.369-17.45A15.546,15.546,0,0,1,199.139,71.367Z" transform="translate(-167.869 -53.751)" fill="#3d3d3d"/>
        <path id="Path_266" data-name="Path 266" d="M170.355,60.1a5.592,5.592,0,1,1,4.762,6.142A5.5,5.5,0,0,1,170.355,60.1Z" transform="translate(-164.938 -51.659)" fill="#fff"/>
      </g>
      <g id="Group_145" data-name="Group 145" transform="translate(0 45.674)">
        <path id="Path_267" data-name="Path 267" d="M160.851,62.212c-.906,6.3-7.571,10.552-14.886,9.5S133.458,64.7,134.364,58.4s7.569-10.549,14.884-9.5S161.757,55.913,160.851,62.212Z" transform="translate(-134.261 -48.743)" fill="#689b87"/>
        <ellipse id="Ellipse_2" data-name="Ellipse 2" cx="3.513" cy="4.283" rx="3.513" ry="4.283" transform="matrix(0.142, -0.99, 0.99, 0.142, 4.867, 10.345)" fill="#fff"/>
      </g>
    </g>
    <g id="Group_147" data-name="Group 147" transform="translate(134.261 28.026)" opacity="0.55" style="mix-blend-mode: overlay;isolation: isolate">
      <path id="Path_268" data-name="Path 268" d="M281.155,79.742a80.5,80.5,0,0,0,2.648-8.477l.024-.1.106-.423a14.936,14.936,0,0,0,1.627.379c7.024,1.012,13.422-3.069,14.293-9.112s-4.121-11.762-11.143-12.774a14.682,14.682,0,0,0-4.425.071,20.63,20.63,0,0,0-5.737-9.445c-3.953-3.629-9.264-5.465-15.79-5.465-9.8,0-21.657,4.24-33.851,11.663-12.752-11.361-25.775-18.03-36.633-18.03a20.635,20.635,0,0,0-11.215,3.06c-8.382,5.285-12.06,16.727-10.5,32.369-8.473,2.551-15.171,6.208-19.688,10.737a15.518,15.518,0,0,0-1.627-.333c-7.315-1.052-13.978,3.2-14.884,9.5s4.273,12.238,11.568,13.305c.2.511.419,1.023.657,1.534l.06.126c.276.582.573,1.164.9,1.746h0c3.173,5.693,8.664,11.319,16.324,16.557,1.038.708,2.163,1.378,3.261,2.061-.45,1.213-.93,2.432-1.316,3.627-5.282,16.341-3.944,29.236,3.77,36.309,3.951,3.627,9.262,5.465,15.792,5.465,9.8,0,21.657-4.24,33.851-11.661,11.634,10.364,23.482,16.789,33.721,17.838,1.623,3.757,5.573,6.764,10.585,7.485,7.1,1.023,13.537-2.9,14.379-8.755a10.178,10.178,0,0,0-3.887-9.138c3.448-6.244,4.614-14.835,3.622-24.856,14.694-4.44,24.139-12.183,25.848-22.113C305.473,101.381,296.747,89.447,281.155,79.742Zm-18.4-41.195c5.45,0,9.82,1.471,12.981,4.37a16.3,16.3,0,0,1,4.555,7.694,10.492,10.492,0,0,0-5.878,7.736c-.606,4.213,1.671,8.23,5.465,10.642-.06.258-.112.511-.176.772-.029.117-.051.231-.082.348q-.337,1.343-.741,2.723h0c-.448,1.521-.966,3.076-1.534,4.652A135.965,135.965,0,0,0,246.663,65.3a148.277,148.277,0,0,0-14.626-16.354C243.184,42.3,253.9,38.547,262.759,38.547Zm-13.718,83.609a167.5,167.5,0,0,1-12.82,12.554,164.934,164.934,0,0,1-17.893-2.068c-4.939-.847-9.76-1.9-14.432-3.133-2.943-3.854-5.8-7.908-8.492-12.181a163.252,163.252,0,0,1-11.526-21.7,163.321,163.321,0,0,1,15.215-19.3,167.523,167.523,0,0,1,12.823-12.554A165.937,165.937,0,0,1,229.8,65.839c4.967.853,9.8,1.92,14.45,3.164,2.937,3.845,5.783,7.888,8.473,12.15a159.691,159.691,0,0,1,11.486,21.705A159.825,159.825,0,0,1,249.041,122.155Zm17.106-14.63a112.907,112.907,0,0,1,6.755,24.432,113.566,113.566,0,0,1-27.371,3.078c-1.129,0-2.277-.051-3.415-.077,3.4-3.139,6.742-6.46,9.985-9.994A171.825,171.825,0,0,0,266.148,107.525Zm-58.021,27.281c3.12.717,6.275,1.38,9.5,1.934,4.707.809,9.394,1.418,14.028,1.825a136.808,136.808,0,0,1-11.85,8.669A139.76,139.76,0,0,1,208.127,134.806Zm-10.792-7.19a125.9,125.9,0,0,1-25.081-10.68,118.169,118.169,0,0,1,8.907-17.17,168.781,168.781,0,0,0,10.728,19.776C193.648,122.332,195.476,125,197.335,127.616ZM181.946,91.065a110.567,110.567,0,0,1-6.793-24.516,113.344,113.344,0,0,1,27.455-3.1c1.127,0,2.273.051,3.408.077-3.4,3.139-6.742,6.462-9.985,9.994A169.157,169.157,0,0,0,181.946,91.065Zm58.028-27.424c-3.087-.7-6.237-1.345-9.465-1.9-4.7-.807-9.392-1.415-14.026-1.823a137.152,137.152,0,0,1,11.85-8.669A139.542,139.542,0,0,1,239.974,63.641Zm16.266,15.3c-1.748-2.769-3.565-5.424-5.41-8.021a128.4,128.4,0,0,1,24.935,10.666,121.194,121.194,0,0,1-8.814,17.027A171.512,171.512,0,0,0,256.24,78.937ZM183.273,34.6a16.579,16.579,0,0,1,9-2.419c9.511,0,21.253,6.05,32.918,16.22a145.8,145.8,0,0,0-14.677,11.116c-2.657-.134-5.3-.223-7.908-.223a118.477,118.477,0,0,0-27.978,3.067C173.387,48.73,176.408,38.93,183.273,34.6Zm-17.058,78.593c-6.5-4.442-11.286-9.1-14.234-13.742a26.079,26.079,0,0,1-1.559-2.84c5.386-.816,9.712-4.467,10.428-9.443.637-4.434-1.755-8.691-5.776-11.2,3.869-3.391,9.33-6.2,16.057-8.3a118.334,118.334,0,0,0,8.06,27.528,126.186,126.186,0,0,0-10.512,19.547C167.86,114.232,167,113.729,166.215,113.193Zm19.161,46.74c-5.454,0-9.824-1.468-12.986-4.37-6.447-5.913-7.377-17.265-2.626-31.97.293-.9.668-1.828,1-2.74a135.665,135.665,0,0,0,30.672,12.287,148.229,148.229,0,0,0,14.663,16.4C204.95,156.18,194.231,159.933,185.376,159.933Zm85.055-2.266a15.277,15.277,0,0,0-3.847-1.122c-7.1-1.023-13.537,2.9-14.379,8.755-.033.236,0,.467-.015.7-8.779-1.288-19.042-7.022-29.25-15.92a145.228,145.228,0,0,0,14.677-11.116c2.661.137,5.3.225,7.915.225a118.5,118.5,0,0,0,27.861-3.04C274.19,144.9,273.249,152.358,270.431,157.666ZM299.4,112.184c-1.391,8.109-9.615,14.617-22.281,18.59a117.506,117.506,0,0,0-8.093-27.484,125.932,125.932,0,0,0,10.5-19.434C293.162,92.52,301.015,102.772,299.4,112.184Z" transform="translate(-134.261 -28.026)" fill="#1a1d20"/>
      <path id="Path_269" data-name="Path 269" d="M185.769,53.917a15.372,15.372,0,1,0,13.369,17.45A15.544,15.544,0,0,0,185.769,53.917Z" transform="translate(-93.775 2.964)" fill="#2d1b50"/>
    </g>
  </g>
</svg>
