<svg xmlns="http://www.w3.org/2000/svg" width="1482" height="486" viewBox="0 0 1482 486">
  <g id="Group_217" data-name="Group 217" transform="translate(-220 -4268)">
    <rect id="Rectangle_77" data-name="Rectangle 77" width="1482" height="486" rx="54" transform="translate(220 4268)" fill="#df3264"/>
    <g id="Group_215" data-name="Group 215" transform="translate(220 4268)" opacity="0.18">
      <path id="Path_23" data-name="Path 23" d="M591.731,818.543c2.973-14.907,9.933-24.267,10.38-24.848a9.03,9.03,0,0,1,12.067-1.886,7.9,7.9,0,0,1,1.987,11.3c-4.315,6.172-9.954,22.861-7.325,37.535s7.092,26.538,31.482,30.929c15.476,2.782,17.006,14.665,18.113,23.339,1.234,9.529,2.761,21.4,17.507,34.395,5.805,5.124,13.242,8.951,21.113,12.989,3.908,2.01,7.988,4.109,12.023,6.485,6.067-12.9,11.081-34.977,10.663-48.162a77.241,77.241,0,0,0-16.335-45.049l-2.192-2.841.7-3.448a83.522,83.522,0,0,0,1.628-18.472,35.423,35.423,0,0,1-10.944,1.643c-16.578-.16-29.33-6.551-37.956-16.856-14.891-17.776-11.469-37.547-10.767-47.9s1.344-18.583,2.594-30.269c1.935-18.111,4.334-40.659,2.52-48.67-5.6-24.66-18.306-24.255-23.091-24.1a8.134,8.134,0,1,1-.515-16.227c11.92-.375,33.04,3.905,40.517,36.885,2.38,10.49.039,32.445-2.226,53.671-1.246,11.655-2.293,20.1-2.516,29.5s-1.746,26.717,7.132,37.1c5.573,6.516,13.812,10.047,25.348,10.648,4.184.261,13.366-3.869,18.268-12.26a46.834,46.834,0,0,0-6.948-49.517l-4.227-5.114,4.387-5.019a47.679,47.679,0,0,0,12.015-32.9,47.121,47.121,0,0,0-10.076-27.6l-3.885-4.976,4.093-4.863a47.89,47.89,0,0,0,11.456-32.387c-.912-28.78-20.776-48.269-48.3-47.4-19.007.6-33.246,8.484-41.185,26.863-19.24-5.1-41.747,11.614-46.77,28.227-5.2,17.212-2.032,37.814,19.75,63.889a81.732,81.732,0,0,0,10.243,10.317,7.761,7.761,0,0,1,.7,11.454,9.031,9.031,0,0,1-12.206.7,98.079,98.079,0,0,1-12.353-12.412C573.02,704.594,567.458,683.6,565.506,669.4c-32.891,22.485-37.123,63.861-22.142,86.613C524.153,784.933,554.02,820.316,591.731,818.543Z" transform="translate(-501.279 -593.895)" fill="#fff"/>
      <path id="Path_24" data-name="Path 24" d="M706.1,861.733a90.162,90.162,0,0,1-24.634-15.379c-19.3-17.018-21.406-33.4-22.8-44.248-1.136-8.839-1.492-8.9-4.27-9.4-14.051-2.524-23.717-7.068-30.458-12.849a65.17,65.17,0,0,1-24.1,5.54,77.477,77.477,0,0,1-40.306-10.376,7.813,7.813,0,0,1-2.361-11.26,9.02,9.02,0,0,1,11.972-2.275c.945.587,21.762,13.117,44.631,4.892-2.226-4.736-6.594-14.626-6.3-26.25-36.321.994-69.926-20.471-71.375-56.41-46.945,68.976,8.985,133.6,72.783,151.883,17.165,4.923,29.546,22.118,29.713,40.038a38.194,38.194,0,0,1-2.308,13.1A98.419,98.419,0,0,1,659,896a81.1,81.1,0,0,1-.3-23.26c.7-4.437,5.126-7.494,9.816-6.876a8.18,8.18,0,0,1,7.291,9.176c-.035.214-3.955,26.048,7.445,38.127A55.861,55.861,0,0,1,697.1,942.05a8.262,8.262,0,0,1-7.381,9.182c-.315.037-.63.068-.939.077a8.455,8.455,0,0,1-8.805-6.979c-5.114-34.634-40.645-39.442-53.206-40.7-5.675,5.771-13.987,11.27-26.244,15.361a8.89,8.89,0,0,1-2.613.467,8.6,8.6,0,0,1-8.413-5.387,8.027,8.027,0,0,1,5.293-10.373c17.2-5.75,26.612-15.645,26.5-27.862-.091-10.833-7.947-21.728-17.885-24.8-35.539-10.994-61.62-28.966-77.753-53.463C504.8,852.1,549.993,875.248,578.9,871.832c4.677-.483,9.055,2.6,9.631,7.05a8.285,8.285,0,0,1-7.554,9.061q-3.524.413-6.878.517a75.82,75.82,0,0,1-26.4-3.806c-6.8,30.122,24.014,80.346,80.31,59.69,7.051,39.487,65.262,57.748,98.821,20.233C759.84,927.663,736.93,874.7,706.1,861.733Z" transform="translate(-518.67 -499.077)" fill="#fff"/>
      <path id="Path_25" data-name="Path 25" d="M629.924,706.924a43.425,43.425,0,0,0,.632,6.017,123.518,123.518,0,0,1,19.05-20.312c1.968-1.585,3.868-3.088,5.7-4.546,18.2-14.43,27.331-21.667,25.745-45.926a8.37,8.37,0,0,1,16.676-1.03c2.112,32.144-12.062,43.383-31.666,58.931-1.8,1.433-3.671,2.911-5.6,4.466-7.336,5.915-16.65,16.608-22.618,26.88l.1.183-1.733,3.539A45.139,45.139,0,0,0,637,776.9l1.68,3.137-1.371,3.272a62.967,62.967,0,0,0-.364,48.545,73.113,73.113,0,0,1,23.774-19.466c13.761-7.239,29.783-10.625,41.524-9.09a91.865,91.865,0,0,1,65.891-31.063c.214-.006.436-.016.648-.023,14.789-.467,43.847,3.733,56.729,21.1,5.6-31.37-5.6-57.136-38.278-63.811,6.348-25.816-9.977-49.869-25.158-58.1-6.222,17.986-16.242,27.86-26.967,35.659,3.908,5.3,13.237,19.487,13.439,34.637a8.127,8.127,0,0,1-8.108,7.969c-.051,0-.1,0-.154.009a8.1,8.1,0,0,1-8.46-7.723c-.134-10.664-7.383-21.681-10.335-25.721-13.535,8.931-26.071,18.534-34.059,42.762a8.338,8.338,0,0,1-7.733,5.54,8.539,8.539,0,0,1-2.723-.339,7.739,7.739,0,0,1-5.507-9.8c10.347-31.374,28.139-42.986,43.846-53.227,13.333-8.7,24.908-16.3,31.313-35.921l1.291-6.53A51.717,51.717,0,0,0,748.9,647c-.953-30.206-27.909-53.957-60.08-52.936-32.155,1.022-57.557,26.429-56.6,56.634a51.528,51.528,0,0,0,5.719,21.995l1.972,3.852-2.39,3.656A46,46,0,0,0,629.924,706.924Z" transform="translate(-400.897 -594.034)" fill="#fff"/>
      <path id="Path_26" data-name="Path 26" d="M830.235,801.135a167.343,167.343,0,0,1-15.472,16.149,8.736,8.736,0,0,1-11.807-.19A7.512,7.512,0,0,1,803.209,806,146.81,146.81,0,0,0,820.589,787l-.128-.152,3-4.672a61.807,61.807,0,0,0,9.932-35.441c-.531-16.762-7.9-32.387-20.714-44.124-.574-.542-1.112-1.087-1.717-1.6l-.619-.551c-10.257-8.208-25.635-12.721-41.839-12.235a75.242,75.242,0,0,0-56.588,28.846l-3.77,4.716-5.866-2.063c-5.239-1.826-19.163-.986-33.694,6.656a53.444,53.444,0,0,0-27.207,33.637c-7.509,27.895,13.963,44.141,21.563,49.529,3.694,2.619,5.428,6.884,3.169,10.659a8.438,8.438,0,0,1-7.037,4.035,8.616,8.616,0,0,1-4.289-.965c-6.37-3.295-15.067-10.1-21.766-19.981a55.784,55.784,0,0,0-2.851,19.028A56.542,56.542,0,0,0,643.2,856.56l2.405,2.948c6.977,7.774,16.824,15.378,24.475,21.257,3.638,2.8,6.9,5.312,9.382,7.441,23.314,19.94,18.756,44.272,13.094,54.359a8.5,8.5,0,0,1-7.148,4.2,8.743,8.743,0,0,1-4.158-.9,7.591,7.591,0,0,1-3.5-10.537c1.05-1.954,9.489-19.19-9.569-35.5-2.312-1.978-5.341-4.3-8.719-6.9-5.819-4.474-12.791-9.876-19.229-15.806a38.187,38.187,0,0,0,4.175,24.166L646.36,905l-2.165,3.612a46,46,0,0,0-6.578,25.017c.842,26.61,24.576,47.512,52.905,46.616,19.826-.63,37.2-11.635,45.352-28.731l1.439-3.035,3.327-1.148a44.793,44.793,0,0,0,22.412-17.053,48.04,48.04,0,0,1-19.963-6.691,41.06,41.06,0,0,1-19.9-30.819c-1.2-11.622,2.382-24.623,6.288-34.747a76.813,76.813,0,0,1-21.21,3.772c-7.146.226-13.54-.65-18.147-2.4a7.674,7.674,0,0,1-4.581-10.22,8.594,8.594,0,0,1,10.9-4.336c9.331,3.537,38.809.359,48.926-17.524,10.364-18.5,13.117-28.136,9.235-37.431a21.848,21.848,0,0,0-16.4-13.3c-9.932-2.052-21.451,1.355-29.977,8.936a8.737,8.737,0,0,1-11.811-.274,7.526,7.526,0,0,1,.35-11.1,54.29,54.29,0,0,1,37.444-13.716c3.942-14.6.422-28.676.385-28.829a7.871,7.871,0,0,1,6.149-9.5,8.42,8.42,0,0,1,10.095,5.732c.2.8,4.473,17.9-.381,36.221a37.749,37.749,0,0,1,19.709,20.053c8.046,19.3-1.594,36.935-17.981,64.1-.055.1-14.22,25.021-12.357,42.994a25.056,25.056,0,0,0,12.406,19.23C798.274,937.1,852.9,862.339,830.235,801.135Z" transform="translate(-400.643 -494.34)" fill="#fff"/>
    </g>
    <g id="Group_216" data-name="Group 216" transform="translate(1541 4458.195)" opacity="0.18">
      <path id="Path_23-2" data-name="Path 23" d="M547.4,642.925a14.065,14.065,0,0,1,2.256-5.4,1.962,1.962,0,0,1,2.622-.41,1.717,1.717,0,0,1,.432,2.456,12.666,12.666,0,0,0-1.592,8.156c.571,3.188,1.541,5.767,6.841,6.721,3.363.6,3.7,3.187,3.936,5.072a10.43,10.43,0,0,0,3.8,7.474,22.218,22.218,0,0,0,4.588,2.823c.849.437,1.736.893,2.613,1.409a27.816,27.816,0,0,0,2.317-10.466,16.785,16.785,0,0,0-3.55-9.789l-.476-.617.152-.749a18.151,18.151,0,0,0,.354-4.014,7.7,7.7,0,0,1-2.378.357,10.477,10.477,0,0,1-8.248-3.663c-3.236-3.863-2.492-8.159-2.34-10.408s.292-4.038.564-6.578c.421-3.936.942-8.835.548-10.576-1.216-5.359-3.978-5.271-5.018-5.238a1.768,1.768,0,1,1-.112-3.526c2.59-.081,7.18.849,8.8,8.015.517,2.279.008,7.05-.484,11.663-.271,2.533-.5,4.368-.547,6.411s-.379,5.806,1.55,8.061a7.321,7.321,0,0,0,5.508,2.314,5.286,5.286,0,0,0,3.97-2.664,10.177,10.177,0,0,0-1.51-10.76l-.919-1.111.953-1.091a10.361,10.361,0,0,0,2.611-7.149,10.239,10.239,0,0,0-2.19-6l-.844-1.081.889-1.057A10.407,10.407,0,0,0,575,604.473c-.2-6.254-4.515-10.489-10.5-10.3-4.13.131-7.225,1.844-8.95,5.837-4.181-1.108-9.072,2.524-10.163,6.134-1.131,3.74-.442,8.217,4.292,13.883a17.752,17.752,0,0,0,2.226,2.242,1.686,1.686,0,0,1,.151,2.489,1.962,1.962,0,0,1-2.653.153,21.319,21.319,0,0,1-2.684-2.7,23.2,23.2,0,0,1-5.017-11.7c-7.147,4.886-8.067,13.877-4.812,18.821C532.717,635.621,539.207,643.31,547.4,642.925Z" transform="translate(-527.747 -594.108)" fill="#fff"/>
      <path id="Path_24-2" data-name="Path 24" d="M559.4,722.4a19.594,19.594,0,0,1-5.353-3.342,13.709,13.709,0,0,1-4.955-9.615c-.247-1.921-.324-1.933-.928-2.043a13.583,13.583,0,0,1-6.619-2.792,14.161,14.161,0,0,1-5.238,1.2,16.836,16.836,0,0,1-8.759-2.255,1.7,1.7,0,0,1-.513-2.447,1.96,1.96,0,0,1,2.6-.494,12.086,12.086,0,0,0,9.7,1.063,12.808,12.808,0,0,1-1.369-5.7c-7.893.216-15.2-4.449-15.51-12.258-10.2,14.989,1.953,29.032,15.816,33a9.288,9.288,0,0,1,6.457,8.7,8.3,8.3,0,0,1-.5,2.847,21.388,21.388,0,0,1,4.937,1.577,17.623,17.623,0,0,1-.065-5.055,1.879,1.879,0,0,1,2.133-1.494,1.777,1.777,0,0,1,1.584,1.994c-.008.047-.859,5.66,1.618,8.285a12.138,12.138,0,0,1,3.008,6.277,1.8,1.8,0,0,1-1.6,2c-.068.008-.137.015-.2.017a1.837,1.837,0,0,1-1.913-1.517c-1.111-7.526-8.832-8.571-11.562-8.844a14.029,14.029,0,0,1-5.7,3.338,1.931,1.931,0,0,1-.568.1,1.87,1.87,0,0,1-1.828-1.171,1.744,1.744,0,0,1,1.15-2.254c3.737-1.25,5.783-3.4,5.759-6.055a5.918,5.918,0,0,0-3.886-5.39c-7.723-2.389-13.39-6.294-16.9-11.618-4.532,11.85,5.289,16.88,11.57,16.138a1.872,1.872,0,0,1,2.093,1.532,1.8,1.8,0,0,1-1.641,1.969q-.766.09-1.495.112a16.478,16.478,0,0,1-5.738-.827c-1.479,6.546,5.218,17.459,17.452,12.971,1.532,8.581,14.182,12.549,21.474,4.4C571.077,736.728,566.1,725.219,559.4,722.4Z" transform="translate(-518.67 -643.595)" fill="#fff"/>
      <path id="Path_25-2" data-name="Path 25" d="M629.906,618.566a9.435,9.435,0,0,0,.137,1.308,26.842,26.842,0,0,1,4.14-4.414c.428-.344.841-.671,1.239-.988,3.956-3.136,5.939-4.708,5.595-9.98a1.819,1.819,0,0,1,3.624-.224c.459,6.985-2.621,9.427-6.881,12.806-.391.311-.8.633-1.216.97a23.308,23.308,0,0,0-4.915,5.841l.022.04-.377.769a9.809,9.809,0,0,0,.17,9.078l.365.682-.3.711a13.683,13.683,0,0,0-.079,10.549,15.888,15.888,0,0,1,5.166-4.23,16.341,16.341,0,0,1,9.023-1.975,19.963,19.963,0,0,1,14.318-6.75l.141,0c3.214-.1,9.528.811,12.327,4.585,1.217-6.817-1.217-12.416-8.318-13.866a11.875,11.875,0,0,0-5.467-12.625,15.151,15.151,0,0,1-5.86,7.749c.849,1.152,2.876,4.235,2.92,7.527a1.766,1.766,0,0,1-1.762,1.732l-.033,0a1.76,1.76,0,0,1-1.838-1.678c-.029-2.317-1.6-4.711-2.246-5.589-2.941,1.941-5.665,4.027-7.4,9.292a1.812,1.812,0,0,1-1.68,1.2,1.858,1.858,0,0,1-.592-.074,1.682,1.682,0,0,1-1.2-2.129c2.248-6.818,6.115-9.341,9.528-11.566,2.9-1.891,5.413-3.542,6.8-7.806l.281-1.419a11.243,11.243,0,0,0,.214-2.547c-.207-6.564-6.065-11.725-13.056-11.5s-12.507,5.743-12.3,12.307a11.2,11.2,0,0,0,1.243,4.78l.429.837-.519.795A9.995,9.995,0,0,0,629.906,618.566Z" transform="translate(-580.138 -594.034)" fill="#fff"/>
      <path id="Path_26-2" data-name="Path 26" d="M673.622,712.735a36.377,36.377,0,0,1-3.362,3.509,1.9,1.9,0,0,1-2.566-.041,1.632,1.632,0,0,1,.055-2.41,31.9,31.9,0,0,0,3.777-4.13l-.028-.033.652-1.015a13.35,13.35,0,0,0-2.343-17.29c-.125-.118-.242-.236-.373-.347l-.135-.12a14.113,14.113,0,0,0-9.092-2.659,16.35,16.35,0,0,0-12.3,6.268l-.819,1.025-1.275-.448c-1.139-.4-4.164-.214-7.322,1.446a11.614,11.614,0,0,0-5.912,7.309c-1.632,6.062,3.034,9.592,4.686,10.763a1.728,1.728,0,0,1,.689,2.316,1.834,1.834,0,0,1-1.529.877,1.872,1.872,0,0,1-.932-.21,13.655,13.655,0,0,1-4.73-4.342,12.123,12.123,0,0,0-.62,4.135,12.287,12.287,0,0,0,2.831,7.44l.523.641a40.736,40.736,0,0,0,5.318,4.619c.791.608,1.5,1.154,2.039,1.617,5.066,4.333,4.076,9.621,2.845,11.812a1.847,1.847,0,0,1-1.553.913,1.9,1.9,0,0,1-.9-.2,1.649,1.649,0,0,1-.76-2.29c.228-.425,2.062-4.17-2.079-7.714-.5-.43-1.161-.935-1.895-1.5-1.264-.972-2.78-2.146-4.179-3.435a8.3,8.3,0,0,0,.907,5.251l.424.805-.471.785a10,10,0,0,0-1.429,5.436c.183,5.782,5.34,10.324,11.5,10.13a11.177,11.177,0,0,0,9.855-6.243l.313-.659.723-.249a9.734,9.734,0,0,0,4.87-3.706,10.439,10.439,0,0,1-4.338-1.454,8.923,8.923,0,0,1-4.324-6.7,17.277,17.277,0,0,1,1.366-7.551,16.693,16.693,0,0,1-4.609.82,10.573,10.573,0,0,1-3.943-.523,1.668,1.668,0,0,1-1-2.221,1.867,1.867,0,0,1,2.369-.942c2.028.769,8.433.078,10.632-3.808,2.252-4.021,2.85-6.114,2.007-8.134a4.748,4.748,0,0,0-3.563-2.891,7.743,7.743,0,0,0-6.514,1.942,1.9,1.9,0,0,1-2.567-.06,1.635,1.635,0,0,1,.076-2.412,11.8,11.8,0,0,1,8.137-2.98,13.846,13.846,0,0,0,.084-6.265,1.71,1.71,0,0,1,1.336-2.065,1.83,1.83,0,0,1,2.194,1.245,17.192,17.192,0,0,1-.083,7.871,8.2,8.2,0,0,1,4.283,4.357c1.748,4.193-.346,8.026-3.907,13.929-.012.022-3.09,5.437-2.685,9.343a5.445,5.445,0,0,0,2.7,4.179C666.677,742.28,678.548,726.035,673.622,712.735Z" transform="translate(-580.27 -646.067)" fill="#fff"/>
    </g>
  </g>
</svg>
