<svg xmlns="http://www.w3.org/2000/svg" width="593.465" height="662.291" viewBox="0 0 593.465 662.291">
  <g id="Group_208" data-name="Group 208" transform="translate(-280.863 -197.462)">
    <path id="Path_421" data-name="Path 421" d="M1400.045,639.287c0,11.983-10.513,21.692-23.495,21.692-6.741,0-75.256,1.082-80.221,1.082-13.62,0-24.66-10.208-24.66-22.774,0-12.594,11.04-22.774,24.66-22.774.86,0,1.72.056,2.58.111,5.964-11.428,18.613-19.334,33.231-19.334,15.867,0,29.4,9.265,34.59,22.274a24.943,24.943,0,0,1,9.82-2C1389.532,617.567,1400.045,627.3,1400.045,639.287Z" transform="translate(-581.976 -234.85)" fill="#d2e2f5"/>
    <path id="Path_422" data-name="Path 422" d="M650.1,686.748l250.821-.236v454.516H542.878V686.513h98.24Z" transform="translate(-153.902 -287.257)" fill="#5a8dbf"/>
    <path id="Path_423" data-name="Path 423" d="M805.639,1148.185H593V727.465h316.5v420.721H805.639Z" transform="translate(-183.345 -311.311)" fill="#c0e3e9"/>
    <rect id="Rectangle_65" data-name="Rectangle 65" width="316.677" height="29.963" transform="translate(409.66 412.881)" fill="#1dae8f"/>
    <path id="Path_424" data-name="Path 424" d="M934.068,627.537H899.2a10.334,10.334,0,0,1-10.331-10.331v-7.334a18.806,18.806,0,0,0-18.811-18.811h-.388a18.818,18.818,0,0,0-18.811,18.811v7.334a10.323,10.323,0,0,1-10.331,10.331H805.651a3.145,3.145,0,0,0-3.138,3.138v7.687a14.928,14.928,0,0,0,14.933,14.932H922.274a14.927,14.927,0,0,0,14.932-14.932v-7.687A3.145,3.145,0,0,0,934.068,627.537Zm-56.4-15.021a7.911,7.911,0,1,1-15.444-3.332,7.822,7.822,0,0,1,5.4-5.5A7.927,7.927,0,0,1,877.67,612.517Z" transform="translate(-306.405 -231.191)" fill="#f7af4d"/>
    <path id="Path_425" data-name="Path 425" d="M952.625,636.149a9.175,9.175,0,0,1-7.3-3.569,9.281,9.281,0,0,1-1.62-8.055,9.168,9.168,0,0,1,6.318-6.451,9.237,9.237,0,0,1,11.7,10.312,9.2,9.2,0,0,1-7.678,7.657A9.652,9.652,0,0,1,952.625,636.149Zm0-15.79a7.036,7.036,0,0,0-1.889.263,6.48,6.48,0,0,0-4.467,4.559,6.653,6.653,0,0,0,1.148,5.777,6.574,6.574,0,1,0,5.208-10.6Z" transform="translate(-389.159 -246.854)" fill="#2b2150"/>
    <g id="Group_200" data-name="Group 200" transform="translate(429.201 471.985)">
      <path id="Rectangle_66" data-name="Rectangle 66" d="M10.606,0H45.153A10.606,10.606,0,0,1,55.759,10.606V45.153A10.606,10.606,0,0,1,45.153,55.759H10.605A10.605,10.605,0,0,1,0,45.153V10.606A10.606,10.606,0,0,1,10.606,0Z" transform="translate(1.322 1.322)" fill="#edf6f7"/>
      <path id="Path_426" data-name="Path 426" d="M693.068,921.176H646.062a5.706,5.706,0,0,1-5.7-5.7V868.472a5.706,5.706,0,0,1,5.7-5.7h47.006a5.7,5.7,0,0,1,5.7,5.7v47.005A5.705,5.705,0,0,1,693.068,921.176Zm-47.006-55.759a3.058,3.058,0,0,0-3.054,3.054v47.005a3.058,3.058,0,0,0,3.054,3.054h47.006a3.057,3.057,0,0,0,3.053-3.054V868.472a3.057,3.057,0,0,0-3.053-3.054Z" transform="translate(-640.363 -862.773)" fill="#2b2150"/>
    </g>
    <path id="Path_427" data-name="Path 427" d="M694.639,904.562a3.531,3.531,0,0,1-3.2-2.019L681.153,880.27c-1.858-4.024,4.492-7.093,6.4-2.956l8.047,17.43,30.061-33.234c3.04-3.361,8.3,1.34,5.231,4.731L697.254,903.43A3.454,3.454,0,0,1,694.639,904.562Z" transform="translate(-234.923 -389.366)" fill="#e6325c"/>
    <g id="Group_201" data-name="Group 201" transform="translate(430.523 593.219)">
      <path id="Rectangle_67" data-name="Rectangle 67" d="M10.606,0H45.152A10.606,10.606,0,0,1,55.759,10.606V45.153A10.605,10.605,0,0,1,45.153,55.759H10.605A10.605,10.605,0,0,1,0,45.153V10.606A10.606,10.606,0,0,1,10.606,0Z" fill="#edf6f7"/>
    </g>
    <g id="Group_202" data-name="Group 202" transform="translate(430.523 713.13)">
      <path id="Rectangle_68" data-name="Rectangle 68" d="M10.605,0H45.153A10.606,10.606,0,0,1,55.759,10.606V45.153A10.606,10.606,0,0,1,45.153,55.758H10.605A10.605,10.605,0,0,1,0,45.153V10.605A10.605,10.605,0,0,1,10.605,0Z" fill="#edf6f7"/>
    </g>
    <path id="Path_428" data-name="Path 428" d="M693.068,1502.39H646.062a5.706,5.706,0,0,1-5.7-5.7v-47.005a5.706,5.706,0,0,1,5.7-5.7h47.006a5.7,5.7,0,0,1,5.7,5.7v47.005A5.7,5.7,0,0,1,693.068,1502.39Zm-47.006-55.758a3.058,3.058,0,0,0-3.054,3.054v47.005a3.058,3.058,0,0,0,3.054,3.054h47.006a3.057,3.057,0,0,0,3.053-3.054v-47.005a3.057,3.057,0,0,0-3.053-3.054Z" transform="translate(-211.162 -732.18)" fill="#2b2150"/>
    <path id="Path_429" data-name="Path 429" d="M694.62,1487.362a3.526,3.526,0,0,1-3.2-2.026l-10.285-22.273c-1.9-4.12,4.487-7.1,6.4-2.956l8.048,17.429,30.061-33.233c3.026-3.345,8.293,1.343,5.231,4.731l-33.641,37.19A3.465,3.465,0,0,1,694.62,1487.362Z" transform="translate(-234.904 -731.69)" fill="#e6325c"/>
    <path id="Path_430" data-name="Path 430" d="M1252.8,444.541v.018a8.584,8.584,0,0,1-.582,3.015,7.476,7.476,0,0,1-4.707,4.337l-2.944,1.005-8.991,3.05-.688.247-.846.282-.212,3.1,1.058,2.292.688,1.48,6.717,14.545c5.818,14.174,1.216,31.752-8.145,37.375-.017.018-.035.036-.053.036a.541.541,0,0,1-.141.071c-.018.018-.018.018-.036.018a8.182,8.182,0,0,1-1.163.617l-.318,9.414h-64.279l-.317-10.331c-9.15-5.835-13.61-23.183-7.828-37.2l8.55-18.476-17.877-2.944a9.544,9.544,0,0,1-8.744-13.364l4.8-11v-.018l.917-2.063,18.494-36.706v-.035a12.1,12.1,0,0,1,7.951-5.483c4.761-.758,8.445-1.34,8.445-1.34,0,2.521,6.929,10.455,18.3,10.173a22.562,22.562,0,0,0,11.353-3.173,14.785,14.785,0,0,0,1.64-1.111,17.687,17.687,0,0,0,3.738-3.7,6.8,6.8,0,0,0,.987-2.186l6.594,1.34c4.883.846,7,2.874,9.273,6.153,0,0,.652,1.34,1.746,3.791.106.247.212.494.335.758.106.247.229.511.353.776,3.79,8.409,11.036,25.317,15.2,40.179A17.744,17.744,0,0,1,1252.8,444.541Z" transform="translate(-505.302 -111.028)" fill="#2d1b50"/>
    <path id="Path_431" data-name="Path 431" d="M1254.947,845.661l-.952,22.39c-.388,5.536-5.113,9.714-8.956,8.6l-8.921-2.609c-3.473-1.022-5.307-5.906-4.02-10.736l7.1-26.868.141.67.018,6.876c0,4.337,2.591,7.88,6.153,8.427l.141.018C1249.446,853.013,1253.748,850.033,1254.947,845.661Z" transform="translate(-558.491 -375.321)" fill="#1dae8f"/>
    <path id="Path_432" data-name="Path 432" d="M1306.546,872.948l-9.044,3.015c-3.879,1.287-8.445-2.68-8.621-8.181l-.053-24.823.159-3.6.106,4.231c.759,4.936,5.466,8.48,9.538,7.845l.141-.018c3.561-.546,6.153-4.09,6.153-8.427v-6.065l.159-.916,5.923,26C1312.082,866.777,1310.055,871.767,1306.546,872.948Z" transform="translate(-592.055 -375.07)" fill="#1dae8f"/>
    <path id="Path_433" data-name="Path 433" d="M1276.374,723.257l-8.392,47.442v6.065c0,4.337-2.592,7.881-6.153,8.427l-.141.018c-4.072.635-8.779-2.909-9.538-7.845l-.106-4.232-.229,4.972c-.758,4.936-5.448,8.48-9.538,7.845l-.141-.018c-3.561-.546-6.153-4.09-6.153-8.427l-.018-6.876-10.031-47.372Z" transform="translate(-555.113 -308.84)" fill="#f5ae9e"/>
    <path id="Path_434" data-name="Path 434" d="M1469.491,1759.614s-3.95.264-7.757.423l-42.612,2.31c-5.8.247-9.661.529-9.661.529a25.5,25.5,0,0,1-.265-3.314l-20.663.036c-5.8-.053-9.679.017-9.679.017s-1.886-16.1,9.361-14.4c7.352,1.11,22.566-6.682,22.566-6.682a1.127,1.127,0,0,1,.265.035c1.04.141,5.06,1.058,11.477,6.312,2.521,2.045,16.52.617,17.719-4.724a4.282,4.282,0,0,1,.476.035c1.287.177,5.254,1.075,11.583,5.695,2.627,1.922,11.442-.723,12.377-6.1l-.071-.494a4.741,4.741,0,0,1,2.1,2.01C1471.183,1748.507,1469.491,1759.614,1469.491,1759.614Z" transform="translate(-644.865 -905.187)" fill="#4b3584"/>
    <path id="Path_435" data-name="Path 435" d="M1485.862,1735.257c-1.6,3.4-15.2,6.77-17.718,4.725-7.334-5.994-11.53-6.347-11.742-6.347l.952-3.1,19.375-.335.265,3.28,7.827-.652Z" transform="translate(-690.484 -900.293)" fill="#f5ae9e"/>
    <path id="Path_436" data-name="Path 436" d="M1516.375,1305.253a139.329,139.329,0,0,1-4.619,13.363l.106,20.8-38.539-49.629c.969-.723,1.992-1.516,3-2.327a74.6,74.6,0,0,0,25.247-2.591c3.631-.952,13.222-7.158,13.222-7.158l.053-.335a54.816,54.816,0,0,1,3.332,12.57C1518.914,1294.693,1517.608,1301.25,1516.375,1305.253Z" transform="translate(-700.423 -634.319)" fill="#2bb19e"/>
    <path id="Path_437" data-name="Path 437" d="M1507.166,1588.257l-33.585,2.821-.265-3.279-21.226.37-1.164-73.411-.335-26.992,53.19,68.493Z" transform="translate(-687.071 -757.894)" fill="#2bb19e"/>
    <path id="Path_438" data-name="Path 438" d="M1257.007,1250.921c-.353.211-.564.335-.564.335-5.007,3.879-14.034.353-17.031-4.513-1.11-1.974,2.662-6.347,6.594-10Z" transform="translate(-562.913 -610.451)" fill="#f5ae9e"/>
    <path id="Path_439" data-name="Path 439" d="M1552.234,1735.639c-.934,5.377-9.749,8.021-12.377,6.1-7.792-5.695-11.988-5.73-12.058-5.73l.635-2.574,23.218-1.957Z" transform="translate(-732.421 -901.045)" fill="#f5ae9e"/>
    <path id="Path_440" data-name="Path 440" d="M1471.339,1092.575c.194,3.367-3.209,7.81-3.209,7.81l-6.752,6.011-3.685,21.967s-9.591,6.206-13.222,7.158a74.59,74.59,0,0,1-25.246,2.591c3.35-2.715,6.47-5.694,6.7-7.528l-10.49-13.54a11.927,11.927,0,0,0-6.259.37,32.1,32.1,0,0,1-5.976,1.34,11.343,11.343,0,0,1-2.169.071c.159-6.787.794-12.429.794-12.429l-9.837,2.169-15.867-20.063,12.235-3.667s12.782-51.479,19.975-56.4a15.263,15.263,0,0,1,10.736-2.4c-.07,1.076-.159,1.992-.247,2.644a1.179,1.179,0,0,0,.952,1.323c1.357.264,2.186.194,6.135-.176,3.244-.3,13.857-4.372,16.449-6.717.37.265.793.582,1.27.935.194-.582.3-.9.3-.9l9.8,6.7c4.178,2.256,5.042,4.6,5.183,7.493C1459.579,1050.351,1471.127,1088.626,1471.339,1092.575Z" transform="translate(-643.328 -484.968)" fill="#f7af4d"/>
    <path id="Path_441" data-name="Path 441" d="M1211.633,1038.434a8.814,8.814,0,0,0-8.321,1.358l-.141.123a8.8,8.8,0,0,0-2.574,10.684l-.176.141a8.823,8.823,0,0,0-11-.141l-.141.106a8.808,8.808,0,0,0-2.592,10.7l-.159.123a8.848,8.848,0,0,0-11.019-.141l-.141.106a8.754,8.754,0,0,0-3.35,7.774l-11.071-43.458,11.371-8.85Z" transform="translate(-516.941 -481.355)" fill="#f8c180"/>
    <path id="Path_442" data-name="Path 442" d="M1145.085,1002.152l-10.408-26.029,22.639,16.532Z" transform="translate(-501.51 -457.368)" fill="#e6325c"/>
    <path id="Path_443" data-name="Path 443" d="M1239.519,1129.36l-16.333-21.034a8.83,8.83,0,0,1,1.559-12.391l.141-.109a8.83,8.83,0,0,1,12.39,1.559l174.234,224.39-14.09,10.941-152.811-197.189Z" transform="translate(-552.409 -526.588)" fill="#e73680"/>
    <path id="Path_444" data-name="Path 444" d="M1224.817,1150.89l153,197.046-14.09,10.941L1189.5,1134.487a8.83,8.83,0,0,1,1.559-12.39l.141-.11a8.831,8.831,0,0,1,12.391,1.559l16.333,21.035Z" transform="translate(-532.619 -541.954)" fill="#cc156b"/>
    <path id="Path_445" data-name="Path 445" d="M1445.2,1295.614l-14.091,10.941-174.234-224.389a8.83,8.83,0,0,1,1.559-12.391l.141-.109a8.83,8.83,0,0,1,12.39,1.559Z" transform="translate(-572.198 -511.222)" fill="#cc156b"/>
    <path id="Path_446" data-name="Path 446" d="M449.553,1758.346h-68.3a38.943,38.943,0,0,1-.617-4.954l-33.885.459s-2.768-12.464,1.763-20.98a5.291,5.291,0,0,1,2.222-2.451l-.035.565c1.463,6.029,11.653,8.356,14.474,5.976,7.281-6.1,11.812-7.193,12.958-7.369a1.23,1.23,0,0,1,.282-.035s3.1,1.533,7.334,3.191l-.247,2.786c1.393,6.064,11.548,8.5,14.4,6.17,7.352-5.976,11.9-7.052,13.046-7.21a1.326,1.326,0,0,1,.282-.035s17.3,8.815,25.651,7.546C451.669,1740.046,449.553,1758.346,449.553,1758.346Z" transform="translate(-38.21 -899.917)" fill="#f7af4d"/>
    <path id="Path_447" data-name="Path 447" d="M385.229,1725.014c-.194,0-4.919.423-13.24,7.4-2.821,2.38-13.011.053-14.474-5.976l.335-4.619,26.886,1.675Z" transform="translate(-45.024 -895.374)" fill="#f5ae9e"/>
    <path id="Path_448" data-name="Path 448" d="M437.194,1403.416,424.236,1489.8l-37.869.758,9.608-88.044-4.108-16.061-2.927,16.96-8.18,83.372-31.364-1.957,4.179-82.315,2.327-83.778s12.517,18.617,66.2,5.924Z" transform="translate(-40.255 -658.612)" fill="#e73680"/>
    <path id="Path_449" data-name="Path 449" d="M695.277,1096.028a176.277,176.277,0,0,1-17.63,7.793l-12.8-12.253a18.7,18.7,0,0,1,3.332-5.677c.97-.9,5.43-5.254,5.941-7.987.282-1.48.952-1.9,3.191-1.34.741.176,1.9,2.732,1.781,3.7a34.08,34.08,0,0,1-1.375,4.495c3.4-1.8,21.1-8,23.271-4.989C703.934,1084.322,702.012,1093.419,695.277,1096.028Z" transform="translate(-225.544 -516.223)" fill="#f5ae9e"/>
    <path id="Path_450" data-name="Path 450" d="M489,944.463c.194.582-2.644,2.521-4.918,2.891-.882,11.477-6.259,20.663-19.922,20.575a21,21,0,0,1-2.327-.124c.053,1.6.106,3.261.194,4.778-8.022-.723-17.312-1.534-24.911-.969.758-1.2,3.191-8.286,4.32-11.178,1.216.546,6.505,1.586,7.863.423,2.1-1.816,4.76-4.566,5.078-7.845a6,6,0,0,0-1.093-3.949c-2.874-4.284-4.689-8.8-.864-10.313a6.556,6.556,0,0,1,6.594,1.9c1.446,1.851,4.478-3.544,3.738-7.069-1.129-5.271-1.129-5.271-4.125-9.556l9.22,2.362c4.425.529,9.626,1.71,13.98-.158.546,1.992,1.005,4.161,1.41,6.488a3.391,3.391,0,0,0,.617,1.693Z" transform="translate(-91.778 -426.769)" fill="#f5ae9e"/>
    <path id="Path_451" data-name="Path 451" d="M506.917,971.179a5.624,5.624,0,1,0,5.624-5.625A5.624,5.624,0,0,0,506.917,971.179Z" transform="translate(-132.779 -451.159)" fill="#ee7e94"/>
    <path id="Path_452" data-name="Path 452" d="M447.394,891.453c5.093.612,11.218,2.093,15.881-1.2a17.664,17.664,0,0,0,3.292-3.566,10.1,10.1,0,0,0-5.819-15.811s-10.47-5.509-13.137-5.876c-14.9-2.052-28.686,3.366-30,9.348-6.292,1.588-15.1,8.459-15.3,22.953-.29,21.259,13.9,26.324,18.678,28.2,1.656.652,6.508,1.587,7.856.425,2.107-1.816,4.767-4.565,5.084-7.843a6.115,6.115,0,0,0-1.085-3.961c-2.883-4.281-4.7-8.786-.877-10.312a6.587,6.587,0,0,1,6.6,1.906c1.453,1.853,4.486-3.547,3.737-7.066-1.121-5.263-1.121-5.263-4.124-9.559Z" transform="translate(-71.332 -391.836)" fill="#1dae8f"/>
    <path id="Path_453" data-name="Path 453" d="M528.223,943.185a.882.882,0,0,1-.479-1.623c.267-.172,2.669-1.673,4.57-1.2a.881.881,0,0,1-.422,1.712c-1-.248-2.681.638-3.192.968A.881.881,0,0,1,528.223,943.185Z" transform="translate(-144.775 -436.309)" fill="#2b2150"/>
    <path id="Path_454" data-name="Path 454" d="M454.895,1069.512l-30.2,23.06-27.679-48.765a12.523,12.523,0,0,0-7.669-3.455c-10.049-.864-23.025-2.274-32.192-.846l-5.325.846c-4.337,1.287-7.88,4.125-11.089,8.374a.06.06,0,0,1-.035.018c-.635.828-3.614,5.589-3.614,5.589h-.018L308.3,1102.075a7.117,7.117,0,0,0,.864,7.775l25.952,31.911-3.808,12.605s12.517,18.617,66.2,5.924c.282,0,.3-39.016,4.39-60.823h0l14.968,18.053a11.014,11.014,0,0,0,15.426-1.428l36.3-33.462Zm-122.458,36.212,8.075-14.756.617,26.287Z" transform="translate(-15.661 -494.238)" fill="#313b84"/>
    <path id="Path_455" data-name="Path 455" d="M483.271,972.543a.878.878,0,0,1-.667-.306,15.247,15.247,0,0,0-2.71-2.684.815.815,0,0,1-.763-.913.942.942,0,0,1,1-.821c.361.019,1.035.053,3.81,3.266a.882.882,0,0,1-.668,1.457Z" transform="translate(-116.457 -452.49)" fill="#2b2150"/>
    <path id="Path_456" data-name="Path 456" d="M534.866,953.706a1.323,1.323,0,0,1-1.323-1.322v-2.044a1.322,1.322,0,1,1,2.645,0v2.044A1.323,1.323,0,0,1,534.866,953.706Z" transform="translate(-148.419 -441.446)" fill="#2b2150"/>
    <path id="Path_457" data-name="Path 457" d="M988.771,907.756H833.017a1.322,1.322,0,0,1,0-2.644H988.771a1.322,1.322,0,1,1,0,2.644Z" transform="translate(-323.546 -415.657)" fill="#2b2150"/>
    <path id="Path_458" data-name="Path 458" d="M988.771,940.339H833.017a1.322,1.322,0,0,1,0-2.644H988.771a1.322,1.322,0,1,1,0,2.644Z" transform="translate(-323.546 -434.796)" fill="#2b2150"/>
    <path id="Path_459" data-name="Path 459" d="M988.771,1298.795H833.017a1.323,1.323,0,0,1,0-2.645H988.771a1.323,1.323,0,1,1,0,2.645Z" transform="translate(-323.546 -645.344)" fill="#2b2150"/>
    <path id="Path_460" data-name="Path 460" d="M988.771,1331.378H833.017a1.322,1.322,0,0,1,0-2.644H988.771a1.322,1.322,0,1,1,0,2.644Z" transform="translate(-323.546 -664.483)" fill="#2b2150"/>
    <path id="Path_461" data-name="Path 461" d="M988.771,1467.009H833.017a1.322,1.322,0,0,1,0-2.645H988.771a1.322,1.322,0,1,1,0,2.645Z" transform="translate(-323.546 -744.149)" fill="#2b2150"/>
    <path id="Path_462" data-name="Path 462" d="M988.771,1499.591H833.017a1.322,1.322,0,0,1,0-2.644H988.771a1.322,1.322,0,1,1,0,2.644Z" transform="translate(-323.546 -763.287)" fill="#2b2150"/>
    <path id="Path_463" data-name="Path 463" d="M988.771,1538.4H833.017a1.322,1.322,0,0,1,0-2.645H988.771a1.322,1.322,0,1,1,0,2.645Z" transform="translate(-323.546 -786.085)" fill="#2b2150"/>
    <path id="Path_464" data-name="Path 464" d="M964.661,1173.62H833.017a1.322,1.322,0,0,1,0-2.645H964.661a1.322,1.322,0,0,1,0,2.645Z" transform="translate(-323.546 -571.819)" fill="#2b2150"/>
    <path id="Path_465" data-name="Path 465" d="M624.346,450.464c0,11.983-10.513,21.692-23.495,21.692a24.341,24.341,0,0,1-17.087-6.8,39.042,39.042,0,0,1-49.709,4.189,25.9,25.9,0,0,1-13.426,3.689c-13.62,0-24.66-10.208-24.66-22.774,0-12.594,11.04-22.774,24.66-22.774.86,0,1.72.056,2.58.111,5.964-11.428,18.613-19.334,33.231-19.334,15.867,0,29.4,9.265,34.591,22.274a24.941,24.941,0,0,1,9.82-2C613.833,428.744,624.346,438.481,624.346,450.464Z" transform="translate(-126.349 -123.939)" fill="#b5c7e8"/>
    <path id="Path_466" data-name="Path 466" d="M859.791,387.849c0,10.2-8.953,18.472-20.008,18.472a20.729,20.729,0,0,1-14.551-5.787A33.247,33.247,0,0,1,782.9,404.1a22.051,22.051,0,0,1-11.433,3.142c-11.6,0-21-8.693-21-19.394,0-10.724,9.4-19.394,21-19.394.732,0,1.464.047,2.2.094,5.079-9.732,15.85-16.464,28.3-16.464,13.512,0,25.04,7.89,29.457,18.969a21.234,21.234,0,0,1,8.362-1.7C850.839,369.353,859.791,377.644,859.791,387.849Z" transform="translate(-275.835 -90.822)" fill="#9aaeda"/>
    <path id="Path_467" data-name="Path 467" d="M425.8,969.4a.879.879,0,0,1-.761-.436,23.809,23.809,0,0,1-2.356-5.535.881.881,0,1,1,1.7-.482,22.1,22.1,0,0,0,2.181,5.126.882.882,0,0,1-.759,1.327Z" transform="translate(-83.28 -449.254)" fill="#2b2150"/>
    <path id="Path_468" data-name="Path 468" d="M421.4,923.012a.881.881,0,0,1-.879-.826,23.846,23.846,0,0,1,.5-6.634,24.3,24.3,0,0,1,9.726-14.568.882.882,0,1,1,1.009,1.446,22.515,22.515,0,0,0-9.014,13.5,22.124,22.124,0,0,0-.457,6.145.881.881,0,0,1-.824.935Z" transform="translate(-82 -413.14)" fill="#2b2150"/>
    <path id="Path_469" data-name="Path 469" d="M1468.923,1027.883a18.412,18.412,0,0,1,3.656-1.763,6.372,6.372,0,0,0-.505,1.763Z" transform="translate(-697.839 -486.734)" fill="#fac88f"/>
    <path id="Path_470" data-name="Path 470" d="M1536.566,1027.883h-4.99c.952-.459,1.27-1.552,2.292-1.763h.194A6.436,6.436,0,0,1,1536.566,1027.883Z" transform="translate(-734.64 -486.734)" fill="#fac88f"/>
    <path id="Path_471" data-name="Path 471" d="M1496.688,1042.794h-45.309a20.322,20.322,0,0,1,1.375-1.763h10.93a1.972,1.972,0,0,0,.9.318,21.7,21.7,0,0,0,7.81-.318h22.037C1495.243,1041.648,1495.983,1042.23,1496.688,1042.794Z" transform="translate(-687.534 -495.493)" fill="#fac88f"/>
    <path id="Path_472" data-name="Path 472" d="M1497.559,1057.748h-54.512c.246-.6.511-1.181.811-1.763h52.608A8.168,8.168,0,0,1,1497.559,1057.748Z" transform="translate(-682.64 -504.276)" fill="#fac88f"/>
    <path id="Path_473" data-name="Path 473" d="M1495.521,1072.7h-57.686c.194-.582.388-1.164.582-1.763h56.751C1495.256,1071.469,1495.379,1072.068,1495.521,1072.7Z" transform="translate(-679.578 -513.06)" fill="#fac88f"/>
    <path id="Path_474" data-name="Path 474" d="M1494.073,1087.658h-61.194c.194-.582.405-1.164.6-1.763h60.154C1493.773,1086.476,1493.914,1087.058,1494.073,1087.658Z" transform="translate(-676.667 -521.845)" fill="#fac88f"/>
    <path id="Path_475" data-name="Path 475" d="M1492.808,1102.612h-64.843c.177-.582.37-1.164.582-1.763h63.785C1492.491,1101.466,1492.649,1102.048,1492.808,1102.612Z" transform="translate(-673.781 -530.628)" fill="#fac88f"/>
    <path id="Path_476" data-name="Path 476" d="M1491.562,1117.566h-68.51c.193-.582.387-1.164.582-1.763h67.47C1491.245,1116.332,1491.4,1116.931,1491.562,1117.566Z" transform="translate(-670.895 -539.412)" fill="#fac88f"/>
    <path id="Path_477" data-name="Path 477" d="M1490.88,1132.478h-71.608c.192-.6.367-1.181.559-1.763h70.6C1490.586,1131.3,1490.741,1131.9,1490.88,1132.478Z" transform="translate(-668.675 -548.171)" fill="#fac88f"/>
    <path id="Path_478" data-name="Path 478" d="M1489.91,1147.432h-75.043c.175-.6.351-1.181.526-1.763h74.1C1489.647,1146.321,1489.788,1146.92,1489.91,1147.432Z" transform="translate(-666.087 -556.955)" fill="#fac88f"/>
    <path id="Path_479" data-name="Path 479" d="M1489.323,1162.39H1411.5c.053-.617.105-1.216.158-1.763h77.343C1489.076,1161.226,1489.2,1161.808,1489.323,1162.39Z" transform="translate(-664.112 -565.74)" fill="#fac88f"/>
    <path id="Path_480" data-name="Path 480" d="M1479.269,1177.341h-87.341c1.917-.618,3.887-1.287,5.259-1.764h81.806C1479.115,1176.159,1479.2,1176.741,1479.269,1177.341Z" transform="translate(-652.614 -574.522)" fill="#fac88f"/>
    <path id="Path_481" data-name="Path 481" d="M1476.194,1190.532c0,.6-.017,1.181-.07,1.763h-87.632c-.437-.582-.874-1.181-1.329-1.763Z" transform="translate(-649.815 -583.306)" fill="#fac88f"/>
    <path id="Path_482" data-name="Path 482" d="M1482.046,1205.486c-.017.053-.052.124-.07.194,0,0-.767.582-1.987,1.569h-79.708c-.436-.582-.871-1.181-1.324-1.763Z" transform="translate(-656.742 -592.09)" fill="#fac88f"/>
    <path id="Path_483" data-name="Path 483" d="M1481.845,1220.4a9.292,9.292,0,0,0-1.575,1.763h-67.852c-.433-.582-.883-1.181-1.316-1.763Z" transform="translate(-663.876 -600.848)" fill="#fac88f"/>
    <path id="Path_484" data-name="Path 484" d="M1515.444,1250.307c-.071.564-.141,1.146-.194,1.763h-39.615c-.106-.159-.211-.317-.3-.476a6.825,6.825,0,0,0-.97-1.287Z" transform="translate(-701.036 -618.416)" fill="#fac88f"/>
    <path id="Path_485" data-name="Path 485" d="M1494.847,1235.353c-.1.458-.226,1.058-.364,1.763h-55.425c-.035-.582-.052-1.181-.069-1.763Z" transform="translate(-680.256 -609.633)" fill="#fac88f"/>
    <path id="Path_486" data-name="Path 486" d="M1521.4,1265.261c0,.405-.035,1.075-.106,1.763h-34.5c-.476-.564-.97-1.163-1.446-1.763Z" transform="translate(-707.486 -627.2)" fill="#fac88f"/>
    <path id="Path_487" data-name="Path 487" d="M1526.013,1280.215c-.86.617-1.755,1.216-2.666,1.763h-25.026a11.277,11.277,0,0,0-.5-1.763Z" transform="translate(-714.814 -635.984)" fill="#fac88f"/>
    <path id="Path_488" data-name="Path 488" d="M1508.811,1295.17a47.665,47.665,0,0,1-5.57,1.763h-13.834a4.871,4.871,0,0,0,.77-.458,5.673,5.673,0,0,0,.753-1.3Z" transform="translate(-709.87 -644.768)" fill="#fac88f"/>
    <path id="Path_489" data-name="Path 489" d="M1449.836,1263.912c-.547,4.09-15.25,13.787-15.321,13.839-4.584,4.373-13.927,1.764-17.4-2.786-1.534-2.186,3.42-8.445,7.546-12.764.987-1.04,1.939-1.974,2.733-2.7a15.867,15.867,0,0,1,1.675-1.428s-.759-.106-1.71-.265c-.9-.159-1.957-.352-2.68-.564-.141-.035-.247-.071-.353-.106-.97-.352-3.068-2.486-3.015-3.173.158-2.1.758-2.469,2.274-2.01a6.551,6.551,0,0,0,.881.177,12.228,12.228,0,0,0,2.645-.053,32.1,32.1,0,0,0,5.976-1.34,11.927,11.927,0,0,1,6.259-.37Z" transform="translate(-667.24 -618.295)" fill="#f5ae9e"/>
    <path id="Path_490" data-name="Path 490" d="M1376.06,1178.04l-.582.176a8.233,8.233,0,0,0,1.463,2.327l.864-.264Z" transform="translate(-642.951 -575.969)" fill="#2b2150"/>
    <path id="Path_491" data-name="Path 491" d="M1476.583,1046.152c-2.569,0-5.184-.625-6.6-2.77a.882.882,0,0,1,1.471-.973c2.144,3.241,9.136,1.717,11.649.853a.882.882,0,0,1,.573,1.667A24.539,24.539,0,0,1,1476.583,1046.152Z" transform="translate(-698.374 -496.069)" fill="#2b2150"/>
    <path id="Path_492" data-name="Path 492" d="M1484.154,886.864c-.6,6.805-.846,10.983-5.818,15.832-4.46,4.337-8.374,4.337-8.568,4.337h-.018c-2.679-1.9-.987-6.717-.987-6.717,2.468-2.821,5.995-8.2,1.041-9.82-2.08-.512-3.967.458-5.748,2.345-1.622,1.71-4.6-1.129-3.684-4.355.987-3.438,1.375-6.8,3.262-9.767a19.932,19.932,0,0,0,2.909-1.763l-2.909,1.763c-4.778,2.4-10.737,3.4-15.779,3.914a72.03,72.03,0,0,1-10.631.758c-.212,0-.423-.018-.635-.035-.388-.018-.758-.07-1.128-.106a14.126,14.126,0,0,1-5.324-1.728,15.821,15.821,0,0,1-2.116-1.5,65.617,65.617,0,0,0-2.1,8.779,35.491,35.491,0,0,0-.458,4.038,6.284,6.284,0,0,1-1.763-1.375,12.382,12.382,0,0,1-2.662-7.687,20.811,20.811,0,0,1,2.363-10.631,11.366,11.366,0,0,1-.529-3.614,6.576,6.576,0,0,1,.547-2.732c1.6-3.491,4.831-7.1,9.961-7.158a8.784,8.784,0,0,1,3.843,1.322,56.673,56.673,0,0,1,10.384-2.8,35.227,35.227,0,0,1,12.305.317c5.889,1.075,11.9,5.395,13.364,10.93C1480.294,870.873,1484.771,880.058,1484.154,886.864Z" transform="translate(-669.701 -387.84)" fill="#313b84"/>
    <path id="Path_493" data-name="Path 493" d="M1470.134,943.893c.071.106.123.212.194.317.529.793,4.125,11.583,4.654,11.583-2.538,2.345-13.222,6.453-16.484,6.753-3.949.37-4.778.441-6.135.176a1.179,1.179,0,0,1-.952-1.322c.264-1.921.458-6.188.564-9.96a15.1,15.1,0,0,1-2.187-.229c-12.464-2.186-20.363-16.731-17.648-32.563a65.6,65.6,0,0,1,2.1-8.779,15.819,15.819,0,0,0,2.115,1.5c5.2,3.033,12.042,1.675,17.719,1.111,5.042-.511,11-1.516,15.779-3.914-1.886,2.962-2.274,6.329-3.261,9.767-.917,3.226,2.063,6.065,3.684,4.355,1.781-1.887,3.667-2.856,5.748-2.344,4.954,1.622,1.428,7-1.041,9.82,0,0-1.692,4.813.987,6.717h.018A34.792,34.792,0,0,1,1470.134,943.893Z" transform="translate(-675.92 -417.684)" fill="#f5ae9e"/>
    <path id="Path_494" data-name="Path 494" d="M1439.714,956a5.209,5.209,0,0,1-5.2,5.2,3.721,3.721,0,0,1-.818-.075,31.933,31.933,0,0,1-1.918-9.544,5.033,5.033,0,0,1,2.736-.788A5.2,5.2,0,0,1,1439.714,956Z" transform="translate(-676.019 -442.491)" fill="#ee7e94"/>
    <path id="Path_495" data-name="Path 495" d="M1458.991,947.375a9.713,9.713,0,0,1-3.677-.9,2.592,2.592,0,0,1-1.48-2.978l2.559-10.775a1.322,1.322,0,0,1,2.572.611l-2.557,10.774c1.574.646,2.92.755,3.3.461a1.322,1.322,0,1,1,1.641,2.073A3.705,3.705,0,0,1,1458.991,947.375Z" transform="translate(-688.934 -431.278)" fill="#2b2150"/>
    <path id="Path_496" data-name="Path 496" d="M1463.068,981.325a8.392,8.392,0,0,1-2.058-.265c-2.081-.527-4.464-1.994-4.78-3.974a1.322,1.322,0,1,1,2.611-.417,4.132,4.132,0,0,0,2.816,1.828,4.306,4.306,0,0,0,4.584-1.306,1.322,1.322,0,0,1,2.1,1.608A6.484,6.484,0,0,1,1463.068,981.325Z" transform="translate(-690.374 -457.034)" fill="#2b2150"/>
    <path id="Path_497" data-name="Path 497" d="M1447.532,939.527a1.323,1.323,0,0,1-1.323-1.323v-1.891a1.322,1.322,0,1,1,2.645,0V938.2A1.323,1.323,0,0,1,1447.532,939.527Z" transform="translate(-684.498 -433.207)" fill="#2b2150"/>
    <path id="Path_498" data-name="Path 498" d="M1485.692,941.4a1.323,1.323,0,0,1-1.322-1.322v-1.891a1.322,1.322,0,0,1,2.645,0v1.891A1.322,1.322,0,0,1,1485.692,941.4Z" transform="translate(-706.912 -434.308)" fill="#2b2150"/>
    <path id="Path_499" data-name="Path 499" d="M1493.125,959.255a5.2,5.2,0,1,1-5.2-5.2A5.2,5.2,0,0,1,1493.125,959.255Z" transform="translate(-705.942 -444.403)" fill="#ee7e94"/>
    <path id="Path_500" data-name="Path 500" d="M1526.832,950.005a.88.88,0,0,1-.846-1.129c.519-1.769,2.854-3,3.118-3.136a.882.882,0,0,1,.8,1.571c-.738.379-2,1.273-2.227,2.061A.883.883,0,0,1,1526.832,950.005Z" transform="translate(-731.335 -439.466)" fill="#2b2150"/>
    <path id="Path_501" data-name="Path 501" d="M1451.883,898.119a22.133,22.133,0,0,1-8.617-1.69c-1.079-.458-5.893-3.491-6.814-5.959a.881.881,0,0,1,1.651-.616c.627,1.681,4.737,4.479,5.853,4.954a20.3,20.3,0,0,0,8.521,1.54c.742-.02,1.481-.073,2.216-.155a.892.892,0,0,1,.974.779.883.883,0,0,1-.779.973c-.784.087-1.572.144-2.364.165C1452.311,898.115,1452.1,898.119,1451.883,898.119Z" transform="translate(-678.733 -406.358)" fill="#2b2150"/>
    <path id="Path_502" data-name="Path 502" d="M1486.222,929.379a1.326,1.326,0,0,1-.581-.135,12.322,12.322,0,0,0-4.49-1.273,1.322,1.322,0,0,1-.122-2.641c2.361-.136,5.435,1.371,5.779,1.541a1.322,1.322,0,0,1-.585,2.508Z" transform="translate(-704.209 -427.527)" fill="#2b2150"/>
    <path id="Path_503" data-name="Path 503" d="M1442.244,929.547a1.323,1.323,0,0,1-.479-2.556c.492-.19,3.044-1.113,4.827-.6a1.322,1.322,0,0,1-.732,2.541,7.018,7.018,0,0,0-3.143.524A1.309,1.309,0,0,1,1442.244,929.547Z" transform="translate(-681.39 -428.067)" fill="#2b2150"/>
    <g id="Group_204" data-name="Group 204" transform="translate(630.739 276.639)">
      <g id="Group_203" data-name="Group 203">
        <path id="Path_504" data-name="Path 504" d="M1172.433,479.331v1.763h-7c.282-.6.564-1.181.846-1.763Z" transform="translate(-1150.315 -442.202)" fill="#e73680"/>
        <rect id="Rectangle_69" data-name="Rectangle 69" width="0.511" height="1.763" transform="translate(0 134.4)" fill="#e73680"/>
        <path id="Path_505" data-name="Path 505" d="M1341.308,588.259v9.079h-1.763v-9.1Z" transform="translate(-1252.584 -506.173)" fill="#e73680"/>
        <path id="Path_506" data-name="Path 506" d="M1248.294,448.091l.035-9.044h3.843c-.176-.6-.37-1.2-.564-1.763h-3.261l.036-9.044s-1.516-4.372-1.869-5.36v3.6h-9.044v-9.044h6.911c-.247-.6-.511-1.181-.741-1.763h-6.17v-9.044h2.2c-.265-.582-.512-1.164-.776-1.763h-1.428v-3.315c-.23-.547-.459-1.111-.705-1.693a17.253,17.253,0,0,0-1.058-2.151v7.158h-9.044v-9.044h7.881a18.07,18.07,0,0,0-1.393-1.763h-6.488v-3.332c-.546-.088-1.128-.159-1.763-.247v3.579h-10.807v10.807h-9.044V399.4c-.582.071-1.182.106-1.763.141v5.324h-9.044v-6.541c-.6-.212-1.181-.423-1.763-.687v7.228h-8.991l.018-9.044h5.606a17.551,17.551,0,0,1-2.2-1.763h-3.4v-4.707s-.705.176-1.763.476v4.231h-9.115v-1.71a7.736,7.736,0,0,0-1.375.67,3.144,3.144,0,0,0-.387.282v.758h-.758a9.039,9.039,0,0,0-1.11,1.763h1.869v9.044h-6.47c-.3.6-.6,1.181-.882,1.763h7.352v9.044h-9.044v-5.606c-.6,1.2-1.181,2.4-1.763,3.6v2.01h-.97c-.282.582-.564,1.181-.864,1.763h1.834v19.851h-9.044v-4.813c-.582,1.181-1.164,2.38-1.763,3.6v1.216h-.6c-.282.582-.564,1.164-.864,1.763h1.464v9.044H1144.4a8.371,8.371,0,0,0,.017,1.763h4.831v6.17a14.909,14.909,0,0,0,1.763.512v-6.682h9.044v8l1.763.317v-8.321h6.823v-1.763h-6.823v-9.044h6.823v-1.763h-6.823V428.24h6.823v-1.763h-6.823v-9.044h9.044v2.609h1.763v-2.609h9.1v2.609h1.763v-2.609h8.991v2.609h1.763v-2.609h9.044v2.609h1.763v-2.609h9.044v2.609h1.763v-2.609h9.044v2.609h1.763v-2.609h9.044v2.609h1.076v37.852l.688-.247v-7.792h9.044v3.42c.3-.106.6-.212.881-.317.3-.123.6-.229.881-.371l.018-2.732h3.932a3.965,3.965,0,0,0,.881-1.763Zm-88.238,0h-9.044v-9.044h9.044Zm21.667-32.421h-9.1v-9.044h9.1Zm0-10.807h-9.1v-9.044h9.115Zm10.755,10.807h-8.991v-9.044h8.991Zm10.807,0h-9.044v-9.044h9.044Zm10.807,0h-9.044v-9.044h9.044Zm10.807,0h-9.044v-9.044h9.044Zm0-10.807h-9.044v-9.044h9.044Zm10.807,10.807h-9.044v-9.044h9.044Zm10.807,32.421h-9.044v-9.044h9.044Zm0-10.807h-9.044V428.24h9.044Z" transform="translate(-1137.938 -389.348)" fill="#e73680"/>
        <rect id="Rectangle_70" data-name="Rectangle 70" width="1.763" height="9.044" transform="translate(65.347 114.542)" fill="#e73680"/>
        <rect id="Rectangle_71" data-name="Rectangle 71" width="1.763" height="9.044" transform="translate(54.54 114.542)" fill="#e73680"/>
        <path id="Path_507" data-name="Path 507" d="M1268.854,598.74v-1.763h-9.044v-9.045h6.135c-.212-.6-.423-1.181-.652-1.763h-5.483v-9.044h1.481c-.265-.582-.529-1.181-.793-1.763h-.688v-4.654l-.687-1.48v6.241h-68.916c-.37.582-.529.829-.882,1.41l3.879.018v9.273h-8.092l-.582,1.763h8.674v9.045h-9.044v-8.41a23.1,23.1,0,0,0-.882,2.274,20.985,20.985,0,0,0-.881,3.914v6.294l1.763,8.48v.017h9.044v9.044h-3.879c.547.617,1.093,1.216,1.6,1.763h2.274v10.807h61.881l.105-1.763H1249v-9.044h9.044v2.38c.036,0,.07.018.106.018.018,0,.018,0,.035-.018a.537.537,0,0,0,.141-.071c.018,0,.036-.017.053-.035.494-.635.97-1.287,1.428-1.922v-.352h.247c.423-.582.828-1.181,1.217-1.763h-1.464v-9.044h6.259c.211-.582.423-1.164.6-1.763l-6.858-.018V598.74Zm-75.65,8.815-9.044-.035v-8.78h9.044Zm23.377-30.588,9.044.036v9.168h-9.044Zm0,10.966h9.044v9.045h-9.044Zm0,10.807h9.044v8.921l-9.044-.036Zm-10.807-21.808,9.044.035v9.2h-9.062Zm-.018,11h9.062v9.045h-9.062Zm0,10.807h9.062v8.885l-9.08-.035Zm-1.8,30.659h-8.991v-9.044h9.009Zm.018-10.807h-9.009v-9.044h9.009Zm0-11-9.009-.035V598.74h9.026Zm.018-10.613h-9.026v-9.045h9.026Zm0-10.807h-9.026V576.9l9.044.035Zm10.825,43.229h-9.1l.017-9.044h9.08Zm1.763,0v-9.044h9.044V629.4Zm19.851,0h-9.044v-9.044h9.044Zm0-10.807h-30.694v-9.044h30.694Zm0-10.9-9.044-.035V598.74h9.044Zm0-10.719h-9.044v-9.045h9.044Zm0-10.807h-9.044V577l9.044.035Zm10.807,43.229h-9.044v-9.044h9.044Zm0-10.807h-9.044v-9.044h9.044Zm0-10.878-9.044-.017V598.74h9.044Zm0-10.736h-9.044v-9.045h9.044Zm10.807,21.614H1249v-9.044h9.044Zm0-10.842-9.044-.018V598.74h9.044Zm0-10.772H1249v-9.045h9.044Zm0-10.807h-19.851v-9.115l9.044.018,1.763.018,9.044.017Z" transform="translate(-1160.278 -495.005)" fill="#e73680"/>
      </g>
    </g>
    <path id="Path_508" data-name="Path 508" d="M1218.488,613.7a1.322,1.322,0,0,1-.978-2.211c6.073-6.68,17.3-7.529,24.025-1.821a1.322,1.322,0,0,1-1.712,2.016c-6.291-5.341-15.777-3.452-20.357,1.584A1.316,1.316,0,0,1,1218.488,613.7Z" transform="translate(-549.962 -239.896)" fill="#2b2150"/>
    <g id="Group_205" data-name="Group 205" transform="translate(662.159 198.784)">
      <path id="Path_509" data-name="Path 509" d="M1316.184,609.416a1.328,1.328,0,0,1-1.128.635,1.27,1.27,0,0,1-.67-.176c-.318-.194-.652-.352-.987-.529a13.336,13.336,0,0,0-6.541-1.357h-.036c-3.156.194-6.523,1.5-10.243,4.037a1.268,1.268,0,0,1-.74.229,1.349,1.349,0,0,1-1.094-.582,1.327,1.327,0,0,1,.353-1.833c4.037-2.75,7.775-4.232,11.354-4.461a1.389,1.389,0,0,1,.265-.035,15.929,15.929,0,0,1,7.845,1.622q.582.291,1.164.635A1.336,1.336,0,0,1,1316.184,609.416Z" transform="translate(-1257.558 -438.352)" fill="#2b2150"/>
      <path id="Path_510" data-name="Path 510" d="M1270.98,315.487a6.8,6.8,0,0,1-.987,2.186c-1.463,2.063-6.629,7.74-16.731,7.987-11.371.282-18.3-7.652-18.3-10.173l.723-.264c0-.264,8.2-1.975,8.2-1.975l1.164-7.123c-5.836-2.433-10.349-8.127-12.765-15.144v-.017c-.335-.952-.617-1.9-.864-2.909a35.364,35.364,0,0,1-1.04-7.3l4.02-15.144,31.469.917c-1.745,2.1-3.085,6.7-1.481,10.067a11.538,11.538,0,0,1,.9,1.957c.775,2.927-2.521,5.589-2.4,8.621.053,1.569,1.022,2.944,1.781,4.337s1.305,3.121.547,4.5c-.247.441-.582.793-.811,1.216a4.215,4.215,0,0,0-.441,1.869,10.148,10.148,0,0,0,.353,3.173,27.187,27.187,0,0,1-3.367,2.38l1.11,8.6S1268.724,315.1,1270.98,315.487Z" transform="translate(-1219.882 -238.814)" fill="#f5ae9e"/>
      <path id="Path_511" data-name="Path 511" d="M1293.136,295.7a1.322,1.322,0,0,1-1.322-1.322v-1.889a1.322,1.322,0,1,1,2.645,0v1.889A1.323,1.323,0,0,1,1293.136,295.7Z" transform="translate(-1255.968 -253.826)" fill="#2b2150"/>
      <path id="Path_512" data-name="Path 512" d="M1250.192,295.766a1.323,1.323,0,0,1-1.322-1.322v-1.585a1.322,1.322,0,1,1,2.645,0v1.585A1.322,1.322,0,0,1,1250.192,295.766Z" transform="translate(-1230.743 -254.042)" fill="#2b2150"/>
      <path id="Path_513" data-name="Path 513" d="M1267.853,299.813a13.174,13.174,0,0,1-2.389-.271,2.624,2.624,0,0,1-2.072-3.275l2.054-13.193a1.323,1.323,0,1,1,2.614.406l-2.068,13.279a1.477,1.477,0,0,1-.048.2c.865.139,2.676.468,3.365-.2a1.322,1.322,0,0,1,1.832,1.908A4.6,4.6,0,0,1,1267.853,299.813Z" transform="translate(-1239.219 -248.415)" fill="#2b2150"/>
      <path id="Path_514" data-name="Path 514" d="M1273.621,331.164c-1.216,3.755-3.631,5.677-7.034,5.677a11.908,11.908,0,0,1-3.014-.423,1.324,1.324,0,0,1,.687-2.556c2.609.687,4.39.37,5.589-1.093a17.088,17.088,0,0,1-3.879.423,16.2,16.2,0,0,1-3.79-.423,10.386,10.386,0,0,1-3.138-1.322,1.329,1.329,0,0,1,1.48-2.2,7.421,7.421,0,0,0,2.292.952,14.11,14.11,0,0,0,7.968-.494c.511-.243.93-.738,1.534-.688A1.539,1.539,0,0,1,1273.621,331.164Z" transform="translate(-1236.381 -276.052)" fill="#2b2150"/>
      <path id="Path_515" data-name="Path 515" d="M1243.1,312.889a5.11,5.11,0,0,1-9.343,2.861l-.015-.014c-.336-.949-.613-1.913-.861-2.905a5.11,5.11,0,0,1,10.219.059Z" transform="translate(-1221.352 -263.582)" fill="#ee7e94"/>
      <path id="Path_516" data-name="Path 516" d="M1305.237,312.889a5.109,5.109,0,1,1-5.109-5.11A5.109,5.109,0,0,1,1305.237,312.889Z" transform="translate(-1257.85 -263.582)" fill="#ee7e94"/>
      <path id="Path_517" data-name="Path 517" d="M1245.225,280.373a1.323,1.323,0,0,1-.442-2.569,12.1,12.1,0,0,1,4.6-.684,1.321,1.321,0,0,1,1.262,1.379,1.305,1.305,0,0,1-1.379,1.262,9.512,9.512,0,0,0-3.6.536A1.328,1.328,0,0,1,1245.225,280.373Z" transform="translate(-1227.825 -245.565)" fill="#2b2150"/>
      <path id="Path_518" data-name="Path 518" d="M1294.992,279.621a1.315,1.315,0,0,1-.441-.076,9.685,9.685,0,0,0-3.6-.536,1.3,1.3,0,0,1-1.379-1.262,1.321,1.321,0,0,1,1.262-1.379,12.192,12.192,0,0,1,4.6.684,1.322,1.322,0,0,1-.441,2.569Z" transform="translate(-1254.65 -245.124)" fill="#2b2150"/>
      <path id="Path_519" data-name="Path 519" d="M1276.525,268.737l-24.682-.141a10.527,10.527,0,0,1-2.821-7.651,4.217,4.217,0,0,1,.441-1.869c.229-.423.564-.776.811-1.216.758-1.375.211-3.1-.547-4.5s-1.728-2.768-1.781-4.337c-.123-3.032,3.173-5.694,2.4-8.621a11.538,11.538,0,0,0-.9-1.957c-1.6-3.367-.265-7.969,1.481-10.067l-31.469-.917s-4.055,15.744-3.984,15.708a33.7,33.7,0,0,0,1,6.734c.247,1.005.529,1.957.864,2.909v.017a28.6,28.6,0,0,0,6.47,10.807,9.078,9.078,0,0,1-1.64.458,37.05,37.05,0,0,1-7.122.458h-5.412l-.018.053h-4.478a9.379,9.379,0,0,1,1.851-7.757,9.142,9.142,0,0,0,1.763-2.433c.705-2.01-.811-4.178-.653-6.294.229-2.8,3.227-4.707,3.685-7.493.547-3.191-2.415-5.976-2.609-9.22a7.4,7.4,0,0,1,1.164-4.214l-3.367-.106c0-5.888,1.9-12.112,6.312-16.184,4.231-3.9,10.384-5.042,10.384-5.042,2.98-5.042,21.861-9.062,34.925,1.11,23.923,18.653,3.438,24.329,12.182,31.981,6.312,5.536.071,10.578,1.34,14.985.371,1.287,1.393,2.292,2.01,3.491C1275.925,260.944,1278.517,265.316,1276.525,268.737Z" transform="translate(-1204.94 -200.667)" fill="#f7af4d"/>
      <path id="Path_520" data-name="Path 520" d="M1258.945,220.058a.882.882,0,0,1-.388-1.674,16.45,16.45,0,0,1,5.72-1.686.882.882,0,0,1,.158,1.756,14.681,14.681,0,0,0-5.1,1.514A.872.872,0,0,1,1258.945,220.058Z" transform="translate(-1236.143 -210.081)" fill="#2b2150"/>
      <path id="Path_521" data-name="Path 521" d="M1335.481,247a.882.882,0,0,1-.846-.638,10.672,10.672,0,0,0-3.942-6.16.882.882,0,1,1,1-1.45,12.338,12.338,0,0,1,4.632,7.122.882.882,0,0,1-.6,1.091A.9.9,0,0,1,1335.481,247Z" transform="translate(-1278.582 -222.943)" fill="#2b2150"/>
      <path id="Path_522" data-name="Path 522" d="M1329.126,318.117l-.058,0a.881.881,0,0,1-.823-.937,18.875,18.875,0,0,1,.37-2.444,7.794,7.794,0,0,0-1-6.784,19.644,19.644,0,0,1-1.111-2.445,10.213,10.213,0,0,1,1.31-9.157.882.882,0,1,1,1.436,1.024,8.423,8.423,0,0,0-1.082,7.553,17.915,17.915,0,0,0,1.016,2.223,9.43,9.43,0,0,1,1.157,7.926,17.436,17.436,0,0,0-.34,2.218A.883.883,0,0,1,1329.126,318.117Z" transform="translate(-1276.026 -256.651)" fill="#2b2150"/>
    </g>
    <g id="Group_206" data-name="Group 206" transform="translate(316.307 663.217)">
      <path id="Path_523" data-name="Path 523" d="M537.579,1413.106v90.455a69.841,69.841,0,0,1-1.481,11.878c-.335,1.43-.74,2.842-1.163,4.255V1399.853Z" transform="translate(-465.543 -1369.473)" fill="#59549f"/>
      <path id="Path_524" data-name="Path 524" d="M513.566,1337.891v163.253h-2.644V1338.791Q512.271,1338.368,513.566,1337.891Z" transform="translate(-451.438 -1333.078)" fill="#59549f"/>
      <path id="Path_525" data-name="Path 525" d="M489.512,1341.971V1503.5l-2.645-.018V1342.522C487.748,1342.362,488.63,1342.184,489.512,1341.971Z" transform="translate(-437.309 -1335.474)" fill="#59549f"/>
      <path id="Path_526" data-name="Path 526" d="M465.5,1345.9v159.879l-2.644-.018v-159.63C463.736,1346.072,464.618,1346,465.5,1345.9Z" transform="translate(-423.205 -1337.78)" fill="#59549f"/>
      <path id="Path_527" data-name="Path 527" d="M441.486,1346.871v65.617c-.74,5.444-1.763,12.953-2.645,19.963V1346.8C439.724,1346.854,440.605,1346.871,441.486,1346.871Z" transform="translate(-409.1 -1338.311)" fill="#59549f"/>
      <path id="Path_528" data-name="Path 528" d="M440.637,1714.089q1.031-6.752,1.9-13.451v13.451Z" transform="translate(-410.154 -1546.147)" fill="#59549f"/>
      <path id="Path_529" data-name="Path 529" d="M417.431,1344.727v155.689c-.758-.158-1.675-.351-2.645-.579v-155.5C415.651,1344.482,416.55,1344.6,417.431,1344.727Z" transform="translate(-394.971 -1336.867)" fill="#59549f"/>
      <path id="Path_530" data-name="Path 530" d="M393.419,1339.657v157.051a18.966,18.966,0,0,1-2.645-.293V1338.952C391.656,1339.217,392.537,1339.445,393.419,1339.657Z" transform="translate(-380.866 -1333.701)" fill="#59549f"/>
      <path id="Path_531" data-name="Path 531" d="M369.406,1327.318v161.27c-.881-.089-1.763-.179-2.645-.25v-162.11C367.643,1326.621,368.525,1326.978,369.406,1327.318Z" transform="translate(-366.762 -1326.227)" fill="#59549f"/>
      <path id="Path_532" data-name="Path 532" d="M558.947,1527.04v-3.452C558.964,1524.514,558.964,1525.635,558.947,1527.04Z" transform="translate(-479.647 -1442.153)" fill="#59549f"/>
    </g>
    <path id="Path_533" data-name="Path 533" d="M429.59,1190.828a.882.882,0,0,1-.691-.333c-.864-1.089-1.669-3.844-2.783-7.658-.89-3.048-1.9-6.5-3.156-9.832a.882.882,0,0,1,1.649-.624c1.28,3.392,2.3,6.882,3.2,9.96.936,3.208,1.821,6.237,2.471,7.055a.881.881,0,0,1-.69,1.43Z" transform="translate(-83.431 -572.311)" fill="#2b2150"/>
    <path id="Path_534" data-name="Path 534" d="M414.5,1155.524a.881.881,0,0,1-.793-.495,22.624,22.624,0,0,0-3.233-5.077.882.882,0,0,1,1.317-1.173,23.988,23.988,0,0,1,3.5,5.477.881.881,0,0,1-.406,1.178A.867.867,0,0,1,414.5,1155.524Z" transform="translate(-76.001 -558.608)" fill="#2b2150"/>
    <path id="Path_535" data-name="Path 535" d="M469.589,1736.942c-.194,0-4.936.405-13.328,7.246-2.856,2.327-13.011-.106-14.4-6.17l.317-3.7,26.445-.529Z" transform="translate(-94.564 -902.401)" fill="#f5ae9e"/>
    <rect id="Rectangle_72" data-name="Rectangle 72" width="68.14" height="49.768" transform="translate(662.13 307.329)" fill="#5a8dbf"/>
    <path id="Path_536" data-name="Path 536" d="M830.937,818.215a1.276,1.276,0,0,0,.987-.246l41.889-32.528a1.324,1.324,0,0,0,.229-1.868l-61.282-78.93s.281-20.609.194-20.786A67.367,67.367,0,0,0,817.7,667.02a89.334,89.334,0,0,0,.529-12.8A30.5,30.5,0,0,0,815.74,643.5a15.579,15.579,0,0,0,.494-2.01l1.657-18.335,6.153-5.078c4.866-4.143,6.629-11.266,4.637-18.582l-11.9-48.412a5.569,5.569,0,0,0-2.151-3.191s-14.686-10.754-14.7-10.772c-.458-.864-3.79-9.978-4.073-10.631a33.823,33.823,0,0,0,4.937-6.012c1.516-.194,4.989-1.005,8.762-4.672,4.76-4.637,6.417-11.971,6.276-18.459-.123-5.924-3.155-12.465-8.339-15.6a11.614,11.614,0,0,0-2.874-1.27c-2.01-5.994-8.533-10.1-14.175-11.142a36.912,36.912,0,0,0-12.764-.317,63.965,63.965,0,0,0-10.049,2.645,9.025,9.025,0,0,0-3.967-1.181c-6.77.053-10.049,5.553-11.142,7.934a7.667,7.667,0,0,0-.67,3.262,12.368,12.368,0,0,0,.476,3.561c-.123.3-1.022,2.4-1.128,2.768a33.526,33.526,0,0,0-1.305,5.624c-.458,4.267,1.005,10.384,4.284,13.223a15.449,15.449,0,0,1,.265,2.31,32.6,32.6,0,0,0,1.992,9.926c3.138,8.515,9.573,14.4,17.207,15.726a9.8,9.8,0,0,0,1.04.158c-.018.811-.053,1.6-.088,2.4-7.07,1.587-11.935,4.6-14.81,11.23-.07.177-5.025,12.253-8.8,24.7-.529,1.745-1.587,5.359-2.733,9.4V399.255a1.343,1.343,0,0,0-1.322-1.322l-10.455.018c5.112-8.85,5.853-21.527,1.71-31.611L730.9,350.6v-4.478l11.777-4c3.826-1.428,7.88-5.042,5.342-14.016a256.669,256.669,0,0,0-9.732-27.468c-2.38-5.818-4.866-11.6-7.528-17.3-2.08-4.5-5.976-6.788-10.648-7.827,0,0-13.081-2.927-14.58-3.332l-.9-6.876c.458-.3.9-.6,1.322-.917a11.163,11.163,0,0,0,2.133,3.226,1.323,1.323,0,0,0,.952.423l24.7.141a1.291,1.291,0,0,0,1.146-.67c2.187-3.773-.088-8.18-1.939-11.724-.423-.811-2.169-3.509-2.345-4.09-.352-1.234.106-2.662.635-4.319,1-3.209,2.274-7.211-2.38-11.283-2.662-2.327-2.027-4.179-.97-7.264,1.816-5.324,4.319-12.623-11.266-24.77a32.9,32.9,0,0,0-20.169-6.594c-7.281,0-13.98,2.222-16.36,5.342a24.619,24.619,0,0,0-10.49,5.254c-4.284,3.949-6.734,10.208-6.734,17.154,0,1.446,1.587,1.322,2.644,1.358-.952,1.728-.088,4.513.106,5.131.882,2.7,2.521,5.13,1.481,8.092-.793,2.239-3.015,3.949-3.138,6.312-.088,1.869,1.2,3.684.846,5.518-.246,1.393-1.357,2.415-2.186,3.544a9.7,9.7,0,0,0-1.639,7.369,1.547,1.547,0,0,0,1.71,1.5c.988.018,1.992.053,2.98.071,2.591.053,3.385-2.8.476-2.768a6.586,6.586,0,0,1-2.821-.071c.37-4,4.725-7.175,4.055-11.142-.176-1.146-.793-2.221-.793-3.367,0-2.2,2.1-3.755,3.05-5.729,1.164-2.415.476-5.166-.476-7.528a18.289,18.289,0,0,1-1.322-3.367c-.071-.406-.247-3.491.529-3.473l5.589.159a33.235,33.235,0,0,0-1.551,21.544c1.9,7.51,6.259,15.038,13.452,18.529L685,272.108c-5.218,1.093-14.157,3.032-16.414,3.385a13.391,13.391,0,0,0-8.885,6.135.293.293,0,0,1-.035.088l-24.241,49.858a10.817,10.817,0,0,0,.881,10.3,11.588,11.588,0,0,0,8.974,4.919c3.756.317,14.845,2.45,14.845,2.45v2.786l-6.647,14.369c-4.125,10.049-3.368,22.8,1.8,31.628l-23.4.018a4.48,4.48,0,0,0-4.213-3.015H592.791a9.014,9.014,0,0,1-9.009-9.009v-7.334c0-18.106-23.378-26.833-35.436-13.5a20.2,20.2,0,0,0-5.218,13.5v7.334a9.014,9.014,0,0,1-9.009,9.009H499.246a4.477,4.477,0,0,0-4.46,4.46v7.687a16.388,16.388,0,0,0,.6,4.389H409.668a1.31,1.31,0,0,0-1.322,1.322V594.455L390.2,562.474V532.01A28.282,28.282,0,0,0,393.4,521.7a10.443,10.443,0,0,0,4.778-2.856,1.658,1.658,0,0,0,.3-1.551c-.018-.071-5.307-10.419-5.377-10.472-.441-.335-1.251-6.77-1.251-6.77a8.962,8.962,0,0,0,.864-.547c4.5-3.085,7.052-9.2,5.166-14.421a11.534,11.534,0,0,0-7.669-7.193V400.578h96.93a1.322,1.322,0,1,0,0-2.644H388.882a1.332,1.332,0,0,0-1.322,1.322V476.6c-3.984-2.01-7.916-4.408-12.429-4.9a48.484,48.484,0,0,0-13.364.388,34.229,34.229,0,0,0-10.878,3.6,13.455,13.455,0,0,0-3.72,2.786c-.547.635-1.146,2.715-1.957,2.962-6.011,1.869-15.355,8.727-15.55,24.012-.194,13.134,5.977,22.831,18.318,28.9.282.264-3.244,9.238-3.473,9.255-1.111.088-2.168.212-3.209.371l-5.5.882c-4.337,1.287-8.039,4.019-11.565,8.568-.741.952-3.367,4.989-3.967,6.03l-28.807,47.795a8.4,8.4,0,0,0,1.022,9.2l25.51,31.4-3.6,11.918c-.053.106-2.4,84.077-2.4,84.077l-4.178,82.315a1.3,1.3,0,0,0,1.234,1.375l2.362.141-.159,2.08a7.212,7.212,0,0,0-2.133,2.574c-4.038,7.634-2.8,17.833-2.239,20.882H281.974c-.741,0-1.111.732-1.111,1.472A1.321,1.321,0,0,0,282.185,856h59.149a26.6,26.6,0,0,0,.423,2.7,1.335,1.335,0,0,0,1.269,1.058h68.3a1.254,1.254,0,0,0,1.34-1.181,20.738,20.738,0,0,0,.141-2.574H763.079a18.382,18.382,0,0,0,.212,1.922,1.324,1.324,0,0,0,1.3,1.093s54.723-2.962,55.817-3.015h42.559a1.321,1.321,0,0,0,1.322-1.322,1.635,1.635,0,0,0-1.534-1.472H825.878c.317-3.244.9-11.644-2.909-17.78a6.7,6.7,0,0,0-2.01-2.168c-.088-.564-.141-1.146-.247-1.71a1.4,1.4,0,0,0,.688-1.323l-2.909-27.4s11.547,14.88,11.583,14.915A1.564,1.564,0,0,0,830.937,818.215Zm40.215-34.061-12.007,9.326-101.6-130.85a9.434,9.434,0,0,0,3.4.67c2.874,0,6.329-1.357,11.706-5.994Zm-189.558-217.4a10.275,10.275,0,0,0-2.433-.617,10.408,10.408,0,0,0-11.477,8.921,9.892,9.892,0,0,0,0,2.5c-.106-.811-4.478-.688-5.06-.617a10.319,10.319,0,0,0-7.651,5.289l-9.485-37.252,10.014-7.792,33.708,18.388a10.284,10.284,0,0,0-3.649,1.816l-.123.106a10.176,10.176,0,0,0-3.861,6.753A9.125,9.125,0,0,0,681.594,566.759Zm-37.446-24.1-8.039-20.116,17.506,12.782ZM684.2,564.59a7.808,7.808,0,0,1,7.581-6.682,7.449,7.449,0,0,1,5.942,2.909l55.94,72.054a3.585,3.585,0,0,0-.37,4.266,8.305,8.305,0,0,0,3.014,2.786,9.324,9.324,0,0,0,2.574.723c-2.768,2.627-7.387,7.4-9.5,11.478l-63.662-82a6.7,6.7,0,0,1-.723-1.164A7.332,7.332,0,0,1,684.2,564.59Zm28.314-86.176a23.037,23.037,0,0,1-2.486,1.41,12.1,12.1,0,0,1-6.206.952c-2.644-.264-5.606-3.173-5.606-3.173v-4.231c1.9,2.521,4.143,4.39,7.4,4.39,4.178,0,7.352-3.244,8.251-7.176,0,0,.776,3.385.776,3.42C714.65,475.364,714.086,477.551,712.516,478.414Zm3.262.529,1.886,8.3c.917,4.037-.758,8.427-3.6,9.379l-9.027,3.015c-2.821.935-6.735-2.151-6.893-6.929l.071-11.636a9.563,9.563,0,0,0,5.271,2.327,15.08,15.08,0,0,0,1.781.106,13.993,13.993,0,0,0,5.853-1.269c.935-.423,1.764-1.04,2.68-1.5A5.874,5.874,0,0,0,715.778,478.943Zm-4.231-17.084v6.065c0,3.332-2.01,7.052-5.695,7.193a8.456,8.456,0,0,1-8.039-6.629V415.74h21.879S711.547,461.789,711.547,461.859Zm10.825-46.12h2.644v25.775h-7.21Zm28.19,208.792,6.276-1.393c.106,3.438.229,6.611.335,9.361Zm.582,29.848c1.269-3,6.276-8.973,9.784-12.165.618-.529,1.181-1,1.675-1.358,1.5-1.075-.159-2.327-1.287-2.468a31.5,31.5,0,0,1-3.791-.793,3.823,3.823,0,0,1-2.028-1.781c-.158-.476-.123-1.058.459-.881a8.826,8.826,0,0,0,2.891.264,31.279,31.279,0,0,0,7.422-1.5,12.09,12.09,0,0,1,4.5-.529L781.132,645.9c-.458,1.057-14.756,12.588-14.774,12.606a8.073,8.073,0,0,1-6.311,1.833,15.28,15.28,0,0,1-5.536-1.6,10.574,10.574,0,0,1-3.561-2.8C750.756,655.631,750.844,655.1,751.144,654.38Zm37.993-2.221c-1.922.212-3.826.335-5.73.388a13.117,13.117,0,0,1-4.39-.335,24.658,24.658,0,0,0,3.879-4.161l1.093,1.34a1.322,1.322,0,0,0,1.869.194l29.248-24.118s-1.533,15.973-1.551,16.061a2.426,2.426,0,0,1-1.111,1.8C805.921,648.791,797.529,651.277,789.137,652.158Zm.652,2.574a21.236,21.236,0,0,0,5.994,8.2c.97.723,2.7,1.922,3.844,2.009l-1.005,21.491L774.768,655.72c.7-.529,1.393-1.076,2.027-1.622-.018.018,2.292,1.5,7.9,1.04C785.153,655.1,789.754,654.626,789.789,654.732Zm25.281,12.042a65.069,65.069,0,0,1-4.513,15.955c-.176.37-.388,18.582-.388,18.582l-9.891-12.729,1.093-23.113a49.332,49.332,0,0,0,5.236.3c1.287-.335,1.216-1.922.106-1.8-3.209.352-7.317-.265-9.943-2.416A17.8,17.8,0,0,1,791.6,654.5c9.044-1.269,16.466-4.231,22.161-8.833a27.616,27.616,0,0,1,1.816,8.657A87.244,87.244,0,0,1,815.07,666.774Zm-17.753-129c-3.279,2.151-12.094,5.236-14.862,5.782a16.432,16.432,0,0,1-5.641.212c.246-1.816.423-5.342.529-8.692,5.783-.123,11.565-2.644,16.431-6.7C794.091,529.242,796.806,536.629,797.317,537.775Zm-42.4-58.267c.881-1.9,3.508-6.329,8.78-6.382a7.418,7.418,0,0,1,3.12,1.128,1.343,1.343,0,0,0,1.216.106,55.085,55.085,0,0,1,10.12-2.75,34.13,34.13,0,0,1,11.812.335c5.059.917,10.913,4.637,12.323,9.961a1.311,1.311,0,0,0,1.022.952c7.07,1.481,10.366,10.12,9.785,16.608-.582,6.505-.9,10.084-5.377,14.439-3.3,3.191-6.153,3.826-7.211,3.949-1.146-1.27-.494-3.931-.265-4.707,1.745-2.063,4.337-5.712,3.526-8.674a4.573,4.573,0,0,0-3.35-3.1,5.463,5.463,0,0,0-4.284.582c-.635.352-2.68,2.433-3.226,2.133a2.762,2.762,0,0,1-.97-3.085c.264-.917,1.78-7.193,2.927-9.1a23.453,23.453,0,0,0,2.75-1.71,1.325,1.325,0,0,0-1.569-2.133c-5.077,3.738-11.918,4.8-18.018,5.412-5.448.546-11.9,2.009-16.925-.935-4.02-2.362-6.682-6.7-6.611-10.825A5.63,5.63,0,0,1,754.917,479.507Zm.018,21.227c-.142.846-.265,1.693-.335,2.539a16.008,16.008,0,0,1-2.063-9.362,29.631,29.631,0,0,1,1.2-5.166c0-.018.018-.035.018-.071a15.832,15.832,0,0,0,3.1,3.931A62.584,62.584,0,0,0,754.935,500.734ZM774.1,532.221c-6.8-1.2-12.341-6.312-15.18-14.051a29.76,29.76,0,0,1-1.833-9.15,33.428,33.428,0,0,1,.458-7.828,68.135,68.135,0,0,1,1.516-6.823c.229.158.459.3.706.441,4.866,2.856,10.86,2.168,16.149,1.551q1.217-.132,2.38-.264a54.505,54.505,0,0,0,12.941-2.644c-.476,1.393-1.587,5.941-1.833,6.823a5.377,5.377,0,0,0,2.2,6.118,2.912,2.912,0,0,0,3.7-.494,5.868,5.868,0,0,1,3.35-2.045c.934-.106,2.274.282,2.556,1.3.793,2.909-2.468,4.778-3.456,7.035a8.634,8.634,0,0,0-.529,2.979,5.9,5.9,0,0,0,.388,2.662,11.234,11.234,0,0,1,.705,1.5c-5.2,7.686-13.469,13.117-21.473,13.117A15.634,15.634,0,0,1,774.1,532.221Zm-25.369,73.041a22.579,22.579,0,0,0-2.362-5.377c1.375-5.924,13.046-50.686,19.428-55.358a27.4,27.4,0,0,1,3.72-2.68c.458-.229,4.937-1.693,4.937-1.728-.071,1.41-.177,2.627-.282,3.421-.317,2.345,2.045,3,3.879,2.979,8.463-.088,17.277-4.143,21.033-6.752l1.569,1.146a95.66,95.66,0,0,1-10.261,4.637c-.846.352-1.622.67-2.274.934a.91.91,0,0,0-.476,1.164.881.881,0,0,0,.811.529,1.213,1.213,0,0,0,.352-.053c.652-.282,1.428-.6,2.257-.934,3.79-1.551,8.9-3.649,11.124-5.148l10.9,7.986a2.886,2.886,0,0,1,1.129,1.693l11.9,48.447c1.745,6.347.3,12.429-3.773,15.884l-37.146,30.641-11.759-14.422,31.258-27.132c2.151.564,7.581,2.82,7.828,2.82a1.342,1.342,0,0,0,.74-2.432c-1.71-1.128-5.624-2.345-7.828-2.927l-8.55-34.4a1.328,1.328,0,0,0-2.574.652l8.551,34.379-31.505,27.344a14.194,14.194,0,0,0-5.924.617,29.378,29.378,0,0,1-5.606,1.269c-.688-16.713-1.728-48.359,4.936-66.695a1.326,1.326,0,0,0-2.486-.916c-5.43,14.95-5.889,38.2-5.5,55.605l-8,1.763-13.91-17.912,9.379-2.821a19.223,19.223,0,0,1,1.957,4.5A1.32,1.32,0,0,0,748.729,605.262Zm-3.12-204.684V592.234c-.741,2.751-1.34,5.131-1.64,6.576l-10.86,3.261-5.624-7.246.176-179.209a2.528,2.528,0,0,0,.793-1.217l-.088-8.374a17.623,17.623,0,0,0,6.364-5.43h.018ZM672.567,224.136c1.075-4.672,4.707-9.908,9.344-13.346a.893.893,0,0,0,.176-1.234.878.878,0,0,0-1.234-.176c-5.148,3.825-9.027,9.5-10.1,14.7l-5.2-.159c.264-5.677,2.363-10.7,5.854-13.928,3.878-3.579,9.679-4.707,9.732-4.725a1.323,1.323,0,0,0,.9-.617c1.287-2.186,7.176-4.548,14.422-4.548A30.206,30.206,0,0,1,715,206.136c14.086,10.984,12.041,17,10.384,21.826-1.111,3.262-2.257,6.629,1.728,10.12,3.367,2.927,2.539,5.518,1.587,8.5-.6,1.887-1.216,3.844-.635,5.836,1.216,4.143,6.488,8.321,4.848,13.117l-4.284-.017c.123-2.574-1.093-4.937-2.274-7.211a17.8,17.8,0,0,1-2.115-5.342,16.629,16.629,0,0,1,.282-4.9,17.655,17.655,0,0,0,.247-5.624c-.406-2.292-1.657-4.284-2.486-6.435a28.31,28.31,0,0,1-1.075-6.241c-.124-1.34-.265-2.733-.476-4.125a.883.883,0,0,0-1.745.265c.194,1.357.335,2.732.476,4.037a29.3,29.3,0,0,0,1.164,6.7c.811,2.01,2.027,3.931,2.4,6.1a15.954,15.954,0,0,1-.247,5.06,18.584,18.584,0,0,0-.282,5.43,19.3,19.3,0,0,0,2.292,5.906c1.128,2.169,2.221,4.214,2.081,6.365l-17.207-.106a9.349,9.349,0,0,1-2.1-6.259,5.275,5.275,0,0,1,1.075-2.5c.6-1.093.988-2.962-.529-5.783-1.375-2.556-1.887-4.39-.494-7.123.829-1.622,1.763-3.473,1.217-5.553-.547-2.1-1.711-3.438-1.552-5.712a9.261,9.261,0,0,1,1.887-5.113,1.33,1.33,0,0,0-.969-2.168Zm3.244,26.392a34.252,34.252,0,0,1-1.869-10.649,29.2,29.2,0,0,1,2.891-12.976l28.984.846c-1.287,2.75-1.728,6.488-.335,9.379,1.005,2.1.881,3.226-.229,5.395a9.688,9.688,0,0,0-1.41,4.672,9.111,9.111,0,0,0,1.534,4.178c1.252,2.168,1.269,3.085.141,5.183a5.625,5.625,0,0,0-.6,2.433,10.7,10.7,0,0,0,.194,2.715c.088.441-3.3,2.186-3.79,2.433a18.879,18.879,0,0,1-5.042,1.693,14.954,14.954,0,0,1-9.132-1.27C681.576,261.847,677.838,256.206,675.811,250.529Zm10.614,23.977a1.313,1.313,0,0,0,1.04-1.075l.916-5.518c0,.458,4.39.776,4.848.793a15.888,15.888,0,0,0,4.09-.317c.494-.106,4.848-1.2,4.848-1.692l.864,6.681a1.324,1.324,0,0,0,.952,1.111c.106.035,5.994,1.6,7.475,1.939a3.218,3.218,0,0,1-.282.458c-.846,1.2-5.606,7.176-15.673,7.422a20.1,20.1,0,0,1-14.633-5.483,10.553,10.553,0,0,1-2.028-2.574C679.9,275.933,683.356,275.158,686.424,274.505Zm-40.955,69.639a8.383,8.383,0,0,1-6.964-3.72,8.225,8.225,0,0,1-.652-7.792l24.153-49.717a10.879,10.879,0,0,1,7-4.813c2.045-.317,4.566-.829,7.158-1.393a11.773,11.773,0,0,0,2.856,4.02c8.938,8.833,26.886,8.462,34.325-2.309a7.525,7.525,0,0,0,.794-1.446l5.483,1.129c4.319.74,6.224,2.451,8.356,5.518.811,1.71,11.936,25.44,17.507,45.2,2.151,7.634-1.111,9.838-3.7,10.807l-10.878,3.7V320.608a5.459,5.459,0,0,1,1.146-.264c.388-.071.829-.141,1.446-.282a1.336,1.336,0,0,0,1.023-1.569,1.32,1.32,0,0,0-1.587-1c-.564.123-.97.176-1.3.247-.264.035-.494.071-.723.123V307.332a1.32,1.32,0,0,0-1.322-1.322h-8.639c-.335-2.962-1.128-10.155-1.622-11.707a1.324,1.324,0,0,0-1.658-.881,1.343,1.343,0,0,0-.864,1.657c.335,1.075,1.023,6.77,1.463,10.931H669.446c.846-3.226,1.851-6.453,3-9.608a1.322,1.322,0,0,0-2.486-.9c-1.251,3.438-2.345,6.964-3.262,10.508h-5.254a1.309,1.309,0,0,0-1.322,1.322v21.262c-4.989-.67-9.115-.494-12.236.494a1.273,1.273,0,0,0-.423,2.186c.864.829,2.257.018,3.3-.159a30.357,30.357,0,0,1,9.362.141v15.3S645.558,344.144,645.469,344.144Zm82.791-35.489V355.78h-65.5V308.655Zm-72.354,58.8,4.443-9.608a1.3,1.3,0,0,0,1.093.582h68.14A1.331,1.331,0,0,0,730.9,357.1l4.866,10.3c4.037,9.837,3.05,22.425-2.415,30.606a16.907,16.907,0,0,1-5.007,5.007s-.141-14.368-.141-14.421a1.323,1.323,0,0,0-2.644.017l.229,24.488H664.157l-.406-24.523a1.309,1.309,0,0,0-1.358-1.287,1.3,1.3,0,0,0-1.287,1.34l.211,12.852A18.2,18.2,0,0,1,658.339,398C652.874,389.823,651.869,377.235,655.907,367.451Zm25.211,113.379c.829.811,4.354,2.292,7.7,2.292a11.4,11.4,0,0,0,1.357-.071,17.133,17.133,0,0,0,5.289-1.322v10.913c-.335,4.813-5.712,8.233-8.55,7.423L678,497.455c-2.732-.793-4.2-5.06-3.12-9.132l4.778-18.106c.564,4.267,3.42,7.6,7.316,8.2a8.642,8.642,0,0,0,1.164.088,10.907,10.907,0,0,0,7.334-3.032v2.5c-.74,1.428-4.566,2.309-5.641,2.451a12.4,12.4,0,0,1-6.858-1.481,1.321,1.321,0,0,0-1.851,1.886Zm7.017-4.971c-3.808,0-5.924-3.773-5.942-7.211l-.018-6.858c0-.088-9.714-46.05-9.714-46.05h23.007V469.07C694.851,473.125,691.131,475.858,688.135,475.858Zm-56.011-68.686v-6.488L657,400.648a18.654,18.654,0,0,0,4.372,4.231l.106,6.682H631.524A16.392,16.392,0,0,0,632.123,407.172ZM497.43,399.484a1.836,1.836,0,0,1,1.816-1.816h34.872a11.655,11.655,0,0,0,11.653-11.653v-7.334a17.711,17.711,0,0,1,34.256-6.118,17.324,17.324,0,0,1,1.11,6.118v7.334a11.666,11.666,0,0,0,11.653,11.653h34.872a1.824,1.824,0,0,1,1.816,1.816v7.687a13.619,13.619,0,0,1-13.61,13.61H511.041a13.63,13.63,0,0,1-13.61-13.61Zm-86.44,14.722h85.4a16.267,16.267,0,0,0,14.651,9.22H615.869a16.174,16.174,0,0,0,14.651-9.114h31.011a1.44,1.44,0,0,0,1.322,1.428h6.911l5.447,25.775H410.99Zm-78.683,91.27c.194-14.315,9.079-20.363,14.3-21.685a1.369,1.369,0,0,0,.97-1.005c.9-4.073,10.084-8.762,22.09-8.762a26.3,26.3,0,0,1,12.129,2.786c2.292,1.058,4.866,2.909,7.317,3.509a8.849,8.849,0,0,1,6.259,5.641c1.446,4.037-.67,9.009-4.2,11.371-4.373,3.1-10.085,1.551-14.95.97-5.113-.6-10.261-2.169-14.263-5.536a2.955,2.955,0,0,0-1.322-.758,1.344,1.344,0,0,0-1.375,1.658,2.318,2.318,0,0,0,.846,1.04,25.423,25.423,0,0,0,5.889,3.65c.917.406,2.063,3.067,2.451,4a15.446,15.446,0,0,1,1.322,6.012c-.017.406-1.5,4.689-1.728,4.425a8.045,8.045,0,0,0-7.9-2.045,4.531,4.531,0,0,0-2.8,2.856c-.687,2.239.317,5.324,3.067,9.414a4.7,4.7,0,0,1,.864,3.1c-.211,2.186-1.728,4.46-4.619,6.964-.97.846-3.826.476-3.826.476C347.681,531.552,332.025,525.416,332.307,505.476ZM350.4,535.465a6.808,6.808,0,0,0,7.986-.37c3.438-2.98,5.254-5.818,5.536-8.727a7.461,7.461,0,0,0-1.3-4.813c-2.961-4.39-2.979-6.382-2.732-7.175a1.72,1.72,0,0,1,1.128-1.129,5.246,5.246,0,0,1,5.183,1.446,2.151,2.151,0,0,0,2.715.652c2.222-1.04,4-5.73,3.35-8.815-.776-3.649-1.058-4.919-2.115-6.717,1.8.494,7.158,1.287,7.881,1.393,3.649.511,7.669,1.075,11.354-.088.282,1.252.934,4.848.987,5.36l5.325,11.124a9.936,9.936,0,0,1-2.01,1.164,5.492,5.492,0,0,1-2.1.564,1.327,1.327,0,0,0-.829,2.327,30.883,30.883,0,0,1-1.216,5.306c-1.322.194-3.226-.053-3.861-.987a1.321,1.321,0,0,0-2.186,1.481c1.111,1.675,3.226,2.169,4.954,2.221a17.337,17.337,0,0,1-2.274,3.508c-3.526,4.143-9.52,6.012-14.862,5.5-.036-1.252-.053-2.486-.053-3.632a1.323,1.323,0,0,0-2.645.018c.035,3.861.106,6.911.211,9.291a173.442,173.442,0,0,0-21.385-.969C347.945,542.13,350.131,536.188,350.4,535.465Zm37.164.142v22.2l-5.042-8.886c-.705-1.234-2.644-2.221-3.879-2.8a13.943,13.943,0,0,0-4.831-1.3L371.5,544.6c-.053-1.04-.088-2.133-.123-3.244a24.129,24.129,0,0,0,9.1-1.2,17.672,17.672,0,0,0,3.861-1.851C384.9,537.934,387.56,536.347,387.56,535.606Zm-60.718,92.1a1.032,1.032,0,0,0,.053-.406l-1-42.1a1.323,1.323,0,0,0-2.644.053l.264,11.142-7.9,14.474a1.319,1.319,0,0,0,.106,1.428l8.445,11.2.088,3.649-5.324,17.63-24.4-30.006a5.755,5.755,0,0,1-.758-6.241S323.651,558.9,324.2,558.049c3.844-5.959,7.7-9.291,12.182-10.631l5.324-.829c8.075-1.269,19.5-.247,28.684.564l3.191.282a11.089,11.089,0,0,1,6.734,2.98l27.062,47.672a18.442,18.442,0,0,0-2.133,5.888,1.326,1.326,0,0,0,2.609.459,15.932,15.932,0,0,1,1.745-4.919c.088-.018,29.548-22.5,29.548-22.5l11.865,11.354-35.383,32.633a9.71,9.71,0,0,1-13.487,1.34s-34.326-44.516-36.424-47.319a1.322,1.322,0,1,0-2.115,1.587c2.2,2.944,21.227,28.419,21.3,28.525-3.191,17.242-3.9,44.815-4.178,55.993-.053,1.569-.088,2.98-.123,3.843-46.385,10.754-61.07-2.468-63.468-5.13Zm-2.786-8.762-5.712-7.563,5.289-9.714Zm127.271-49.47a1.283,1.283,0,0,0,1.446.229c4.584-2.4,19.9-7,21.562-5.448,1.269,1.974,1.481,5.112.546,8.021a10.766,10.766,0,0,1-5.959,6.453,161.89,161.89,0,0,1-16.5,7.352l-11.565-11.072a16.057,16.057,0,0,1,2.68-4.372c.229-.211,5.695-5.218,6.347-8.709.141-.7.846-.458,1.375-.352a5.49,5.49,0,0,1,.97,2.292,27.727,27.727,0,0,1-1.3,4.2A1.3,1.3,0,0,0,451.328,569.474Zm30.57,25.07a3.066,3.066,0,0,1,3.068,3.05v47a3.07,3.07,0,0,1-3.068,3.067h-47a3.066,3.066,0,0,1-3.05-3.067v-34.96l16.378-15.091ZM387.56,608.718v80.111l-4.372-22.848c.071-.723.106-2.08.158-4.778.282-10.6.935-36.089,3.72-53.155C387.243,608.277,387.4,608.506,387.56,608.718Zm-77.043,216.25,4.125-81.028,2.239-80.639c3.826,3.244,12.87,8.515,31.417,8.515,8.639,0,19.34-1.146,32.51-4.179l14.791,77.2L383.787,823.5H369.136a.881.881,0,0,0,0,1.763h14.386l-.687,4.619-17.1.353L376.259,738.9a.58.58,0,0,0,0-.247l-10.736-61.934a.892.892,0,0,0-1.023-.723.906.906,0,0,0-.723,1.023L374.5,738.828,364.747,823.5h-16.4l8.692-79.459v-.123c0-.123-19.287-67.417-19.287-67.417a1.331,1.331,0,0,0-1.639-.917,1.315,1.315,0,0,0-.9,1.639l14.845,51.744v.035l-2.7,15.673-7.334,74.875c-.017-.017-24.594-2.591-24.594-2.591a.85.85,0,0,0-.952.776.875.875,0,0,0,.776.969l24.611,2.574-.547,5.5Zm77.043-8.744v22.2a109.25,109.25,0,0,1-11.424-4.8l-.282-.952,8.163-.158a1.321,1.321,0,0,0,1.269-1.129Zm-39.4,9.044h16.378l-.582,5.007-16.378.335Zm-3.315,6.135-4.39-1.9h.053a1.322,1.322,0,0,0,1.322-1.181l8.163-83.284,1.763-10.173,2.627,9.168v.018Zm3.984,1.816,24.259-.494.247.811c-2.168.582-6.417,2.274-12.464,7.229a4.3,4.3,0,0,1-2.468.581c-3.385,0-8.744-2.08-9.767-5.836ZM336.7,829.27a40.17,40.17,0,0,0-10.578,6.77,4.42,4.42,0,0,1-2.556.6c-3.455,0-8.674-1.975-9.732-5.695l.229-3.1Zm-27.062,23.342c-.106-.687-.264-1.693-.37-2.891L341,849.3c-.018,1.005-.018,2.416.017,3.315C341.016,852.612,311.239,852.594,309.635,852.612Zm31.452-5.077-22.214.3a14.154,14.154,0,0,0-5.676-9.291.88.88,0,0,0-1.076,1.393,12.351,12.351,0,0,1,4.954,7.916l-7.969.106c-.247-4.178-.017-9.908,2.362-14.386.123-.212.229-.405.335-.581,2.116,4.284,7.987,6.294,11.759,6.294a6.682,6.682,0,0,0,4.267-1.217,40.393,40.393,0,0,1,9.1-6.029,13.422,13.422,0,0,1,3.05-1.04c.846.441,6.117,3.05,6.117,3.244a7.024,7.024,0,0,0-2.169,2.591A26.237,26.237,0,0,0,341.087,847.534Zm69.039,9.556c-1.763-.018-64.367.035-65.971.018-.106-.688-.247-1.675-.353-2.892h63.539a.881.881,0,1,0,0-1.763H353.463a8.8,8.8,0,0,0-1.287-4.2.875.875,0,0,0-1.569.546,2.439,2.439,0,0,0,.3.776,7.149,7.149,0,0,1,.793,2.874h-8a34.52,34.52,0,0,1,.758-9.52,14.333,14.333,0,0,1,4.073,3.191,2.291,2.291,0,0,0,1.129.882.857.857,0,0,0,.811-1.375,17.56,17.56,0,0,0-5.536-4.425,17.778,17.778,0,0,1,1.3-3.1,3.46,3.46,0,0,1,.353-.564c2.081,4.39,8,6.453,11.812,6.453a6.513,6.513,0,0,0,4.143-1.181c6.928-5.659,11.177-6.717,12.235-6.911.352.176.952.476,1.745.846-2.468,1.234-4.055,3.421-4.919,6.753a.883.883,0,0,0,1.71.441c.9-3.456,2.574-5.36,5.483-6.153.829.37,1.746.758,2.733,1.164-1.869,1.693-3.79,4.461-3.667,7a.874.874,0,0,0,1.745-.088c-.088-1.975,1.834-4.707,3.755-6.171,1.216.477,2.521.97,3.843,1.411a12.655,12.655,0,0,0-3.755,5.889.882.882,0,0,0,1.693.494,10.937,10.937,0,0,1,2.415-4.231,10.25,10.25,0,0,1,1.657-1.5c.335.106.652.194.987.282a32.146,32.146,0,0,0,8.674,1.5,14.162,14.162,0,0,0,2.009-.141c2.8-.423,4.936.194,6.453,1.9,1.639,1.833,2.362,4.636,2.645,7.158C410.091,853.387,410.144,856.561,410.126,857.09Zm2.309-3.888c-.317-3.015-.97-7.255-3.121-9.67-2.116-2.38-5.112-3.315-8.833-2.75a11.185,11.185,0,0,1-1.6.106,31.937,31.937,0,0,1-8.674-1.6v-40.69l8.039-53.6a1.23,1.23,0,0,0-.018-.441L390.2,702.651V612.068c3.085,3.72,6.17,7.458,9.256,11.178a11.313,11.313,0,0,0,8.762,3.879l.123,209.744a1.31,1.31,0,0,0,1.322,1.323H622.286a1.322,1.322,0,1,0,0-2.645H410.99V626.789a11.933,11.933,0,0,0,6.54-3.949L429.2,612.085V644.6a5.707,5.707,0,0,0,5.695,5.712h47a5.711,5.711,0,0,0,5.712-5.712v-47A5.707,5.707,0,0,0,481.9,591.9H451.1l2.732-2.521a2.285,2.285,0,0,0,.406-1.146c5.254-1.957,15.973-7.193,15.973-7.193a12.479,12.479,0,0,0,7.193-7.951c1.2-3.685.864-7.616-.882-10.314-2.574-3.561-16.113,1.04-22.143,3.4a15.423,15.423,0,0,0,.476-1.957c.176-1.34-1.146-4.76-2.768-5.166a4.548,4.548,0,0,0-3.509.159,3.182,3.182,0,0,0-1.287,2.221c-.388,1.992-3.967,5.818-5.553,7.246a19.465,19.465,0,0,0-3.473,5.694L410.99,595.2V444.159H675.775l3.579,16.943-7.034,26.551c-1.481,5.571.741,11.107,4.937,12.341l8.921,2.609a6.484,6.484,0,0,0,1.658.229,9.346,9.346,0,0,0,8.515-6.206c1.252,3.7,4.143,5.835,7.581,5.835a6.038,6.038,0,0,0,1.939-.317l9.044-3.015c4.178-1.393,6.576-7,5.324-12.482l-5.853-25.775,2.961-16.713h7.669V591.423s-26.868-33.956-27.08-34.1L657.105,535.06c-.053-.335-22.99-17.242-23.166-17.366a1.319,1.319,0,0,0-1.992,1.551S642.7,545.832,643,545.973l6.505,25.51H509.472a1.322,1.322,0,1,0,0,2.644h140.7l2.768,10.807H509.472a1.322,1.322,0,1,0,0,2.644H653.615a6.979,6.979,0,0,0,1.235,4.214c.335.494,26.462,34.378,26.462,34.378-3.914,3.72-7.44,8.128-5.941,10.807,1.957,3.173,6.135,5.8,10.4,6.576a13.2,13.2,0,0,0,2.45.229,10.23,10.23,0,0,0,5.571-1.534l31.047,39.967V835.546H631.4a1.322,1.322,0,0,0,0,2.645h94.762a1.309,1.309,0,0,0,1.322-1.323V685.62l18.124,23.342V838.807a11.123,11.123,0,0,1-2.063-.088c-3.315-.493-6.012.353-7.9,2.486-2.8,3.138-3.367,9.088-3.3,12Zm270.5-224.968,9.238,11.9a8.384,8.384,0,0,1-5.924.811c-3.526-.635-7.069-2.838-8.6-5.307C677.1,634.652,679.725,631.408,682.933,628.234ZM762.8,853.2h-27.8c-.018-.476.194-1.789.212-2.406h27.961C763.062,851.589,762.815,852.479,762.8,853.2Zm.687-4.169H735.347a10.95,10.95,0,0,1,2.274-6.065,5.2,5.2,0,0,1,4.143-1.745c1.058,0,2.08.229,3.138.229a16.89,16.89,0,0,0,3.155-.282,6.4,6.4,0,0,0,5.13,2.115c.3,0,.6-.018.917-.035,1.763-.176,17.683-5.994,17.754-6.064.282-.282,2.309,1.445,2.539,1.622a22.117,22.117,0,0,0,3.085,2.309,13.7,13.7,0,0,1-4.16.388c-3.368-.335-5.853.6-7.634,2.733A11.068,11.068,0,0,0,763.485,849.033Zm6.47-12.906c-2.063.794-14.474,5.219-16.025,5.36a6.036,6.036,0,0,1-3.773-.74,80.983,80.983,0,0,0,15.99-6.047h.018A15.241,15.241,0,0,1,769.955,836.127Zm-3.7-12.411h18.141l.406,4.9-18.477.318Zm1.358,8.621.247-.793,17.154-.3.176,2.045a1.325,1.325,0,0,0,1.322,1.217l6.981-.581.194.476a95.667,95.667,0,0,1-10.172,4.831c-.458.017-.935.035-1.375.035-2.292,0-3.385-.388-3.632-.6C773.287,834.435,769.585,832.9,767.61,832.337Zm19.517-7.651,16.854-1.287.74,6.929-17.012,1.428Zm8.533,11.636h.018a25.125,25.125,0,0,1,4.284,1.393c-3.615,2.2-10.754,6.082-12.218,6.506a8.253,8.253,0,0,1-5.8-.529,4.876,4.876,0,0,1-1.128-.74A84.021,84.021,0,0,0,795.66,836.322Zm1.357-2.451.053-.246,21.015-1.763.388,2.7c-.74,3.332-5.5,5.448-8.55,5.448a2.885,2.885,0,0,1-1.693-.371C802.782,835.652,799.01,834.312,797.017,833.871Zm4.214-53.278,14.174,18.265,2.31,21.72-12.148.916Zm2.574,41.043-16.837,1.287-5.642-67.964,17.859,23.007Zm-19.569.318H766.218l-1.269-88.08,13.381,17.242ZM765.019,831.6h.035l-.247.811c-2.081,1.04-10.172,4.919-16.555,6.082V712.365l14,18.036,1.445,99.892a1.336,1.336,0,0,0,.406.934A1.371,1.371,0,0,0,765.019,831.6Zm55.693,5.219a16.2,16.2,0,0,1,1.269,2.539,15.235,15.235,0,0,0-4.566,4.108.871.871,0,0,0,1.093,1.287,2.5,2.5,0,0,0,.776-.776,12.276,12.276,0,0,1,3.28-2.909,31.107,31.107,0,0,1,1.057,8.057l-6.788.37c.229-.9.441-1.8.67-2.7a1.841,1.841,0,0,0,.071-.687c-.141-.829-1.323-.758-1.622-.088a11.172,11.172,0,0,0-.847,3.561l-47.266,2.556a.883.883,0,0,0,.035,1.763h.053l55.658-3c-.035.935-.088,1.71-.141,2.274-1.428.088-56.1,3.014-57.7,3.1-.265-2.732-.229-7.722,1.975-10.349a5.4,5.4,0,0,1,4.389-1.851,9.049,9.049,0,0,1,.952.053,17.978,17.978,0,0,0,5.871-.652,5.972,5.972,0,0,0,2.239,1.8,10.009,10.009,0,0,0,7.07.635c1.887-.546,10.3-5.183,13.558-7.263a40.069,40.069,0,0,1,4.866,3.12,5.461,5.461,0,0,0,3.262.882c3.508,0,8.779-2.151,10.631-6.065C820.606,836.656,820.659,836.745,820.712,836.815Zm-2.08-7.652-12.147,1.023-.741-6.928,12.164-.935ZM657.317,590.806c-3.614-7.228,5.306-15.021,11.635-9.414.229.405,17.013,22.055,17.119,22.2,1,1.287,3.138-.3,2.08-1.622,0,0-16.872-21.808-17.083-22.214a7.473,7.473,0,0,1-.758-4.372,7.686,7.686,0,0,1,12.57-4.778c.335.3,65.531,84.166,65.531,84.184a3.389,3.389,0,0,0,.405,2.7,13.489,13.489,0,0,0,4.478,3.579l103.947,133.9-11.988,9.308S693.617,608.612,693.247,608.136a1.321,1.321,0,0,0-2.1,1.6l152.2,196.011-12.006,9.309S657.387,590.947,657.317,590.806Z" transform="translate(0 0)" fill="#2b2150"/>
    <path id="Path_537" data-name="Path 537" d="M694.629,1194.131a3.532,3.532,0,0,1-3.2-2.016l-10.285-22.273c-1.881-4.074,4.486-7.105,6.4-2.956l8.047,17.429,30.061-33.234c3.021-3.339,8.293,1.344,5.231,4.731L697.244,1193A3.452,3.452,0,0,1,694.629,1194.131Z" transform="translate(-234.913 -559.46)" fill="#e6325c"/>
    <g id="Group_207" data-name="Group 207" transform="translate(689.973 326.496)">
      <circle id="Ellipse_6" data-name="Ellipse 6" cx="5.573" cy="5.573" r="5.573" transform="translate(1.322 1.322)" fill="#1dae8f"/>
      <path id="Path_538" data-name="Path 538" d="M1279.242,523.968a6.895,6.895,0,1,1,6.9-6.9A6.9,6.9,0,0,1,1279.242,523.968Zm0-11.146a4.251,4.251,0,1,0,4.251,4.25A4.255,4.255,0,0,0,1279.242,512.822Z" transform="translate(-1272.348 -510.178)" fill="#2b2150"/>
    </g>
  </g>
</svg>
