<svg id="Logo" xmlns="http://www.w3.org/2000/svg" width="133.398" height="84.009" viewBox="0 0 133.398 84.009">
  <g id="Group_6" data-name="Group 6" transform="translate(32.529)">
    <g id="Group_5" data-name="Group 5" transform="translate(0 0)">
      <rect id="Rectangle_4" data-name="Rectangle 4" width="1.19" height="3.349" transform="matrix(0.321, -0.947, 0.947, 0.321, 3.967, 1.43)" fill="#cdcccb"/>
      <path id="Path_17" data-name="Path 17" d="M368.763,538.2l4.114-12.121-.239-.081a1.052,1.052,0,1,1-1.992-.676l-.241-.082-4.114,12.121a1.308,1.308,0,0,0,.816,1.655h0a1.308,1.308,0,0,0,1.655-.816Z" transform="translate(-366.222 -525.244)" fill="#a87115" fill-rule="evenodd"/>
      <path id="Path_18" data-name="Path 18" d="M373.458,526.266l-4.114,12.121a1.052,1.052,0,1,1-1.992-.676l4.114-12.121a1.052,1.052,0,1,0,1.992.676Z" transform="translate(-367.042 -525.508)" fill="#e7e6e6" fill-rule="evenodd"/>
      <path id="Path_19" data-name="Path 19" d="M371.2,542.146l-1.236-.419a1.308,1.308,0,0,0,1.655-.816l4.114-12.121,14.037,4.765-4.114,12.121a1.308,1.308,0,0,1-1.655.816Z" transform="translate(-369.078 -527.95)" fill="#f8af39" fill-rule="evenodd"/>
      <path id="Path_20" data-name="Path 20" d="M383.618,538.6l.31-.915-1.073-.364.236.59-.546.325Z" transform="translate(-378.682 -534.462)" fill="#1e79bd"/>
    </g>
    <path id="Path_21" data-name="Path 21" d="M384.376,573.079a2.4,2.4,0,0,0,.31.716c.6.9,1.232,1.771,1.889,2.626a1.42,1.42,0,0,1,.372,1.032.641.641,0,0,0,.015.155c.121.846-.031,1.755.085,2.6.07.513-.066.963,0,1.476H390.7c-.216-.938.261-1.8.044-2.737-.15-.646.329-1.361.5-2a4.057,4.057,0,0,1,.67-1.352,6.865,6.865,0,0,0,1.162-2.271,3.693,3.693,0,0,1,.855-1.529c.33-.363.713-.672,1.039-1.04a3.286,3.286,0,0,0,.525-.737.723.723,0,0,0,.087-.407.374.374,0,0,0-.571-.31c-.032.017-.063.036-.095.054a5.208,5.208,0,0,0-1.179,1.134,5.921,5.921,0,0,1-.835.7c-.048.036-.112.074-.172.025s-.035-.106-.018-.161a2.636,2.636,0,0,1,.108-.326c.248-.546.538-1.071.833-1.593a8.266,8.266,0,0,0,.746-1.478.8.8,0,0,0,.022-.477.309.309,0,0,0-.425-.25,1.421,1.421,0,0,0-.972.958,1.436,1.436,0,0,1-.135.314c-.24.4-.508.79-.774,1.177-.154.223-.317.44-.482.655-.047.061-.12.124-.2.077s-.054-.147-.039-.227a.278.278,0,0,1,.044-.1,1.136,1.136,0,0,0,.136-.331c.155-.536.31-1.072.47-1.607.146-.484.21-.987.376-1.467a.549.549,0,0,0-.342-.647.511.511,0,0,0-.645.237,2.234,2.234,0,0,0-.15.309c-.216.521-.4,1.053-.586,1.585a8.517,8.517,0,0,1-.765,1.779c-.039.062-.073.169-.162.141s-.046-.128-.046-.2a19.109,19.109,0,0,1,.234-2.206,4.948,4.948,0,0,0-.026-1.371.424.424,0,0,0-.353-.365.434.434,0,0,0-.447.157,1.381,1.381,0,0,0-.268.491,5.878,5.878,0,0,0-.218,1.054c-.112.62-.249,1.237-.386,1.853a7.241,7.241,0,0,1-.962,2.431.934.934,0,0,1-.531.414,1.354,1.354,0,0,1-1.3-.312,5.329,5.329,0,0,1-.5-.518,7.518,7.518,0,0,0-1.435-1.275.837.837,0,0,0-.428-.132.377.377,0,0,0-.419.4,1.008,1.008,0,0,0,.363.784.376.376,0,0,1,.116.124,5.945,5.945,0,0,0,.792,1.179A2.316,2.316,0,0,1,384.376,573.079Z" transform="translate(-378.792 -556.076)" fill="#422561"/>
    <path id="Path_22" data-name="Path 22" d="M378.5,576.691a.833.833,0,0,0-.051.156c-.141.509-.513,2.086-.513,2.086l4.3,1.493s-.173-2.952-.173-3.054S378.5,576.691,378.5,576.691Z" transform="translate(-375.162 -564.516)" fill="#f8af39"/>
  </g>
  <path id="Rectangle_5" data-name="Rectangle 5" d="M33,0H79.6a0,0,0,0,1,0,0V46.6a33,33,0,0,1-33,33H33a33,33,0,0,1-33-33V33A33,33,0,0,1,33,0Z" transform="translate(53.802 4.413)" fill="#422561"/>
  <g id="Group_7" data-name="Group 7" transform="translate(68.606 16.279)" opacity="0.18">
    <path id="Path_23" data-name="Path 23" d="M541.6,619.957A7.439,7.439,0,0,1,542.8,617.1a1.038,1.038,0,0,1,1.387-.217.908.908,0,0,1,.228,1.3,6.7,6.7,0,0,0-.842,4.314c.3,1.687.815,3.05,3.619,3.555,1.779.32,1.955,1.686,2.082,2.683a5.517,5.517,0,0,0,2.012,3.953,11.755,11.755,0,0,0,2.427,1.493c.449.231.918.472,1.382.745a14.714,14.714,0,0,0,1.226-5.536,8.878,8.878,0,0,0-1.878-5.178l-.252-.327.08-.4a9.6,9.6,0,0,0,.187-2.123,4.071,4.071,0,0,1-1.258.189,5.542,5.542,0,0,1-4.363-1.937c-1.712-2.043-1.318-4.316-1.238-5.506s.155-2.136.3-3.479a27.61,27.61,0,0,0,.29-5.594c-.643-2.835-2.1-2.788-2.654-2.771a.935.935,0,1,1-.059-1.865c1.37-.043,3.8.449,4.657,4.24a25.832,25.832,0,0,1-.256,6.169c-.143,1.34-.264,2.31-.289,3.391s-.2,3.071.82,4.264a3.872,3.872,0,0,0,2.914,1.224,2.8,2.8,0,0,0,2.1-1.409,5.383,5.383,0,0,0-.8-5.692l-.486-.588.5-.577a5.48,5.48,0,0,0,1.381-3.782,5.416,5.416,0,0,0-1.158-3.173l-.447-.572.47-.559a5.5,5.5,0,0,0,1.317-3.723,5.265,5.265,0,0,0-5.552-5.448,4.876,4.876,0,0,0-4.734,3.088c-2.212-.586-4.8,1.335-5.376,3.245-.6,1.978-.234,4.347,2.27,7.344a9.4,9.4,0,0,0,1.177,1.186.892.892,0,0,1,.08,1.317,1.038,1.038,0,0,1-1.4.081,11.274,11.274,0,0,1-1.42-1.427,12.27,12.27,0,0,1-2.654-6.188c-3.781,2.584-4.267,7.34-2.545,9.956C533.837,616.094,537.27,620.161,541.6,619.957Z" transform="translate(-531.208 -594.135)" fill="#fff"/>
    <path id="Path_24" data-name="Path 24" d="M540.214,704.18a10.365,10.365,0,0,1-2.831-1.768,7.251,7.251,0,0,1-2.621-5.086c-.131-1.016-.172-1.023-.491-1.081a7.186,7.186,0,0,1-3.5-1.477,7.492,7.492,0,0,1-2.771.637,8.9,8.9,0,0,1-4.633-1.193.9.9,0,0,1-.271-1.294,1.037,1.037,0,0,1,1.376-.261,6.393,6.393,0,0,0,5.13.562,6.775,6.775,0,0,1-.724-3.017c-4.175.114-8.038-2.353-8.2-6.484-5.4,7.928,1.033,15.357,8.366,17.458a4.913,4.913,0,0,1,3.415,4.6,4.39,4.39,0,0,1-.265,1.506,11.315,11.315,0,0,1,2.611.834,9.322,9.322,0,0,1-.034-2.674.994.994,0,0,1,1.128-.79.94.94,0,0,1,.838,1.055c0,.025-.455,2.994.856,4.383a6.421,6.421,0,0,1,1.591,3.32.95.95,0,0,1-.848,1.055c-.036,0-.072.008-.108.009a.972.972,0,0,1-1.012-.8c-.588-3.981-4.672-4.534-6.116-4.678a7.42,7.42,0,0,1-3.017,1.766,1.022,1.022,0,0,1-.3.054.989.989,0,0,1-.967-.619.923.923,0,0,1,.608-1.192c1.977-.661,3.059-1.8,3.046-3.2a3.13,3.13,0,0,0-2.056-2.851c-4.085-1.264-7.083-3.329-8.937-6.145-2.4,6.268,2.8,8.929,6.12,8.536a.99.99,0,0,1,1.107.81.952.952,0,0,1-.868,1.042q-.405.048-.791.059a8.714,8.714,0,0,1-3.035-.438c-.782,3.462,2.76,9.235,9.231,6.861.81,4.539,7.5,6.638,11.359,2.326C546.391,711.758,543.758,705.67,540.214,704.18Z" transform="translate(-518.67 -662.494)" fill="#fff"/>
    <path id="Path_25" data-name="Path 25" d="M629.9,607.011a4.994,4.994,0,0,0,.073.692,14.2,14.2,0,0,1,2.19-2.335c.226-.182.445-.355.656-.523,2.092-1.659,3.142-2.49,2.959-5.279a.962.962,0,0,1,1.917-.118c.243,3.695-1.386,4.987-3.64,6.774-.207.165-.422.335-.643.513a12.329,12.329,0,0,0-2.6,3.09l.012.021-.2.407a5.189,5.189,0,0,0,.09,4.8l.193.361-.158.376a7.238,7.238,0,0,0-.042,5.58,8.4,8.4,0,0,1,2.733-2.238,8.644,8.644,0,0,1,4.773-1.045,10.559,10.559,0,0,1,7.574-3.571l.075,0c1.7-.054,5.04.429,6.521,2.425.644-3.606-.644-6.568-4.4-7.335a6.282,6.282,0,0,0-2.892-6.678,8.014,8.014,0,0,1-3.1,4.1,7.507,7.507,0,0,1,1.545,3.981.934.934,0,0,1-.932.916h-.018a.931.931,0,0,1-.972-.888,5.793,5.793,0,0,0-1.188-2.956A8.451,8.451,0,0,0,636.514,613a.958.958,0,0,1-.889.637.981.981,0,0,1-.313-.039.89.89,0,0,1-.633-1.126,10.558,10.558,0,0,1,5.04-6.118c1.533-1,2.863-1.874,3.6-4.129l.148-.751a5.946,5.946,0,0,0,.113-1.347,6.723,6.723,0,0,0-13.412.425,5.923,5.923,0,0,0,.657,2.528l.227.443-.275.42A5.287,5.287,0,0,0,629.9,607.011Z" transform="translate(-603.578 -594.035)" fill="#fff"/>
    <path id="Path_26" data-name="Path 26" d="M653.141,701.174a19.246,19.246,0,0,1-1.778,1.856,1,1,0,0,1-1.357-.022.864.864,0,0,1,.029-1.275,16.877,16.877,0,0,0,2-2.185l-.015-.017.345-.537a7.062,7.062,0,0,0-1.239-9.146c-.066-.062-.128-.125-.2-.183l-.071-.063a7.465,7.465,0,0,0-4.809-1.406,8.649,8.649,0,0,0-6.5,3.316l-.433.542-.674-.237a5.871,5.871,0,0,0-3.873.765,6.143,6.143,0,0,0-3.127,3.866c-.863,3.206,1.6,5.074,2.479,5.693a.914.914,0,0,1,.364,1.225.97.97,0,0,1-.809.464.99.99,0,0,1-.493-.111,7.223,7.223,0,0,1-2.5-2.3,6.413,6.413,0,0,0-.328,2.187,6.5,6.5,0,0,0,1.5,3.935l.276.339a21.545,21.545,0,0,0,2.813,2.443c.418.322.793.611,1.078.855a5.016,5.016,0,0,1,1.505,6.248.977.977,0,0,1-.822.483,1,1,0,0,1-.478-.1.873.873,0,0,1-.4-1.211,3.246,3.246,0,0,0-1.1-4.08c-.266-.227-.614-.495-1-.793-.669-.514-1.47-1.135-2.21-1.817a4.39,4.39,0,0,0,.48,2.778l.225.426-.249.415A5.288,5.288,0,0,0,631,716.4a5.743,5.743,0,0,0,6.081,5.358,5.912,5.912,0,0,0,5.213-3.3l.165-.349.382-.132a5.149,5.149,0,0,0,2.576-1.96,5.521,5.521,0,0,1-2.295-.769,4.72,4.72,0,0,1-2.287-3.542,9.138,9.138,0,0,1,.723-3.994,8.828,8.828,0,0,1-2.438.434,5.593,5.593,0,0,1-2.086-.276.882.882,0,0,1-.527-1.175.988.988,0,0,1,1.253-.5c1.073.407,4.461.041,5.624-2.014,1.191-2.127,1.508-3.234,1.062-4.3a2.511,2.511,0,0,0-1.885-1.529,4.1,4.1,0,0,0-3.446,1.027,1,1,0,0,1-1.358-.031.865.865,0,0,1,.04-1.276,6.24,6.24,0,0,1,4.3-1.577,7.324,7.324,0,0,0,.044-3.314.9.9,0,0,1,.707-1.092.968.968,0,0,1,1.16.659,9.093,9.093,0,0,1-.044,4.163,4.339,4.339,0,0,1,2.265,2.3c.925,2.218-.183,4.245-2.067,7.368-.006.012-1.635,2.876-1.42,4.942a2.88,2.88,0,0,0,1.426,2.21C649.467,716.8,655.746,708.209,653.141,701.174Z" transform="translate(-603.761 -665.909)" fill="#fff"/>
  </g>
  <g id="Group_8" data-name="Group 8" transform="translate(0 21.477)">
    <path id="Path_27" data-name="Path 27" d="M228.765,616.476a.424.424,0,0,1,.479-.479h3.07a.424.424,0,0,1,.48.479v25.853a2.794,2.794,0,0,0,.551,1.99,2.4,2.4,0,0,0,1.751.552h2.11a1.7,1.7,0,0,1,1.918,1.918q0,1.2-.456,1.511a2.65,2.65,0,0,1-1.463.312h-2.83q-3.022,0-4.317-1.463a6.784,6.784,0,0,1-1.295-4.581Z" transform="translate(-228.765 -615.997)" fill="#422561"/>
    <path id="Path_28" data-name="Path 28" d="M256.326,685.836q0-1.2.456-1.511a2.654,2.654,0,0,1,1.463-.312h5.324V677.73a14.348,14.348,0,0,1,.7-4.724,9,9,0,0,1,1.895-3.262,7.284,7.284,0,0,1,2.854-1.87,10.275,10.275,0,0,1,3.525-.6,9.214,9.214,0,0,1,6.811,2.4q2.4,2.4,2.4,7.482a13.13,13.13,0,0,1-.576,3.885,10.83,10.83,0,0,1-1.343,2.974h5.324a2.653,2.653,0,0,1,1.463.312q.455.312.456,1.511a1.7,1.7,0,0,1-1.919,1.919h-4.844a5.108,5.108,0,0,1,1.007,3.31,6.652,6.652,0,0,1-.528,2.662,5.566,5.566,0,0,1-1.607,2.11,8.27,8.27,0,0,1-2.662,1.415,11.872,11.872,0,0,1-3.741.528q-4.461,0-6.835-1.8a6.5,6.5,0,0,1-2.374-5.54v-2.686h-5.324A1.7,1.7,0,0,1,256.326,685.836Zm16.212-14.821a4.407,4.407,0,0,0-3.621,1.631A7.062,7.062,0,0,0,267.6,677.2v6.811h5.42a3.93,3.93,0,0,0,2.183-.576,4.724,4.724,0,0,0,1.463-1.511,6.458,6.458,0,0,0,.815-2.11,11.619,11.619,0,0,0,.24-2.326,7.718,7.718,0,0,0-1.3-4.8A4.6,4.6,0,0,0,272.538,671.015Zm.048,23.023a6.13,6.13,0,0,0,3.645-.815,2.743,2.743,0,0,0,1.055-2.3,4.265,4.265,0,0,0-.144-1.079,2.6,2.6,0,0,0-.552-1.031,2.843,2.843,0,0,0-1.1-.767,4.764,4.764,0,0,0-1.8-.288H267.6v2.686Q267.6,694.038,272.586,694.038Z" transform="translate(-249.804 -655.139)" fill="#422561"/>
    <path id="Path_29" data-name="Path 29" d="M371.745,648.612a2.512,2.512,0,0,1-1.439-.336,1.548,1.548,0,0,1-.48-1.343,2.236,2.236,0,0,1,.456-1.631,2.078,2.078,0,0,1,1.463-.432h3.022a2.4,2.4,0,0,0,1.751-.552,2.8,2.8,0,0,0,.551-1.99V616.476a.424.424,0,0,1,.48-.479h3.07a.424.424,0,0,1,.479.479v26.093a6.782,6.782,0,0,1-1.3,4.581q-1.295,1.464-4.317,1.463Z" transform="translate(-336.444 -615.997)" fill="#422561"/>
    <path id="Path_30" data-name="Path 30" d="M492.522,674.8q.191-.335.671-.048l2.638,1.439a.4.4,0,0,1,.144.624,19.881,19.881,0,0,0-1.655,3.309,10.946,10.946,0,0,0-.792,4.125,7.523,7.523,0,0,0,.7,3.429,5.864,5.864,0,0,0,1.8,2.158,7.179,7.179,0,0,0,2.4,1.127,10.13,10.13,0,0,0,2.542.336A7.781,7.781,0,0,0,506,689.714q1.966-1.583,1.967-5.132V670.576a.424.424,0,0,1,.479-.479h3.07a.424.424,0,0,1,.479.479v8.01a2.778,2.778,0,0,0,1.175,2.446,5.409,5.409,0,0,0,3.142.816h.192a2.181,2.181,0,0,1,1.439.408,1.711,1.711,0,0,1,.479,1.367q0,1.247-.456,1.607a2.369,2.369,0,0,1-1.463.36h-.671A4.824,4.824,0,0,1,512,684.054v.576a10.193,10.193,0,0,1-2.9,7.722q-2.9,2.781-8.37,2.782a14.753,14.753,0,0,1-4.676-.7A9.719,9.719,0,0,1,492.5,692.4a9.242,9.242,0,0,1-2.278-3.286,11.5,11.5,0,0,1-.816-4.485,16.04,16.04,0,0,1,.935-5.444A18.387,18.387,0,0,1,492.522,674.8Zm8.2-5.9a.424.424,0,0,1-.48-.479v-3.5a.424.424,0,0,1,.48-.48h3.262a.424.424,0,0,1,.479.48v3.5a.424.424,0,0,1-.479.479Z" transform="translate(-427.724 -652.974)" fill="#fff"/>
    <path id="Path_31" data-name="Path 31" d="M608.951,671.015a6.706,6.706,0,0,0-3,.672,8.119,8.119,0,0,0-2.422,1.823.438.438,0,0,1-.671.048l-2.11-1.727q-.432-.335-.144-.672a11.106,11.106,0,0,1,3.333-2.782,9.915,9.915,0,0,1,4.868-1.1,12.368,12.368,0,0,1,5.42,1.031,8.822,8.822,0,0,1,3.333,2.71,10.2,10.2,0,0,1,1.7,3.885,21.432,21.432,0,0,1,.479,4.557q0,.432-.024.815c-.017.256-.024.512-.024.767a2.684,2.684,0,0,0,1.271,2.23,5.614,5.614,0,0,0,3.046.744h.528a2.181,2.181,0,0,1,1.439.408,1.711,1.711,0,0,1,.479,1.367q0,1.247-.455,1.607a2.37,2.37,0,0,1-1.463.36h-1.007a6.082,6.082,0,0,1-2.926-.7,3.829,3.829,0,0,1-1.822-2.087,4.586,4.586,0,0,1-2.279,2.159,9.4,9.4,0,0,1-3.669.623H597.728a1.7,1.7,0,0,1-1.919-1.919q0-1.2.456-1.511a2.654,2.654,0,0,1,1.463-.312h13.622a8.737,8.737,0,0,0,2.159-.216,2.32,2.32,0,0,0,1.247-.744,2.933,2.933,0,0,0,.576-1.415,13.952,13.952,0,0,0,.144-2.182,16.318,16.318,0,0,0-.336-3.429,7.837,7.837,0,0,0-1.079-2.686,4.867,4.867,0,0,0-1.99-1.727A7.183,7.183,0,0,0,608.951,671.015Z" transform="translate(-508.948 -655.139)" fill="#fff"/>
    <path id="Path_32" data-name="Path 32" d="M712.441,660.834A2.513,2.513,0,0,1,711,660.5a1.548,1.548,0,0,1-.48-1.343,2.235,2.235,0,0,1,.456-1.631,2.078,2.078,0,0,1,1.463-.432h3.022a2.4,2.4,0,0,0,1.751-.552,2.8,2.8,0,0,0,.552-1.99V641.7a.424.424,0,0,1,.48-.479h3.07a.424.424,0,0,1,.48.479v13.094a6.784,6.784,0,0,1-1.295,4.581q-1.3,1.464-4.317,1.463Zm5.708-24.366a.424.424,0,0,1-.479-.479v-3.5a.424.424,0,0,1,.479-.48h3.262a.424.424,0,0,1,.48.48v3.5a.424.424,0,0,1-.48.479Z" transform="translate(-596.514 -628.219)" fill="#fff"/>
  </g>
</svg>
